G04 #@! TF.GenerationSoftware,KiCad,Pcbnew,(6.0.2)*
G04 #@! TF.CreationDate,2022-07-04T11:46:19+05:00*
G04 #@! TF.ProjectId,18bit-DIT,31386269-742d-4444-9954-2e6b69636164,rev?*
G04 #@! TF.SameCoordinates,Original*
G04 #@! TF.FileFunction,Legend,Bot*
G04 #@! TF.FilePolarity,Positive*
%FSLAX46Y46*%
G04 Gerber Fmt 4.6, Leading zero omitted, Abs format (unit mm)*
G04 Created by KiCad (PCBNEW (6.0.2)) date 2022-07-04 11:46:19*
%MOMM*%
%LPD*%
G01*
G04 APERTURE LIST*
%ADD10C,0.150000*%
G04 APERTURE END LIST*
D10*
X142571428Y-68427380D02*
X142571428Y-67427380D01*
X142571428Y-68379761D02*
X142666666Y-68427380D01*
X142857142Y-68427380D01*
X142952380Y-68379761D01*
X143000000Y-68332142D01*
X143047619Y-68236904D01*
X143047619Y-67951190D01*
X143000000Y-67855952D01*
X142952380Y-67808333D01*
X142857142Y-67760714D01*
X142666666Y-67760714D01*
X142571428Y-67808333D01*
X142095238Y-68427380D02*
X142095238Y-67760714D01*
X142095238Y-67427380D02*
X142142857Y-67475000D01*
X142095238Y-67522619D01*
X142047619Y-67475000D01*
X142095238Y-67427380D01*
X142095238Y-67522619D01*
X141761904Y-67760714D02*
X141380952Y-67760714D01*
X141619047Y-68427380D02*
X141619047Y-67570238D01*
X141571428Y-67475000D01*
X141476190Y-67427380D01*
X141380952Y-67427380D01*
X140857142Y-67427380D02*
X140761904Y-67427380D01*
X140666666Y-67475000D01*
X140619047Y-67522619D01*
X140571428Y-67617857D01*
X140523809Y-67808333D01*
X140523809Y-68046428D01*
X140571428Y-68236904D01*
X140619047Y-68332142D01*
X140666666Y-68379761D01*
X140761904Y-68427380D01*
X140857142Y-68427380D01*
X140952380Y-68379761D01*
X141000000Y-68332142D01*
X141047619Y-68236904D01*
X141095238Y-68046428D01*
X141095238Y-67808333D01*
X141047619Y-67617857D01*
X141000000Y-67522619D01*
X140952380Y-67475000D01*
X140857142Y-67427380D01*
X140095238Y-68332142D02*
X140047619Y-68379761D01*
X140095238Y-68427380D01*
X140142857Y-68379761D01*
X140095238Y-68332142D01*
X140095238Y-68427380D01*
X140095238Y-67808333D02*
X140047619Y-67855952D01*
X140095238Y-67903571D01*
X140142857Y-67855952D01*
X140095238Y-67808333D01*
X140095238Y-67903571D01*
X138857142Y-67760714D02*
X138857142Y-68617857D01*
X138904761Y-68713095D01*
X139000000Y-68760714D01*
X139047619Y-68760714D01*
X138857142Y-67427380D02*
X138904761Y-67475000D01*
X138857142Y-67522619D01*
X138809523Y-67475000D01*
X138857142Y-67427380D01*
X138857142Y-67522619D01*
X138380952Y-67760714D02*
X138380952Y-68760714D01*
X138380952Y-67808333D02*
X138285714Y-67760714D01*
X138095238Y-67760714D01*
X138000000Y-67808333D01*
X137952380Y-67855952D01*
X137904761Y-67951190D01*
X137904761Y-68236904D01*
X137952380Y-68332142D01*
X138000000Y-68379761D01*
X138095238Y-68427380D01*
X138285714Y-68427380D01*
X138380952Y-68379761D01*
X137428571Y-68427380D02*
X137238095Y-68427380D01*
X137142857Y-68379761D01*
X137095238Y-68332142D01*
X137000000Y-68189285D01*
X136952380Y-67998809D01*
X136952380Y-67617857D01*
X137000000Y-67522619D01*
X137047619Y-67475000D01*
X137142857Y-67427380D01*
X137333333Y-67427380D01*
X137428571Y-67475000D01*
X137476190Y-67522619D01*
X137523809Y-67617857D01*
X137523809Y-67855952D01*
X137476190Y-67951190D01*
X137428571Y-67998809D01*
X137333333Y-68046428D01*
X137142857Y-68046428D01*
X137047619Y-67998809D01*
X137000000Y-67951190D01*
X136952380Y-67855952D01*
X142571428Y-70037380D02*
X142571428Y-69037380D01*
X142571428Y-69989761D02*
X142666666Y-70037380D01*
X142857142Y-70037380D01*
X142952380Y-69989761D01*
X143000000Y-69942142D01*
X143047619Y-69846904D01*
X143047619Y-69561190D01*
X143000000Y-69465952D01*
X142952380Y-69418333D01*
X142857142Y-69370714D01*
X142666666Y-69370714D01*
X142571428Y-69418333D01*
X142095238Y-70037380D02*
X142095238Y-69370714D01*
X142095238Y-69037380D02*
X142142857Y-69085000D01*
X142095238Y-69132619D01*
X142047619Y-69085000D01*
X142095238Y-69037380D01*
X142095238Y-69132619D01*
X141761904Y-69370714D02*
X141380952Y-69370714D01*
X141619047Y-70037380D02*
X141619047Y-69180238D01*
X141571428Y-69085000D01*
X141476190Y-69037380D01*
X141380952Y-69037380D01*
X140523809Y-70037380D02*
X141095238Y-70037380D01*
X140809523Y-70037380D02*
X140809523Y-69037380D01*
X140904761Y-69180238D01*
X141000000Y-69275476D01*
X141095238Y-69323095D01*
X140095238Y-69942142D02*
X140047619Y-69989761D01*
X140095238Y-70037380D01*
X140142857Y-69989761D01*
X140095238Y-69942142D01*
X140095238Y-70037380D01*
X140095238Y-69418333D02*
X140047619Y-69465952D01*
X140095238Y-69513571D01*
X140142857Y-69465952D01*
X140095238Y-69418333D01*
X140095238Y-69513571D01*
X138857142Y-69370714D02*
X138857142Y-70227857D01*
X138904761Y-70323095D01*
X139000000Y-70370714D01*
X139047619Y-70370714D01*
X138857142Y-69037380D02*
X138904761Y-69085000D01*
X138857142Y-69132619D01*
X138809523Y-69085000D01*
X138857142Y-69037380D01*
X138857142Y-69132619D01*
X138380952Y-69370714D02*
X138380952Y-70370714D01*
X138380952Y-69418333D02*
X138285714Y-69370714D01*
X138095238Y-69370714D01*
X138000000Y-69418333D01*
X137952380Y-69465952D01*
X137904761Y-69561190D01*
X137904761Y-69846904D01*
X137952380Y-69942142D01*
X138000000Y-69989761D01*
X138095238Y-70037380D01*
X138285714Y-70037380D01*
X138380952Y-69989761D01*
X137333333Y-69465952D02*
X137428571Y-69418333D01*
X137476190Y-69370714D01*
X137523809Y-69275476D01*
X137523809Y-69227857D01*
X137476190Y-69132619D01*
X137428571Y-69085000D01*
X137333333Y-69037380D01*
X137142857Y-69037380D01*
X137047619Y-69085000D01*
X137000000Y-69132619D01*
X136952380Y-69227857D01*
X136952380Y-69275476D01*
X137000000Y-69370714D01*
X137047619Y-69418333D01*
X137142857Y-69465952D01*
X137333333Y-69465952D01*
X137428571Y-69513571D01*
X137476190Y-69561190D01*
X137523809Y-69656428D01*
X137523809Y-69846904D01*
X137476190Y-69942142D01*
X137428571Y-69989761D01*
X137333333Y-70037380D01*
X137142857Y-70037380D01*
X137047619Y-69989761D01*
X137000000Y-69942142D01*
X136952380Y-69846904D01*
X136952380Y-69656428D01*
X137000000Y-69561190D01*
X137047619Y-69513571D01*
X137142857Y-69465952D01*
X142571428Y-71647380D02*
X142571428Y-70647380D01*
X142571428Y-71599761D02*
X142666666Y-71647380D01*
X142857142Y-71647380D01*
X142952380Y-71599761D01*
X143000000Y-71552142D01*
X143047619Y-71456904D01*
X143047619Y-71171190D01*
X143000000Y-71075952D01*
X142952380Y-71028333D01*
X142857142Y-70980714D01*
X142666666Y-70980714D01*
X142571428Y-71028333D01*
X142095238Y-71647380D02*
X142095238Y-70980714D01*
X142095238Y-70647380D02*
X142142857Y-70695000D01*
X142095238Y-70742619D01*
X142047619Y-70695000D01*
X142095238Y-70647380D01*
X142095238Y-70742619D01*
X141761904Y-70980714D02*
X141380952Y-70980714D01*
X141619047Y-71647380D02*
X141619047Y-70790238D01*
X141571428Y-70695000D01*
X141476190Y-70647380D01*
X141380952Y-70647380D01*
X141095238Y-70742619D02*
X141047619Y-70695000D01*
X140952380Y-70647380D01*
X140714285Y-70647380D01*
X140619047Y-70695000D01*
X140571428Y-70742619D01*
X140523809Y-70837857D01*
X140523809Y-70933095D01*
X140571428Y-71075952D01*
X141142857Y-71647380D01*
X140523809Y-71647380D01*
X140095238Y-71552142D02*
X140047619Y-71599761D01*
X140095238Y-71647380D01*
X140142857Y-71599761D01*
X140095238Y-71552142D01*
X140095238Y-71647380D01*
X140095238Y-71028333D02*
X140047619Y-71075952D01*
X140095238Y-71123571D01*
X140142857Y-71075952D01*
X140095238Y-71028333D01*
X140095238Y-71123571D01*
X138857142Y-70980714D02*
X138857142Y-71837857D01*
X138904761Y-71933095D01*
X139000000Y-71980714D01*
X139047619Y-71980714D01*
X138857142Y-70647380D02*
X138904761Y-70695000D01*
X138857142Y-70742619D01*
X138809523Y-70695000D01*
X138857142Y-70647380D01*
X138857142Y-70742619D01*
X138380952Y-70980714D02*
X138380952Y-71980714D01*
X138380952Y-71028333D02*
X138285714Y-70980714D01*
X138095238Y-70980714D01*
X138000000Y-71028333D01*
X137952380Y-71075952D01*
X137904761Y-71171190D01*
X137904761Y-71456904D01*
X137952380Y-71552142D01*
X138000000Y-71599761D01*
X138095238Y-71647380D01*
X138285714Y-71647380D01*
X138380952Y-71599761D01*
X137047619Y-70647380D02*
X137238095Y-70647380D01*
X137333333Y-70695000D01*
X137380952Y-70742619D01*
X137476190Y-70885476D01*
X137523809Y-71075952D01*
X137523809Y-71456904D01*
X137476190Y-71552142D01*
X137428571Y-71599761D01*
X137333333Y-71647380D01*
X137142857Y-71647380D01*
X137047619Y-71599761D01*
X137000000Y-71552142D01*
X136952380Y-71456904D01*
X136952380Y-71218809D01*
X137000000Y-71123571D01*
X137047619Y-71075952D01*
X137142857Y-71028333D01*
X137333333Y-71028333D01*
X137428571Y-71075952D01*
X137476190Y-71123571D01*
X137523809Y-71218809D01*
X143309523Y-73209761D02*
X143404761Y-73257380D01*
X143595238Y-73257380D01*
X143690476Y-73209761D01*
X143738095Y-73162142D01*
X143785714Y-73066904D01*
X143785714Y-72781190D01*
X143738095Y-72685952D01*
X143690476Y-72638333D01*
X143595238Y-72590714D01*
X143404761Y-72590714D01*
X143309523Y-72638333D01*
X142880952Y-73257380D02*
X142880952Y-72257380D01*
X142785714Y-72876428D02*
X142500000Y-73257380D01*
X142500000Y-72590714D02*
X142880952Y-72971666D01*
X142119047Y-73209761D02*
X142023809Y-73257380D01*
X141833333Y-73257380D01*
X141738095Y-73209761D01*
X141690476Y-73114523D01*
X141690476Y-73066904D01*
X141738095Y-72971666D01*
X141833333Y-72924047D01*
X141976190Y-72924047D01*
X142071428Y-72876428D01*
X142119047Y-72781190D01*
X142119047Y-72733571D01*
X142071428Y-72638333D01*
X141976190Y-72590714D01*
X141833333Y-72590714D01*
X141738095Y-72638333D01*
X141071428Y-72257380D02*
X140976190Y-72257380D01*
X140880952Y-72305000D01*
X140833333Y-72352619D01*
X140785714Y-72447857D01*
X140738095Y-72638333D01*
X140738095Y-72876428D01*
X140785714Y-73066904D01*
X140833333Y-73162142D01*
X140880952Y-73209761D01*
X140976190Y-73257380D01*
X141071428Y-73257380D01*
X141166666Y-73209761D01*
X141214285Y-73162142D01*
X141261904Y-73066904D01*
X141309523Y-72876428D01*
X141309523Y-72638333D01*
X141261904Y-72447857D01*
X141214285Y-72352619D01*
X141166666Y-72305000D01*
X141071428Y-72257380D01*
X140309523Y-73162142D02*
X140261904Y-73209761D01*
X140309523Y-73257380D01*
X140357142Y-73209761D01*
X140309523Y-73162142D01*
X140309523Y-73257380D01*
X140309523Y-72638333D02*
X140261904Y-72685952D01*
X140309523Y-72733571D01*
X140357142Y-72685952D01*
X140309523Y-72638333D01*
X140309523Y-72733571D01*
X139071428Y-72590714D02*
X139071428Y-73447857D01*
X139119047Y-73543095D01*
X139214285Y-73590714D01*
X139261904Y-73590714D01*
X139071428Y-72257380D02*
X139119047Y-72305000D01*
X139071428Y-72352619D01*
X139023809Y-72305000D01*
X139071428Y-72257380D01*
X139071428Y-72352619D01*
X138595238Y-72590714D02*
X138595238Y-73590714D01*
X138595238Y-72638333D02*
X138500000Y-72590714D01*
X138309523Y-72590714D01*
X138214285Y-72638333D01*
X138166666Y-72685952D01*
X138119047Y-72781190D01*
X138119047Y-73066904D01*
X138166666Y-73162142D01*
X138214285Y-73209761D01*
X138309523Y-73257380D01*
X138500000Y-73257380D01*
X138595238Y-73209761D01*
X137166666Y-73257380D02*
X137738095Y-73257380D01*
X137452380Y-73257380D02*
X137452380Y-72257380D01*
X137547619Y-72400238D01*
X137642857Y-72495476D01*
X137738095Y-72543095D01*
X136214285Y-73257380D02*
X136785714Y-73257380D01*
X136500000Y-73257380D02*
X136500000Y-72257380D01*
X136595238Y-72400238D01*
X136690476Y-72495476D01*
X136785714Y-72543095D01*
X142833333Y-74819761D02*
X142928571Y-74867380D01*
X143119047Y-74867380D01*
X143214285Y-74819761D01*
X143261904Y-74772142D01*
X143309523Y-74676904D01*
X143309523Y-74391190D01*
X143261904Y-74295952D01*
X143214285Y-74248333D01*
X143119047Y-74200714D01*
X142928571Y-74200714D01*
X142833333Y-74248333D01*
X142404761Y-74867380D02*
X142404761Y-73867380D01*
X142309523Y-74486428D02*
X142023809Y-74867380D01*
X142023809Y-74200714D02*
X142404761Y-74581666D01*
X141642857Y-74819761D02*
X141547619Y-74867380D01*
X141357142Y-74867380D01*
X141261904Y-74819761D01*
X141214285Y-74724523D01*
X141214285Y-74676904D01*
X141261904Y-74581666D01*
X141357142Y-74534047D01*
X141500000Y-74534047D01*
X141595238Y-74486428D01*
X141642857Y-74391190D01*
X141642857Y-74343571D01*
X141595238Y-74248333D01*
X141500000Y-74200714D01*
X141357142Y-74200714D01*
X141261904Y-74248333D01*
X140261904Y-74867380D02*
X140833333Y-74867380D01*
X140547619Y-74867380D02*
X140547619Y-73867380D01*
X140642857Y-74010238D01*
X140738095Y-74105476D01*
X140833333Y-74153095D01*
X139833333Y-74772142D02*
X139785714Y-74819761D01*
X139833333Y-74867380D01*
X139880952Y-74819761D01*
X139833333Y-74772142D01*
X139833333Y-74867380D01*
X139833333Y-74248333D02*
X139785714Y-74295952D01*
X139833333Y-74343571D01*
X139880952Y-74295952D01*
X139833333Y-74248333D01*
X139833333Y-74343571D01*
X138595238Y-74200714D02*
X138595238Y-75057857D01*
X138642857Y-75153095D01*
X138738095Y-75200714D01*
X138785714Y-75200714D01*
X138595238Y-73867380D02*
X138642857Y-73915000D01*
X138595238Y-73962619D01*
X138547619Y-73915000D01*
X138595238Y-73867380D01*
X138595238Y-73962619D01*
X138119047Y-74200714D02*
X138119047Y-75200714D01*
X138119047Y-74248333D02*
X138023809Y-74200714D01*
X137833333Y-74200714D01*
X137738095Y-74248333D01*
X137690476Y-74295952D01*
X137642857Y-74391190D01*
X137642857Y-74676904D01*
X137690476Y-74772142D01*
X137738095Y-74819761D01*
X137833333Y-74867380D01*
X138023809Y-74867380D01*
X138119047Y-74819761D01*
X137309523Y-73867380D02*
X136642857Y-73867380D01*
X137071428Y-74867380D01*
X144071428Y-75810714D02*
X143690476Y-75810714D01*
X143928571Y-75477380D02*
X143928571Y-76334523D01*
X143880952Y-76429761D01*
X143785714Y-76477380D01*
X143690476Y-76477380D01*
X143357142Y-76477380D02*
X143357142Y-75810714D01*
X143357142Y-76001190D02*
X143309523Y-75905952D01*
X143261904Y-75858333D01*
X143166666Y-75810714D01*
X143071428Y-75810714D01*
X142309523Y-76477380D02*
X142309523Y-75953571D01*
X142357142Y-75858333D01*
X142452380Y-75810714D01*
X142642857Y-75810714D01*
X142738095Y-75858333D01*
X142309523Y-76429761D02*
X142404761Y-76477380D01*
X142642857Y-76477380D01*
X142738095Y-76429761D01*
X142785714Y-76334523D01*
X142785714Y-76239285D01*
X142738095Y-76144047D01*
X142642857Y-76096428D01*
X142404761Y-76096428D01*
X142309523Y-76048809D01*
X141833333Y-75810714D02*
X141833333Y-76477380D01*
X141833333Y-75905952D02*
X141785714Y-75858333D01*
X141690476Y-75810714D01*
X141547619Y-75810714D01*
X141452380Y-75858333D01*
X141404761Y-75953571D01*
X141404761Y-76477380D01*
X140976190Y-76429761D02*
X140880952Y-76477380D01*
X140690476Y-76477380D01*
X140595238Y-76429761D01*
X140547619Y-76334523D01*
X140547619Y-76286904D01*
X140595238Y-76191666D01*
X140690476Y-76144047D01*
X140833333Y-76144047D01*
X140928571Y-76096428D01*
X140976190Y-76001190D01*
X140976190Y-75953571D01*
X140928571Y-75858333D01*
X140833333Y-75810714D01*
X140690476Y-75810714D01*
X140595238Y-75858333D01*
X140119047Y-76382142D02*
X140071428Y-76429761D01*
X140119047Y-76477380D01*
X140166666Y-76429761D01*
X140119047Y-76382142D01*
X140119047Y-76477380D01*
X140119047Y-75858333D02*
X140071428Y-75905952D01*
X140119047Y-75953571D01*
X140166666Y-75905952D01*
X140119047Y-75858333D01*
X140119047Y-75953571D01*
X138880952Y-75810714D02*
X138880952Y-76667857D01*
X138928571Y-76763095D01*
X139023809Y-76810714D01*
X139071428Y-76810714D01*
X138880952Y-75477380D02*
X138928571Y-75525000D01*
X138880952Y-75572619D01*
X138833333Y-75525000D01*
X138880952Y-75477380D01*
X138880952Y-75572619D01*
X138404761Y-75810714D02*
X138404761Y-76810714D01*
X138404761Y-75858333D02*
X138309523Y-75810714D01*
X138119047Y-75810714D01*
X138023809Y-75858333D01*
X137976190Y-75905952D01*
X137928571Y-76001190D01*
X137928571Y-76286904D01*
X137976190Y-76382142D01*
X138023809Y-76429761D01*
X138119047Y-76477380D01*
X138309523Y-76477380D01*
X138404761Y-76429761D01*
X136976190Y-76477380D02*
X137547619Y-76477380D01*
X137261904Y-76477380D02*
X137261904Y-75477380D01*
X137357142Y-75620238D01*
X137452380Y-75715476D01*
X137547619Y-75763095D01*
X136595238Y-75572619D02*
X136547619Y-75525000D01*
X136452380Y-75477380D01*
X136214285Y-75477380D01*
X136119047Y-75525000D01*
X136071428Y-75572619D01*
X136023809Y-75667857D01*
X136023809Y-75763095D01*
X136071428Y-75905952D01*
X136642857Y-76477380D01*
X136023809Y-76477380D01*
X152337142Y-67760714D02*
X151956190Y-67760714D01*
X152194285Y-68427380D02*
X152194285Y-67570238D01*
X152146666Y-67475000D01*
X152051428Y-67427380D01*
X151956190Y-67427380D01*
X151670476Y-68379761D02*
X151575238Y-68427380D01*
X151384761Y-68427380D01*
X151289523Y-68379761D01*
X151241904Y-68284523D01*
X151241904Y-68236904D01*
X151289523Y-68141666D01*
X151384761Y-68094047D01*
X151527619Y-68094047D01*
X151622857Y-68046428D01*
X151670476Y-67951190D01*
X151670476Y-67903571D01*
X151622857Y-67808333D01*
X151527619Y-67760714D01*
X151384761Y-67760714D01*
X151289523Y-67808333D01*
X150622857Y-67427380D02*
X150527619Y-67427380D01*
X150432380Y-67475000D01*
X150384761Y-67522619D01*
X150337142Y-67617857D01*
X150289523Y-67808333D01*
X150289523Y-68046428D01*
X150337142Y-68236904D01*
X150384761Y-68332142D01*
X150432380Y-68379761D01*
X150527619Y-68427380D01*
X150622857Y-68427380D01*
X150718095Y-68379761D01*
X150765714Y-68332142D01*
X150813333Y-68236904D01*
X150860952Y-68046428D01*
X150860952Y-67808333D01*
X150813333Y-67617857D01*
X150765714Y-67522619D01*
X150718095Y-67475000D01*
X150622857Y-67427380D01*
X149860952Y-68332142D02*
X149813333Y-68379761D01*
X149860952Y-68427380D01*
X149908571Y-68379761D01*
X149860952Y-68332142D01*
X149860952Y-68427380D01*
X149860952Y-67808333D02*
X149813333Y-67855952D01*
X149860952Y-67903571D01*
X149908571Y-67855952D01*
X149860952Y-67808333D01*
X149860952Y-67903571D01*
X148622857Y-67760714D02*
X148622857Y-68617857D01*
X148670476Y-68713095D01*
X148765714Y-68760714D01*
X148813333Y-68760714D01*
X148622857Y-67427380D02*
X148670476Y-67475000D01*
X148622857Y-67522619D01*
X148575238Y-67475000D01*
X148622857Y-67427380D01*
X148622857Y-67522619D01*
X148146666Y-67760714D02*
X148146666Y-68760714D01*
X148146666Y-67808333D02*
X148051428Y-67760714D01*
X147860952Y-67760714D01*
X147765714Y-67808333D01*
X147718095Y-67855952D01*
X147670476Y-67951190D01*
X147670476Y-68236904D01*
X147718095Y-68332142D01*
X147765714Y-68379761D01*
X147860952Y-68427380D01*
X148051428Y-68427380D01*
X148146666Y-68379761D01*
X146718095Y-68427380D02*
X147289523Y-68427380D01*
X147003809Y-68427380D02*
X147003809Y-67427380D01*
X147099047Y-67570238D01*
X147194285Y-67665476D01*
X147289523Y-67713095D01*
X152337142Y-69370714D02*
X151956190Y-69370714D01*
X152194285Y-70037380D02*
X152194285Y-69180238D01*
X152146666Y-69085000D01*
X152051428Y-69037380D01*
X151956190Y-69037380D01*
X151670476Y-69989761D02*
X151575238Y-70037380D01*
X151384761Y-70037380D01*
X151289523Y-69989761D01*
X151241904Y-69894523D01*
X151241904Y-69846904D01*
X151289523Y-69751666D01*
X151384761Y-69704047D01*
X151527619Y-69704047D01*
X151622857Y-69656428D01*
X151670476Y-69561190D01*
X151670476Y-69513571D01*
X151622857Y-69418333D01*
X151527619Y-69370714D01*
X151384761Y-69370714D01*
X151289523Y-69418333D01*
X150289523Y-70037380D02*
X150860952Y-70037380D01*
X150575238Y-70037380D02*
X150575238Y-69037380D01*
X150670476Y-69180238D01*
X150765714Y-69275476D01*
X150860952Y-69323095D01*
X149860952Y-69942142D02*
X149813333Y-69989761D01*
X149860952Y-70037380D01*
X149908571Y-69989761D01*
X149860952Y-69942142D01*
X149860952Y-70037380D01*
X149860952Y-69418333D02*
X149813333Y-69465952D01*
X149860952Y-69513571D01*
X149908571Y-69465952D01*
X149860952Y-69418333D01*
X149860952Y-69513571D01*
X148622857Y-69370714D02*
X148622857Y-70227857D01*
X148670476Y-70323095D01*
X148765714Y-70370714D01*
X148813333Y-70370714D01*
X148622857Y-69037380D02*
X148670476Y-69085000D01*
X148622857Y-69132619D01*
X148575238Y-69085000D01*
X148622857Y-69037380D01*
X148622857Y-69132619D01*
X148146666Y-69370714D02*
X148146666Y-70370714D01*
X148146666Y-69418333D02*
X148051428Y-69370714D01*
X147860952Y-69370714D01*
X147765714Y-69418333D01*
X147718095Y-69465952D01*
X147670476Y-69561190D01*
X147670476Y-69846904D01*
X147718095Y-69942142D01*
X147765714Y-69989761D01*
X147860952Y-70037380D01*
X148051428Y-70037380D01*
X148146666Y-69989761D01*
X147289523Y-69132619D02*
X147241904Y-69085000D01*
X147146666Y-69037380D01*
X146908571Y-69037380D01*
X146813333Y-69085000D01*
X146765714Y-69132619D01*
X146718095Y-69227857D01*
X146718095Y-69323095D01*
X146765714Y-69465952D01*
X147337142Y-70037380D01*
X146718095Y-70037380D01*
X152337142Y-70980714D02*
X151956190Y-70980714D01*
X152194285Y-71647380D02*
X152194285Y-70790238D01*
X152146666Y-70695000D01*
X152051428Y-70647380D01*
X151956190Y-70647380D01*
X151670476Y-71599761D02*
X151575238Y-71647380D01*
X151384761Y-71647380D01*
X151289523Y-71599761D01*
X151241904Y-71504523D01*
X151241904Y-71456904D01*
X151289523Y-71361666D01*
X151384761Y-71314047D01*
X151527619Y-71314047D01*
X151622857Y-71266428D01*
X151670476Y-71171190D01*
X151670476Y-71123571D01*
X151622857Y-71028333D01*
X151527619Y-70980714D01*
X151384761Y-70980714D01*
X151289523Y-71028333D01*
X150860952Y-70742619D02*
X150813333Y-70695000D01*
X150718095Y-70647380D01*
X150480000Y-70647380D01*
X150384761Y-70695000D01*
X150337142Y-70742619D01*
X150289523Y-70837857D01*
X150289523Y-70933095D01*
X150337142Y-71075952D01*
X150908571Y-71647380D01*
X150289523Y-71647380D01*
X149860952Y-71552142D02*
X149813333Y-71599761D01*
X149860952Y-71647380D01*
X149908571Y-71599761D01*
X149860952Y-71552142D01*
X149860952Y-71647380D01*
X149860952Y-71028333D02*
X149813333Y-71075952D01*
X149860952Y-71123571D01*
X149908571Y-71075952D01*
X149860952Y-71028333D01*
X149860952Y-71123571D01*
X148622857Y-70980714D02*
X148622857Y-71837857D01*
X148670476Y-71933095D01*
X148765714Y-71980714D01*
X148813333Y-71980714D01*
X148622857Y-70647380D02*
X148670476Y-70695000D01*
X148622857Y-70742619D01*
X148575238Y-70695000D01*
X148622857Y-70647380D01*
X148622857Y-70742619D01*
X148146666Y-70980714D02*
X148146666Y-71980714D01*
X148146666Y-71028333D02*
X148051428Y-70980714D01*
X147860952Y-70980714D01*
X147765714Y-71028333D01*
X147718095Y-71075952D01*
X147670476Y-71171190D01*
X147670476Y-71456904D01*
X147718095Y-71552142D01*
X147765714Y-71599761D01*
X147860952Y-71647380D01*
X148051428Y-71647380D01*
X148146666Y-71599761D01*
X147337142Y-70647380D02*
X146718095Y-70647380D01*
X147051428Y-71028333D01*
X146908571Y-71028333D01*
X146813333Y-71075952D01*
X146765714Y-71123571D01*
X146718095Y-71218809D01*
X146718095Y-71456904D01*
X146765714Y-71552142D01*
X146813333Y-71599761D01*
X146908571Y-71647380D01*
X147194285Y-71647380D01*
X147289523Y-71599761D01*
X147337142Y-71552142D01*
X152337142Y-72590714D02*
X151956190Y-72590714D01*
X152194285Y-73257380D02*
X152194285Y-72400238D01*
X152146666Y-72305000D01*
X152051428Y-72257380D01*
X151956190Y-72257380D01*
X151670476Y-73209761D02*
X151575238Y-73257380D01*
X151384761Y-73257380D01*
X151289523Y-73209761D01*
X151241904Y-73114523D01*
X151241904Y-73066904D01*
X151289523Y-72971666D01*
X151384761Y-72924047D01*
X151527619Y-72924047D01*
X151622857Y-72876428D01*
X151670476Y-72781190D01*
X151670476Y-72733571D01*
X151622857Y-72638333D01*
X151527619Y-72590714D01*
X151384761Y-72590714D01*
X151289523Y-72638333D01*
X150908571Y-72257380D02*
X150289523Y-72257380D01*
X150622857Y-72638333D01*
X150480000Y-72638333D01*
X150384761Y-72685952D01*
X150337142Y-72733571D01*
X150289523Y-72828809D01*
X150289523Y-73066904D01*
X150337142Y-73162142D01*
X150384761Y-73209761D01*
X150480000Y-73257380D01*
X150765714Y-73257380D01*
X150860952Y-73209761D01*
X150908571Y-73162142D01*
X149860952Y-73162142D02*
X149813333Y-73209761D01*
X149860952Y-73257380D01*
X149908571Y-73209761D01*
X149860952Y-73162142D01*
X149860952Y-73257380D01*
X149860952Y-72638333D02*
X149813333Y-72685952D01*
X149860952Y-72733571D01*
X149908571Y-72685952D01*
X149860952Y-72638333D01*
X149860952Y-72733571D01*
X148622857Y-72590714D02*
X148622857Y-73447857D01*
X148670476Y-73543095D01*
X148765714Y-73590714D01*
X148813333Y-73590714D01*
X148622857Y-72257380D02*
X148670476Y-72305000D01*
X148622857Y-72352619D01*
X148575238Y-72305000D01*
X148622857Y-72257380D01*
X148622857Y-72352619D01*
X148146666Y-72590714D02*
X148146666Y-73590714D01*
X148146666Y-72638333D02*
X148051428Y-72590714D01*
X147860952Y-72590714D01*
X147765714Y-72638333D01*
X147718095Y-72685952D01*
X147670476Y-72781190D01*
X147670476Y-73066904D01*
X147718095Y-73162142D01*
X147765714Y-73209761D01*
X147860952Y-73257380D01*
X148051428Y-73257380D01*
X148146666Y-73209761D01*
X146813333Y-72590714D02*
X146813333Y-73257380D01*
X147051428Y-72209761D02*
X147289523Y-72924047D01*
X146670476Y-72924047D01*
X152146666Y-74867380D02*
X152146666Y-73867380D01*
X152146666Y-74248333D02*
X152051428Y-74200714D01*
X151860952Y-74200714D01*
X151765714Y-74248333D01*
X151718095Y-74295952D01*
X151670476Y-74391190D01*
X151670476Y-74676904D01*
X151718095Y-74772142D01*
X151765714Y-74819761D01*
X151860952Y-74867380D01*
X152051428Y-74867380D01*
X152146666Y-74819761D01*
X151099047Y-74867380D02*
X151194285Y-74819761D01*
X151241904Y-74724523D01*
X151241904Y-73867380D01*
X150765714Y-74819761D02*
X150670476Y-74867380D01*
X150480000Y-74867380D01*
X150384761Y-74819761D01*
X150337142Y-74724523D01*
X150337142Y-74676904D01*
X150384761Y-74581666D01*
X150480000Y-74534047D01*
X150622857Y-74534047D01*
X150718095Y-74486428D01*
X150765714Y-74391190D01*
X150765714Y-74343571D01*
X150718095Y-74248333D01*
X150622857Y-74200714D01*
X150480000Y-74200714D01*
X150384761Y-74248333D01*
X149908571Y-74772142D02*
X149860952Y-74819761D01*
X149908571Y-74867380D01*
X149956190Y-74819761D01*
X149908571Y-74772142D01*
X149908571Y-74867380D01*
X149908571Y-74248333D02*
X149860952Y-74295952D01*
X149908571Y-74343571D01*
X149956190Y-74295952D01*
X149908571Y-74248333D01*
X149908571Y-74343571D01*
X148670476Y-74200714D02*
X148670476Y-75057857D01*
X148718095Y-75153095D01*
X148813333Y-75200714D01*
X148860952Y-75200714D01*
X148670476Y-73867380D02*
X148718095Y-73915000D01*
X148670476Y-73962619D01*
X148622857Y-73915000D01*
X148670476Y-73867380D01*
X148670476Y-73962619D01*
X148194285Y-74200714D02*
X148194285Y-75200714D01*
X148194285Y-74248333D02*
X148099047Y-74200714D01*
X147908571Y-74200714D01*
X147813333Y-74248333D01*
X147765714Y-74295952D01*
X147718095Y-74391190D01*
X147718095Y-74676904D01*
X147765714Y-74772142D01*
X147813333Y-74819761D01*
X147908571Y-74867380D01*
X148099047Y-74867380D01*
X148194285Y-74819761D01*
X146813333Y-73867380D02*
X147289523Y-73867380D01*
X147337142Y-74343571D01*
X147289523Y-74295952D01*
X147194285Y-74248333D01*
X146956190Y-74248333D01*
X146860952Y-74295952D01*
X146813333Y-74343571D01*
X146765714Y-74438809D01*
X146765714Y-74676904D01*
X146813333Y-74772142D01*
X146860952Y-74819761D01*
X146956190Y-74867380D01*
X147194285Y-74867380D01*
X147289523Y-74819761D01*
X147337142Y-74772142D01*
X152384761Y-76477380D02*
X152384761Y-75953571D01*
X152432380Y-75858333D01*
X152527619Y-75810714D01*
X152718095Y-75810714D01*
X152813333Y-75858333D01*
X152384761Y-76429761D02*
X152480000Y-76477380D01*
X152718095Y-76477380D01*
X152813333Y-76429761D01*
X152860952Y-76334523D01*
X152860952Y-76239285D01*
X152813333Y-76144047D01*
X152718095Y-76096428D01*
X152480000Y-76096428D01*
X152384761Y-76048809D01*
X151908571Y-75810714D02*
X151908571Y-76477380D01*
X151908571Y-75905952D02*
X151860952Y-75858333D01*
X151765714Y-75810714D01*
X151622857Y-75810714D01*
X151527619Y-75858333D01*
X151480000Y-75953571D01*
X151480000Y-76477380D01*
X151051428Y-76429761D02*
X150956190Y-76477380D01*
X150765714Y-76477380D01*
X150670476Y-76429761D01*
X150622857Y-76334523D01*
X150622857Y-76286904D01*
X150670476Y-76191666D01*
X150765714Y-76144047D01*
X150908571Y-76144047D01*
X151003809Y-76096428D01*
X151051428Y-76001190D01*
X151051428Y-75953571D01*
X151003809Y-75858333D01*
X150908571Y-75810714D01*
X150765714Y-75810714D01*
X150670476Y-75858333D01*
X150194285Y-76382142D02*
X150146666Y-76429761D01*
X150194285Y-76477380D01*
X150241904Y-76429761D01*
X150194285Y-76382142D01*
X150194285Y-76477380D01*
X150194285Y-75858333D02*
X150146666Y-75905952D01*
X150194285Y-75953571D01*
X150241904Y-75905952D01*
X150194285Y-75858333D01*
X150194285Y-75953571D01*
X148956190Y-75810714D02*
X148956190Y-76667857D01*
X149003809Y-76763095D01*
X149099047Y-76810714D01*
X149146666Y-76810714D01*
X148956190Y-75477380D02*
X149003809Y-75525000D01*
X148956190Y-75572619D01*
X148908571Y-75525000D01*
X148956190Y-75477380D01*
X148956190Y-75572619D01*
X148480000Y-75810714D02*
X148480000Y-76810714D01*
X148480000Y-75858333D02*
X148384761Y-75810714D01*
X148194285Y-75810714D01*
X148099047Y-75858333D01*
X148051428Y-75905952D01*
X148003809Y-76001190D01*
X148003809Y-76286904D01*
X148051428Y-76382142D01*
X148099047Y-76429761D01*
X148194285Y-76477380D01*
X148384761Y-76477380D01*
X148480000Y-76429761D01*
X147051428Y-76477380D02*
X147622857Y-76477380D01*
X147337142Y-76477380D02*
X147337142Y-75477380D01*
X147432380Y-75620238D01*
X147527619Y-75715476D01*
X147622857Y-75763095D01*
X146432380Y-75477380D02*
X146337142Y-75477380D01*
X146241904Y-75525000D01*
X146194285Y-75572619D01*
X146146666Y-75667857D01*
X146099047Y-75858333D01*
X146099047Y-76096428D01*
X146146666Y-76286904D01*
X146194285Y-76382142D01*
X146241904Y-76429761D01*
X146337142Y-76477380D01*
X146432380Y-76477380D01*
X146527619Y-76429761D01*
X146575238Y-76382142D01*
X146622857Y-76286904D01*
X146670476Y-76096428D01*
X146670476Y-75858333D01*
X146622857Y-75667857D01*
X146575238Y-75572619D01*
X146527619Y-75525000D01*
X146432380Y-75477380D01*
M02*
