G04 #@! TF.GenerationSoftware,KiCad,Pcbnew,(6.0.2)*
G04 #@! TF.CreationDate,2022-07-04T11:46:19+05:00*
G04 #@! TF.ProjectId,18bit-DIT,31386269-742d-4444-9954-2e6b69636164,rev?*
G04 #@! TF.SameCoordinates,Original*
G04 #@! TF.FileFunction,Copper,L1,Top*
G04 #@! TF.FilePolarity,Positive*
%FSLAX46Y46*%
G04 Gerber Fmt 4.6, Leading zero omitted, Abs format (unit mm)*
G04 Created by KiCad (PCBNEW (6.0.2)) date 2022-07-04 11:46:19*
%MOMM*%
%LPD*%
G01*
G04 APERTURE LIST*
G04 Aperture macros list*
%AMRoundRect*
0 Rectangle with rounded corners*
0 $1 Rounding radius*
0 $2 $3 $4 $5 $6 $7 $8 $9 X,Y pos of 4 corners*
0 Add a 4 corners polygon primitive as box body*
4,1,4,$2,$3,$4,$5,$6,$7,$8,$9,$2,$3,0*
0 Add four circle primitives for the rounded corners*
1,1,$1+$1,$2,$3*
1,1,$1+$1,$4,$5*
1,1,$1+$1,$6,$7*
1,1,$1+$1,$8,$9*
0 Add four rect primitives between the rounded corners*
20,1,$1+$1,$2,$3,$4,$5,0*
20,1,$1+$1,$4,$5,$6,$7,0*
20,1,$1+$1,$6,$7,$8,$9,0*
20,1,$1+$1,$8,$9,$2,$3,0*%
%AMFreePoly0*
4,1,22,0.500000,-0.750000,0.000000,-0.750000,0.000000,-0.745033,-0.079941,-0.743568,-0.215256,-0.701293,-0.333266,-0.622738,-0.424486,-0.514219,-0.481581,-0.384460,-0.499164,-0.250000,-0.500000,-0.250000,-0.500000,0.250000,-0.499164,0.250000,-0.499963,0.256109,-0.478152,0.396186,-0.417904,0.524511,-0.324060,0.630769,-0.204165,0.706417,-0.067858,0.745374,0.000000,0.744959,0.000000,0.750000,
0.500000,0.750000,0.500000,-0.750000,0.500000,-0.750000,$1*%
%AMFreePoly1*
4,1,20,0.000000,0.744959,0.073905,0.744508,0.209726,0.703889,0.328688,0.626782,0.421226,0.519385,0.479903,0.390333,0.500000,0.250000,0.500000,-0.250000,0.499851,-0.262216,0.476331,-0.402017,0.414519,-0.529596,0.319384,-0.634700,0.198574,-0.708877,0.061801,-0.746166,0.000000,-0.745033,0.000000,-0.750000,-0.500000,-0.750000,-0.500000,0.750000,0.000000,0.750000,0.000000,0.744959,
0.000000,0.744959,$1*%
%AMFreePoly2*
4,1,22,0.550000,-0.750000,0.000000,-0.750000,0.000000,-0.745033,-0.079941,-0.743568,-0.215256,-0.701293,-0.333266,-0.622738,-0.424486,-0.514219,-0.481581,-0.384460,-0.499164,-0.250000,-0.500000,-0.250000,-0.500000,0.250000,-0.499164,0.250000,-0.499963,0.256109,-0.478152,0.396186,-0.417904,0.524511,-0.324060,0.630769,-0.204165,0.706417,-0.067858,0.745374,0.000000,0.744959,0.000000,0.750000,
0.550000,0.750000,0.550000,-0.750000,0.550000,-0.750000,$1*%
%AMFreePoly3*
4,1,20,0.000000,0.744959,0.073905,0.744508,0.209726,0.703889,0.328688,0.626782,0.421226,0.519385,0.479903,0.390333,0.500000,0.250000,0.500000,-0.250000,0.499851,-0.262216,0.476331,-0.402017,0.414519,-0.529596,0.319384,-0.634700,0.198574,-0.708877,0.061801,-0.746166,0.000000,-0.745033,0.000000,-0.750000,-0.550000,-0.750000,-0.550000,0.750000,0.000000,0.750000,0.000000,0.744959,
0.000000,0.744959,$1*%
G04 Aperture macros list end*
G04 #@! TA.AperFunction,SMDPad,CuDef*
%ADD10RoundRect,0.218750X0.218750X0.256250X-0.218750X0.256250X-0.218750X-0.256250X0.218750X-0.256250X0*%
G04 #@! TD*
G04 #@! TA.AperFunction,ComponentPad*
%ADD11R,1.700000X1.700000*%
G04 #@! TD*
G04 #@! TA.AperFunction,ComponentPad*
%ADD12O,1.700000X1.700000*%
G04 #@! TD*
G04 #@! TA.AperFunction,ComponentPad*
%ADD13R,3.000000X3.000000*%
G04 #@! TD*
G04 #@! TA.AperFunction,ComponentPad*
%ADD14C,3.000000*%
G04 #@! TD*
G04 #@! TA.AperFunction,SMDPad,CuDef*
%ADD15RoundRect,0.147500X-0.172500X0.147500X-0.172500X-0.147500X0.172500X-0.147500X0.172500X0.147500X0*%
G04 #@! TD*
G04 #@! TA.AperFunction,SMDPad,CuDef*
%ADD16RoundRect,0.100000X-0.637500X-0.100000X0.637500X-0.100000X0.637500X0.100000X-0.637500X0.100000X0*%
G04 #@! TD*
G04 #@! TA.AperFunction,SMDPad,CuDef*
%ADD17RoundRect,0.218750X0.256250X-0.218750X0.256250X0.218750X-0.256250X0.218750X-0.256250X-0.218750X0*%
G04 #@! TD*
G04 #@! TA.AperFunction,SMDPad,CuDef*
%ADD18FreePoly0,90.000000*%
G04 #@! TD*
G04 #@! TA.AperFunction,SMDPad,CuDef*
%ADD19FreePoly1,90.000000*%
G04 #@! TD*
G04 #@! TA.AperFunction,ComponentPad*
%ADD20C,1.200000*%
G04 #@! TD*
G04 #@! TA.AperFunction,SMDPad,CuDef*
%ADD21FreePoly2,0.000000*%
G04 #@! TD*
G04 #@! TA.AperFunction,SMDPad,CuDef*
%ADD22R,1.000000X1.500000*%
G04 #@! TD*
G04 #@! TA.AperFunction,SMDPad,CuDef*
%ADD23FreePoly3,0.000000*%
G04 #@! TD*
G04 #@! TA.AperFunction,SMDPad,CuDef*
%ADD24RoundRect,0.218750X-0.218750X-0.256250X0.218750X-0.256250X0.218750X0.256250X-0.218750X0.256250X0*%
G04 #@! TD*
G04 #@! TA.AperFunction,ViaPad*
%ADD25C,0.800000*%
G04 #@! TD*
G04 #@! TA.AperFunction,Conductor*
%ADD26C,0.250000*%
G04 #@! TD*
G04 APERTURE END LIST*
D10*
X150877500Y-55490000D03*
X149302500Y-55490000D03*
D11*
X126746000Y-67818000D03*
D12*
X126746000Y-65278000D03*
X126746000Y-62738000D03*
X126746000Y-60198000D03*
X126746000Y-57658000D03*
X126746000Y-55118000D03*
D13*
X156120000Y-73080000D03*
D14*
X161200000Y-73080000D03*
D15*
X146500000Y-55215000D03*
X146500000Y-56185000D03*
X147640000Y-55215000D03*
X147640000Y-56185000D03*
D16*
X137457500Y-55015000D03*
X137457500Y-55665000D03*
X137457500Y-56315000D03*
X137457500Y-56965000D03*
X137457500Y-57615000D03*
X137457500Y-58265000D03*
X137457500Y-58915000D03*
X137457500Y-59565000D03*
X137457500Y-60215000D03*
X137457500Y-60865000D03*
X137457500Y-61515000D03*
X137457500Y-62165000D03*
X144882500Y-62165000D03*
X144882500Y-61515000D03*
X144882500Y-60865000D03*
X144882500Y-60215000D03*
X144882500Y-59565000D03*
X144882500Y-58915000D03*
X144882500Y-58265000D03*
X144882500Y-57615000D03*
X144882500Y-56965000D03*
X144882500Y-56315000D03*
X144882500Y-55665000D03*
X144882500Y-55015000D03*
D17*
X134150000Y-65497500D03*
X134150000Y-63922500D03*
D18*
X125950000Y-75520000D03*
D19*
X125950000Y-74220000D03*
D18*
X128650000Y-75520000D03*
D19*
X128650000Y-74220000D03*
D18*
X131350000Y-75520000D03*
D19*
X131350000Y-74220000D03*
D18*
X134050000Y-75520000D03*
D19*
X134050000Y-74220000D03*
D18*
X147000000Y-75520000D03*
D19*
X147000000Y-74220000D03*
D18*
X143000000Y-75520000D03*
D19*
X143000000Y-74220000D03*
D18*
X151000000Y-75520000D03*
D19*
X151000000Y-74220000D03*
D18*
X140000000Y-75520000D03*
D19*
X140000000Y-74220000D03*
D18*
X137000000Y-75520000D03*
D19*
X137000000Y-74220000D03*
D18*
X147000000Y-68650000D03*
D19*
X147000000Y-67350000D03*
D18*
X151000000Y-68650000D03*
D19*
X151000000Y-67350000D03*
D20*
X156060000Y-55650000D03*
X161140000Y-55650000D03*
X156060000Y-65810000D03*
X161140000Y-65810000D03*
D21*
X139400000Y-65420000D03*
D22*
X140700000Y-65420000D03*
D23*
X142000000Y-65420000D03*
D24*
X147142500Y-58480000D03*
X148717500Y-58480000D03*
D11*
X130410000Y-55110000D03*
D12*
X130410000Y-57650000D03*
D25*
X134150000Y-67020000D03*
X137852500Y-65497500D03*
X140160000Y-61770000D03*
X151040000Y-60840000D03*
X156910000Y-63230000D03*
X134560000Y-69410000D03*
X139120000Y-69410000D03*
X134615000Y-62505000D03*
X143310000Y-63600000D03*
X144930000Y-71190000D03*
X143000000Y-72470000D03*
X141888517Y-55589990D03*
X147260000Y-60530000D03*
X151000000Y-71780000D03*
X141050000Y-56320000D03*
X140000000Y-72320000D03*
X137000000Y-72400000D03*
X139510000Y-57220000D03*
D26*
X137852500Y-65497500D02*
X139322500Y-65497500D01*
X126746000Y-69324000D02*
X124580000Y-71490000D01*
X142365000Y-59565000D02*
X144882500Y-59565000D01*
X144882500Y-59565000D02*
X148395000Y-59565000D01*
X139322500Y-65497500D02*
X139400000Y-65420000D01*
X148717500Y-59242500D02*
X148717500Y-58480000D01*
X125950000Y-75520000D02*
X151000000Y-75520000D01*
X124740000Y-75520000D02*
X125950000Y-75520000D01*
X124580000Y-75360000D02*
X124740000Y-75520000D01*
X148395000Y-59565000D02*
X148717500Y-59242500D01*
X142365000Y-59565000D02*
X140160000Y-61770000D01*
X124580000Y-71490000D02*
X124580000Y-75360000D01*
X134150000Y-67020000D02*
X134150000Y-65497500D01*
X134150000Y-65497500D02*
X137852500Y-65497500D01*
X126746000Y-67818000D02*
X126746000Y-69324000D01*
X148490000Y-55490000D02*
X149302500Y-55490000D01*
X148215000Y-55215000D02*
X148490000Y-55490000D01*
X147640000Y-55215000D02*
X148215000Y-55215000D01*
X146500000Y-55215000D02*
X147640000Y-55215000D01*
X150877500Y-55490000D02*
X154550000Y-55490000D01*
X154710000Y-55650000D02*
X156060000Y-55650000D01*
X154550000Y-55490000D02*
X154710000Y-55650000D01*
X134925000Y-55015000D02*
X130405000Y-55015000D01*
X134615000Y-62505000D02*
X134260000Y-62860000D01*
X130405000Y-55015000D02*
X130302000Y-55118000D01*
X146310000Y-58480000D02*
X147142500Y-58480000D01*
X147142500Y-57627500D02*
X147142500Y-58480000D01*
X145980000Y-68650000D02*
X142750000Y-65420000D01*
X147640000Y-57130000D02*
X147142500Y-57627500D01*
X144882500Y-58915000D02*
X145875000Y-58915000D01*
X134150000Y-63922500D02*
X134150000Y-62970000D01*
X126746000Y-55118000D02*
X127948081Y-55118000D01*
X137457500Y-62165000D02*
X134955000Y-62165000D01*
X147000000Y-68650000D02*
X145980000Y-68650000D01*
X147640000Y-56185000D02*
X147640000Y-57130000D01*
X147000000Y-68650000D02*
X151000000Y-68650000D01*
X134150000Y-62970000D02*
X134615000Y-62505000D01*
X142750000Y-65420000D02*
X142000000Y-65420000D01*
X127948081Y-55118000D02*
X130302000Y-55118000D01*
X134955000Y-62165000D02*
X134615000Y-62505000D01*
X145875000Y-58915000D02*
X146310000Y-58480000D01*
X137457500Y-55015000D02*
X134925000Y-55015000D01*
X137457500Y-56965000D02*
X133035000Y-56965000D01*
X131000000Y-59000000D02*
X133035000Y-56965000D01*
X126746000Y-57658000D02*
X128088000Y-59000000D01*
X128088000Y-59000000D02*
X131000000Y-59000000D01*
X137457500Y-57615000D02*
X133112179Y-57615000D01*
X130529179Y-60198000D02*
X133112179Y-57615000D01*
X126746000Y-60198000D02*
X130529179Y-60198000D01*
X137457500Y-58265000D02*
X133098590Y-58265000D01*
X128625590Y-62738000D02*
X133098590Y-58265000D01*
X126746000Y-62738000D02*
X128625590Y-62738000D01*
X137457500Y-58915000D02*
X133365000Y-58915000D01*
X126746000Y-65278000D02*
X127002000Y-65278000D01*
X127002000Y-65278000D02*
X133365000Y-58915000D01*
X130302000Y-57658000D02*
X131645000Y-56315000D01*
X137457500Y-56315000D02*
X131645000Y-56315000D01*
X161140000Y-65810000D02*
X161140000Y-73020000D01*
X161140000Y-73020000D02*
X161200000Y-73080000D01*
X156060000Y-65810000D02*
X156060000Y-73020000D01*
X156060000Y-73020000D02*
X156120000Y-73080000D01*
X146500000Y-57260000D02*
X146500000Y-56185000D01*
X146145000Y-57615000D02*
X146500000Y-57260000D01*
X144882500Y-57615000D02*
X146145000Y-57615000D01*
X128750000Y-64530000D02*
X128750000Y-70600000D01*
X128750000Y-70600000D02*
X125950000Y-73400000D01*
X133715000Y-59565000D02*
X128750000Y-64530000D01*
X125950000Y-73400000D02*
X125950000Y-74220000D01*
X137457500Y-59565000D02*
X133715000Y-59565000D01*
X128650000Y-72360000D02*
X128650000Y-74220000D01*
X129200000Y-71810000D02*
X128650000Y-72360000D01*
X133985000Y-60215000D02*
X129200000Y-65000000D01*
X137457500Y-60215000D02*
X133985000Y-60215000D01*
X129200000Y-65000000D02*
X129200000Y-71810000D01*
X131350000Y-73000000D02*
X131350000Y-74220000D01*
X129820000Y-65400000D02*
X129820000Y-71470000D01*
X137457500Y-60865000D02*
X134355000Y-60865000D01*
X134355000Y-60865000D02*
X129820000Y-65400000D01*
X129820000Y-71470000D02*
X131350000Y-73000000D01*
X134391998Y-61515000D02*
X130310000Y-65596998D01*
X130310000Y-70480000D02*
X134050000Y-74220000D01*
X137457500Y-61515000D02*
X134391998Y-61515000D01*
X130310000Y-65596998D02*
X130310000Y-70480000D01*
X143310000Y-61810000D02*
X143310000Y-63600000D01*
X147000000Y-73260000D02*
X144930000Y-71190000D01*
X147000000Y-74220000D02*
X147000000Y-73260000D01*
X143605000Y-61515000D02*
X143310000Y-61810000D01*
X144882500Y-61515000D02*
X143605000Y-61515000D01*
X141963527Y-55665000D02*
X141888517Y-55589990D01*
X144882500Y-55665000D02*
X141963527Y-55665000D01*
X141888517Y-55648517D02*
X141888517Y-55589990D01*
X143000000Y-74220000D02*
X143000000Y-72470000D01*
X141905000Y-55665000D02*
X141888517Y-55648517D01*
X151000000Y-74220000D02*
X151000000Y-71780000D01*
X144882500Y-60215000D02*
X146945000Y-60215000D01*
X146945000Y-60215000D02*
X147260000Y-60530000D01*
X144882500Y-56315000D02*
X141055000Y-56315000D01*
X140000000Y-74220000D02*
X140000000Y-72320000D01*
X141055000Y-56315000D02*
X141050000Y-56320000D01*
X146165000Y-62165000D02*
X147000000Y-63000000D01*
X144882500Y-62165000D02*
X146165000Y-62165000D01*
X147000000Y-63000000D02*
X147000000Y-67350000D01*
X151000000Y-65400000D02*
X151000000Y-67350000D01*
X146465000Y-60865000D02*
X151000000Y-65400000D01*
X144882500Y-60865000D02*
X146465000Y-60865000D01*
X138760000Y-62550000D02*
X138760000Y-55810000D01*
X137457500Y-55665000D02*
X138615000Y-55665000D01*
X138760000Y-55810000D02*
X138615000Y-55665000D01*
X140700000Y-64490000D02*
X138760000Y-62550000D01*
X140700000Y-65420000D02*
X140700000Y-64490000D01*
X137000000Y-74220000D02*
X137000000Y-72400000D01*
X141390683Y-56965000D02*
X144882500Y-56965000D01*
X141390683Y-56965000D02*
X141135683Y-57220000D01*
X141135683Y-57220000D02*
X139510000Y-57220000D01*
G04 #@! TA.AperFunction,Conductor*
G36*
X163884121Y-53128002D02*
G01*
X163930614Y-53181658D01*
X163942000Y-53234000D01*
X163942000Y-77366000D01*
X163921998Y-77434121D01*
X163868342Y-77480614D01*
X163816000Y-77492000D01*
X124614499Y-77492000D01*
X124546378Y-77471998D01*
X124499885Y-77418342D01*
X124488499Y-77365901D01*
X124489361Y-76272035D01*
X124509417Y-76203930D01*
X124563109Y-76157479D01*
X124633391Y-76147431D01*
X124646692Y-76150092D01*
X124652284Y-76151528D01*
X124652294Y-76151529D01*
X124659970Y-76153500D01*
X124680224Y-76153500D01*
X124699934Y-76155051D01*
X124719943Y-76158220D01*
X124727835Y-76157474D01*
X124763961Y-76154059D01*
X124775819Y-76153500D01*
X124849832Y-76153500D01*
X124917953Y-76173502D01*
X124945785Y-76197836D01*
X124972337Y-76229034D01*
X124975246Y-76232452D01*
X125082597Y-76327260D01*
X125086334Y-76329715D01*
X125086337Y-76329717D01*
X125189054Y-76397189D01*
X125204334Y-76407226D01*
X125208391Y-76409131D01*
X125208395Y-76409133D01*
X125233411Y-76420878D01*
X125333979Y-76468095D01*
X125338262Y-76469404D01*
X125338266Y-76469406D01*
X125362304Y-76476755D01*
X125473277Y-76510683D01*
X125477700Y-76511372D01*
X125477706Y-76511373D01*
X125537568Y-76520693D01*
X125614795Y-76532717D01*
X125619262Y-76532772D01*
X125619267Y-76532772D01*
X125692831Y-76533671D01*
X125760438Y-76534497D01*
X125764723Y-76533937D01*
X125771760Y-76533729D01*
X126161047Y-76533729D01*
X126161047Y-76533727D01*
X126164014Y-76533318D01*
X126260438Y-76534496D01*
X126264880Y-76533915D01*
X126264883Y-76533915D01*
X126398002Y-76516508D01*
X126398004Y-76516508D01*
X126402452Y-76515926D01*
X126542748Y-76476755D01*
X126673841Y-76419072D01*
X126748955Y-76372317D01*
X126793694Y-76344470D01*
X126793698Y-76344467D01*
X126797496Y-76342103D01*
X126907131Y-76249946D01*
X126955797Y-76195517D01*
X127016112Y-76158067D01*
X127049726Y-76153500D01*
X127549832Y-76153500D01*
X127617953Y-76173502D01*
X127645785Y-76197836D01*
X127672337Y-76229034D01*
X127675246Y-76232452D01*
X127782597Y-76327260D01*
X127786334Y-76329715D01*
X127786337Y-76329717D01*
X127889054Y-76397189D01*
X127904334Y-76407226D01*
X127908391Y-76409131D01*
X127908395Y-76409133D01*
X127933411Y-76420878D01*
X128033979Y-76468095D01*
X128038262Y-76469404D01*
X128038266Y-76469406D01*
X128062304Y-76476755D01*
X128173277Y-76510683D01*
X128177700Y-76511372D01*
X128177706Y-76511373D01*
X128237568Y-76520693D01*
X128314795Y-76532717D01*
X128319262Y-76532772D01*
X128319267Y-76532772D01*
X128392831Y-76533671D01*
X128460438Y-76534497D01*
X128464723Y-76533937D01*
X128471760Y-76533729D01*
X128861047Y-76533729D01*
X128861047Y-76533727D01*
X128864014Y-76533318D01*
X128960438Y-76534496D01*
X128964880Y-76533915D01*
X128964883Y-76533915D01*
X129098002Y-76516508D01*
X129098004Y-76516508D01*
X129102452Y-76515926D01*
X129242748Y-76476755D01*
X129373841Y-76419072D01*
X129448955Y-76372317D01*
X129493694Y-76344470D01*
X129493698Y-76344467D01*
X129497496Y-76342103D01*
X129607131Y-76249946D01*
X129655797Y-76195517D01*
X129716112Y-76158067D01*
X129749726Y-76153500D01*
X130249832Y-76153500D01*
X130317953Y-76173502D01*
X130345785Y-76197836D01*
X130372337Y-76229034D01*
X130375246Y-76232452D01*
X130482597Y-76327260D01*
X130486334Y-76329715D01*
X130486337Y-76329717D01*
X130589054Y-76397189D01*
X130604334Y-76407226D01*
X130608391Y-76409131D01*
X130608395Y-76409133D01*
X130633411Y-76420878D01*
X130733979Y-76468095D01*
X130738262Y-76469404D01*
X130738266Y-76469406D01*
X130762304Y-76476755D01*
X130873277Y-76510683D01*
X130877700Y-76511372D01*
X130877706Y-76511373D01*
X130937568Y-76520693D01*
X131014795Y-76532717D01*
X131019262Y-76532772D01*
X131019267Y-76532772D01*
X131092831Y-76533671D01*
X131160438Y-76534497D01*
X131164723Y-76533937D01*
X131171760Y-76533729D01*
X131561047Y-76533729D01*
X131561047Y-76533727D01*
X131564014Y-76533318D01*
X131660438Y-76534496D01*
X131664880Y-76533915D01*
X131664883Y-76533915D01*
X131798002Y-76516508D01*
X131798004Y-76516508D01*
X131802452Y-76515926D01*
X131942748Y-76476755D01*
X132073841Y-76419072D01*
X132148955Y-76372317D01*
X132193694Y-76344470D01*
X132193698Y-76344467D01*
X132197496Y-76342103D01*
X132307131Y-76249946D01*
X132355797Y-76195517D01*
X132416112Y-76158067D01*
X132449726Y-76153500D01*
X132949832Y-76153500D01*
X133017953Y-76173502D01*
X133045785Y-76197836D01*
X133072337Y-76229034D01*
X133075246Y-76232452D01*
X133182597Y-76327260D01*
X133186334Y-76329715D01*
X133186337Y-76329717D01*
X133289054Y-76397189D01*
X133304334Y-76407226D01*
X133308391Y-76409131D01*
X133308395Y-76409133D01*
X133333411Y-76420878D01*
X133433979Y-76468095D01*
X133438262Y-76469404D01*
X133438266Y-76469406D01*
X133462304Y-76476755D01*
X133573277Y-76510683D01*
X133577700Y-76511372D01*
X133577706Y-76511373D01*
X133637568Y-76520693D01*
X133714795Y-76532717D01*
X133719262Y-76532772D01*
X133719267Y-76532772D01*
X133792831Y-76533671D01*
X133860438Y-76534497D01*
X133864723Y-76533937D01*
X133871760Y-76533729D01*
X134261047Y-76533729D01*
X134261047Y-76533727D01*
X134264014Y-76533318D01*
X134360438Y-76534496D01*
X134364880Y-76533915D01*
X134364883Y-76533915D01*
X134498002Y-76516508D01*
X134498004Y-76516508D01*
X134502452Y-76515926D01*
X134642748Y-76476755D01*
X134773841Y-76419072D01*
X134848955Y-76372317D01*
X134893694Y-76344470D01*
X134893698Y-76344467D01*
X134897496Y-76342103D01*
X135007131Y-76249946D01*
X135055797Y-76195517D01*
X135116112Y-76158067D01*
X135149726Y-76153500D01*
X135899832Y-76153500D01*
X135967953Y-76173502D01*
X135995785Y-76197836D01*
X136022337Y-76229034D01*
X136025246Y-76232452D01*
X136132597Y-76327260D01*
X136136334Y-76329715D01*
X136136337Y-76329717D01*
X136239054Y-76397189D01*
X136254334Y-76407226D01*
X136258391Y-76409131D01*
X136258395Y-76409133D01*
X136283411Y-76420878D01*
X136383979Y-76468095D01*
X136388262Y-76469404D01*
X136388266Y-76469406D01*
X136412304Y-76476755D01*
X136523277Y-76510683D01*
X136527700Y-76511372D01*
X136527706Y-76511373D01*
X136587568Y-76520693D01*
X136664795Y-76532717D01*
X136669262Y-76532772D01*
X136669267Y-76532772D01*
X136742831Y-76533671D01*
X136810438Y-76534497D01*
X136814723Y-76533937D01*
X136821760Y-76533729D01*
X137211047Y-76533729D01*
X137211047Y-76533727D01*
X137214014Y-76533318D01*
X137310438Y-76534496D01*
X137314880Y-76533915D01*
X137314883Y-76533915D01*
X137448002Y-76516508D01*
X137448004Y-76516508D01*
X137452452Y-76515926D01*
X137592748Y-76476755D01*
X137723841Y-76419072D01*
X137798955Y-76372317D01*
X137843694Y-76344470D01*
X137843698Y-76344467D01*
X137847496Y-76342103D01*
X137957131Y-76249946D01*
X138005797Y-76195517D01*
X138066112Y-76158067D01*
X138099726Y-76153500D01*
X138899832Y-76153500D01*
X138967953Y-76173502D01*
X138995785Y-76197836D01*
X139022337Y-76229034D01*
X139025246Y-76232452D01*
X139132597Y-76327260D01*
X139136334Y-76329715D01*
X139136337Y-76329717D01*
X139239054Y-76397189D01*
X139254334Y-76407226D01*
X139258391Y-76409131D01*
X139258395Y-76409133D01*
X139283411Y-76420878D01*
X139383979Y-76468095D01*
X139388262Y-76469404D01*
X139388266Y-76469406D01*
X139412304Y-76476755D01*
X139523277Y-76510683D01*
X139527700Y-76511372D01*
X139527706Y-76511373D01*
X139587568Y-76520693D01*
X139664795Y-76532717D01*
X139669262Y-76532772D01*
X139669267Y-76532772D01*
X139742831Y-76533671D01*
X139810438Y-76534497D01*
X139814723Y-76533937D01*
X139821760Y-76533729D01*
X140211047Y-76533729D01*
X140211047Y-76533727D01*
X140214014Y-76533318D01*
X140310438Y-76534496D01*
X140314880Y-76533915D01*
X140314883Y-76533915D01*
X140448002Y-76516508D01*
X140448004Y-76516508D01*
X140452452Y-76515926D01*
X140592748Y-76476755D01*
X140723841Y-76419072D01*
X140798955Y-76372317D01*
X140843694Y-76344470D01*
X140843698Y-76344467D01*
X140847496Y-76342103D01*
X140957131Y-76249946D01*
X141005797Y-76195517D01*
X141066112Y-76158067D01*
X141099726Y-76153500D01*
X141899832Y-76153500D01*
X141967953Y-76173502D01*
X141995785Y-76197836D01*
X142022337Y-76229034D01*
X142025246Y-76232452D01*
X142132597Y-76327260D01*
X142136334Y-76329715D01*
X142136337Y-76329717D01*
X142239054Y-76397189D01*
X142254334Y-76407226D01*
X142258391Y-76409131D01*
X142258395Y-76409133D01*
X142283411Y-76420878D01*
X142383979Y-76468095D01*
X142388262Y-76469404D01*
X142388266Y-76469406D01*
X142412304Y-76476755D01*
X142523277Y-76510683D01*
X142527700Y-76511372D01*
X142527706Y-76511373D01*
X142587568Y-76520693D01*
X142664795Y-76532717D01*
X142669262Y-76532772D01*
X142669267Y-76532772D01*
X142742831Y-76533671D01*
X142810438Y-76534497D01*
X142814723Y-76533937D01*
X142821760Y-76533729D01*
X143211047Y-76533729D01*
X143211047Y-76533727D01*
X143214014Y-76533318D01*
X143310438Y-76534496D01*
X143314880Y-76533915D01*
X143314883Y-76533915D01*
X143448002Y-76516508D01*
X143448004Y-76516508D01*
X143452452Y-76515926D01*
X143592748Y-76476755D01*
X143723841Y-76419072D01*
X143798955Y-76372317D01*
X143843694Y-76344470D01*
X143843698Y-76344467D01*
X143847496Y-76342103D01*
X143957131Y-76249946D01*
X144005797Y-76195517D01*
X144066112Y-76158067D01*
X144099726Y-76153500D01*
X145899832Y-76153500D01*
X145967953Y-76173502D01*
X145995785Y-76197836D01*
X146022337Y-76229034D01*
X146025246Y-76232452D01*
X146132597Y-76327260D01*
X146136334Y-76329715D01*
X146136337Y-76329717D01*
X146239054Y-76397189D01*
X146254334Y-76407226D01*
X146258391Y-76409131D01*
X146258395Y-76409133D01*
X146283411Y-76420878D01*
X146383979Y-76468095D01*
X146388262Y-76469404D01*
X146388266Y-76469406D01*
X146412304Y-76476755D01*
X146523277Y-76510683D01*
X146527700Y-76511372D01*
X146527706Y-76511373D01*
X146587568Y-76520693D01*
X146664795Y-76532717D01*
X146669262Y-76532772D01*
X146669267Y-76532772D01*
X146742831Y-76533671D01*
X146810438Y-76534497D01*
X146814723Y-76533937D01*
X146821760Y-76533729D01*
X147211047Y-76533729D01*
X147211047Y-76533727D01*
X147214014Y-76533318D01*
X147310438Y-76534496D01*
X147314880Y-76533915D01*
X147314883Y-76533915D01*
X147448002Y-76516508D01*
X147448004Y-76516508D01*
X147452452Y-76515926D01*
X147592748Y-76476755D01*
X147723841Y-76419072D01*
X147798955Y-76372317D01*
X147843694Y-76344470D01*
X147843698Y-76344467D01*
X147847496Y-76342103D01*
X147957131Y-76249946D01*
X148005797Y-76195517D01*
X148066112Y-76158067D01*
X148099726Y-76153500D01*
X149899832Y-76153500D01*
X149967953Y-76173502D01*
X149995785Y-76197836D01*
X150022337Y-76229034D01*
X150025246Y-76232452D01*
X150132597Y-76327260D01*
X150136334Y-76329715D01*
X150136337Y-76329717D01*
X150239054Y-76397189D01*
X150254334Y-76407226D01*
X150258391Y-76409131D01*
X150258395Y-76409133D01*
X150283411Y-76420878D01*
X150383979Y-76468095D01*
X150388262Y-76469404D01*
X150388266Y-76469406D01*
X150412304Y-76476755D01*
X150523277Y-76510683D01*
X150527700Y-76511372D01*
X150527706Y-76511373D01*
X150587568Y-76520693D01*
X150664795Y-76532717D01*
X150669262Y-76532772D01*
X150669267Y-76532772D01*
X150742831Y-76533671D01*
X150810438Y-76534497D01*
X150814723Y-76533937D01*
X150821760Y-76533729D01*
X151211047Y-76533729D01*
X151211047Y-76533727D01*
X151214014Y-76533318D01*
X151310438Y-76534496D01*
X151314880Y-76533915D01*
X151314883Y-76533915D01*
X151448002Y-76516508D01*
X151448004Y-76516508D01*
X151452452Y-76515926D01*
X151592748Y-76476755D01*
X151723841Y-76419072D01*
X151798955Y-76372317D01*
X151843694Y-76344470D01*
X151843698Y-76344467D01*
X151847496Y-76342103D01*
X151957131Y-76249946D01*
X152054218Y-76141361D01*
X152059664Y-76133181D01*
X152131099Y-76025865D01*
X152131100Y-76025863D01*
X152133581Y-76022136D01*
X152196289Y-75890667D01*
X152238999Y-75753961D01*
X152262287Y-75610179D01*
X152264912Y-75466980D01*
X152264359Y-75462535D01*
X152264122Y-75458056D01*
X152264249Y-75458049D01*
X152263729Y-75449661D01*
X152263729Y-75020000D01*
X152258500Y-74946889D01*
X152247833Y-74910560D01*
X152244012Y-74857131D01*
X152244757Y-74851951D01*
X152263729Y-74720000D01*
X152263729Y-74628134D01*
X154111500Y-74628134D01*
X154118255Y-74690316D01*
X154169385Y-74826705D01*
X154256739Y-74943261D01*
X154373295Y-75030615D01*
X154509684Y-75081745D01*
X154571866Y-75088500D01*
X157668134Y-75088500D01*
X157730316Y-75081745D01*
X157866705Y-75030615D01*
X157983261Y-74943261D01*
X158070615Y-74826705D01*
X158121745Y-74690316D01*
X158128500Y-74628134D01*
X158128500Y-73058918D01*
X159186917Y-73058918D01*
X159202682Y-73332320D01*
X159203507Y-73336525D01*
X159203508Y-73336533D01*
X159217566Y-73408184D01*
X159255405Y-73601053D01*
X159256792Y-73605103D01*
X159256793Y-73605108D01*
X159342723Y-73856088D01*
X159344112Y-73860144D01*
X159346039Y-73863975D01*
X159432163Y-74035214D01*
X159467160Y-74104799D01*
X159469586Y-74108328D01*
X159469589Y-74108334D01*
X159506845Y-74162541D01*
X159622274Y-74330490D01*
X159806582Y-74533043D01*
X160016675Y-74708707D01*
X160020316Y-74710991D01*
X160245024Y-74851951D01*
X160245028Y-74851953D01*
X160248664Y-74854234D01*
X160316544Y-74884883D01*
X160494345Y-74965164D01*
X160494349Y-74965166D01*
X160498257Y-74966930D01*
X160502377Y-74968150D01*
X160502376Y-74968150D01*
X160756723Y-75043491D01*
X160756727Y-75043492D01*
X160760836Y-75044709D01*
X160765070Y-75045357D01*
X160765075Y-75045358D01*
X161027298Y-75085483D01*
X161027300Y-75085483D01*
X161031540Y-75086132D01*
X161170912Y-75088322D01*
X161301071Y-75090367D01*
X161301077Y-75090367D01*
X161305362Y-75090434D01*
X161577235Y-75057534D01*
X161842127Y-74988041D01*
X161846087Y-74986401D01*
X161846092Y-74986399D01*
X162029177Y-74910562D01*
X162095136Y-74883241D01*
X162249375Y-74793111D01*
X162327879Y-74747237D01*
X162327880Y-74747236D01*
X162331582Y-74745073D01*
X162547089Y-74576094D01*
X162588809Y-74533043D01*
X162734686Y-74382509D01*
X162737669Y-74379431D01*
X162740202Y-74375983D01*
X162740206Y-74375978D01*
X162897257Y-74162178D01*
X162899795Y-74158723D01*
X162906338Y-74146673D01*
X163028418Y-73921830D01*
X163028419Y-73921828D01*
X163030468Y-73918054D01*
X163127269Y-73661877D01*
X163162416Y-73508418D01*
X163187449Y-73399117D01*
X163187450Y-73399113D01*
X163188407Y-73394933D01*
X163191206Y-73363579D01*
X163212531Y-73124627D01*
X163212531Y-73124625D01*
X163212751Y-73122161D01*
X163213193Y-73080000D01*
X163212849Y-73074959D01*
X163194859Y-72811055D01*
X163194858Y-72811049D01*
X163194567Y-72806778D01*
X163190412Y-72786712D01*
X163139901Y-72542809D01*
X163139032Y-72538612D01*
X163047617Y-72280465D01*
X162922013Y-72037112D01*
X162912040Y-72022921D01*
X162803703Y-71868774D01*
X162764545Y-71813057D01*
X162673889Y-71715499D01*
X162581046Y-71615588D01*
X162581043Y-71615585D01*
X162578125Y-71612445D01*
X162574810Y-71609731D01*
X162574806Y-71609728D01*
X162432036Y-71492872D01*
X162366205Y-71438990D01*
X162132704Y-71295901D01*
X162115706Y-71288439D01*
X161952369Y-71216739D01*
X161881945Y-71185825D01*
X161877814Y-71184648D01*
X161877805Y-71184645D01*
X161864981Y-71180992D01*
X161804947Y-71143093D01*
X161774932Y-71078754D01*
X161773500Y-71059813D01*
X161773500Y-66784095D01*
X161793502Y-66715974D01*
X161818931Y-66687221D01*
X161922748Y-66600877D01*
X161927186Y-66597186D01*
X162057458Y-66440551D01*
X162157004Y-66262799D01*
X162158860Y-66257332D01*
X162158862Y-66257327D01*
X162220634Y-66075352D01*
X162220635Y-66075347D01*
X162222490Y-66069883D01*
X162251723Y-65868263D01*
X162253249Y-65810000D01*
X162234608Y-65607126D01*
X162193832Y-65462547D01*
X162180875Y-65416606D01*
X162180874Y-65416604D01*
X162179307Y-65411047D01*
X162169916Y-65392002D01*
X162091756Y-65233510D01*
X162089201Y-65228329D01*
X162070796Y-65203681D01*
X161970758Y-65069715D01*
X161970758Y-65069714D01*
X161967305Y-65065091D01*
X161851284Y-64957842D01*
X161821943Y-64930719D01*
X161821940Y-64930717D01*
X161817703Y-64926800D01*
X161771675Y-64897759D01*
X161650288Y-64821169D01*
X161650283Y-64821167D01*
X161645404Y-64818088D01*
X161456180Y-64742595D01*
X161256366Y-64702849D01*
X161250592Y-64702773D01*
X161250588Y-64702773D01*
X161147452Y-64701424D01*
X161052655Y-64700183D01*
X161046958Y-64701162D01*
X161046957Y-64701162D01*
X160857567Y-64733705D01*
X160851870Y-64734684D01*
X160660734Y-64805198D01*
X160655773Y-64808150D01*
X160655772Y-64808150D01*
X160622475Y-64827960D01*
X160485649Y-64909363D01*
X160332478Y-65043690D01*
X160328911Y-65048215D01*
X160328906Y-65048220D01*
X160264224Y-65130269D01*
X160206351Y-65203681D01*
X160203662Y-65208792D01*
X160203660Y-65208795D01*
X160159625Y-65292493D01*
X160111492Y-65383978D01*
X160051078Y-65578543D01*
X160027132Y-65780859D01*
X160040457Y-65984151D01*
X160090605Y-66181610D01*
X160175898Y-66366624D01*
X160293479Y-66532997D01*
X160297613Y-66537024D01*
X160406114Y-66642721D01*
X160439410Y-66675157D01*
X160450500Y-66682567D01*
X160496028Y-66737042D01*
X160506500Y-66787333D01*
X160506500Y-71108954D01*
X160486498Y-71177075D01*
X160429935Y-71224851D01*
X160289982Y-71284546D01*
X160289978Y-71284548D01*
X160286030Y-71286232D01*
X160266125Y-71298145D01*
X160054725Y-71424664D01*
X160054721Y-71424667D01*
X160051043Y-71426868D01*
X159837318Y-71598094D01*
X159796475Y-71641134D01*
X159654130Y-71791134D01*
X159648808Y-71796742D01*
X159489002Y-72019136D01*
X159360857Y-72261161D01*
X159359385Y-72265184D01*
X159359383Y-72265188D01*
X159279849Y-72482524D01*
X159266743Y-72518337D01*
X159208404Y-72785907D01*
X159208068Y-72790177D01*
X159189749Y-73022941D01*
X159186917Y-73058918D01*
X158128500Y-73058918D01*
X158128500Y-71531866D01*
X158121745Y-71469684D01*
X158070615Y-71333295D01*
X157983261Y-71216739D01*
X157866705Y-71129385D01*
X157730316Y-71078255D01*
X157668134Y-71071500D01*
X156819500Y-71071500D01*
X156751379Y-71051498D01*
X156704886Y-70997842D01*
X156693500Y-70945500D01*
X156693500Y-66784095D01*
X156713502Y-66715974D01*
X156738931Y-66687221D01*
X156842748Y-66600877D01*
X156847186Y-66597186D01*
X156977458Y-66440551D01*
X157077004Y-66262799D01*
X157078860Y-66257332D01*
X157078862Y-66257327D01*
X157140634Y-66075352D01*
X157140635Y-66075347D01*
X157142490Y-66069883D01*
X157171723Y-65868263D01*
X157173249Y-65810000D01*
X157154608Y-65607126D01*
X157113832Y-65462547D01*
X157100875Y-65416606D01*
X157100874Y-65416604D01*
X157099307Y-65411047D01*
X157089916Y-65392002D01*
X157011756Y-65233510D01*
X157009201Y-65228329D01*
X156990796Y-65203681D01*
X156890758Y-65069715D01*
X156890758Y-65069714D01*
X156887305Y-65065091D01*
X156771284Y-64957842D01*
X156741943Y-64930719D01*
X156741940Y-64930717D01*
X156737703Y-64926800D01*
X156691675Y-64897759D01*
X156570288Y-64821169D01*
X156570283Y-64821167D01*
X156565404Y-64818088D01*
X156376180Y-64742595D01*
X156176366Y-64702849D01*
X156170592Y-64702773D01*
X156170588Y-64702773D01*
X156067452Y-64701424D01*
X155972655Y-64700183D01*
X155966958Y-64701162D01*
X155966957Y-64701162D01*
X155777567Y-64733705D01*
X155771870Y-64734684D01*
X155580734Y-64805198D01*
X155575773Y-64808150D01*
X155575772Y-64808150D01*
X155542475Y-64827960D01*
X155405649Y-64909363D01*
X155252478Y-65043690D01*
X155248911Y-65048215D01*
X155248906Y-65048220D01*
X155184224Y-65130269D01*
X155126351Y-65203681D01*
X155123662Y-65208792D01*
X155123660Y-65208795D01*
X155079625Y-65292493D01*
X155031492Y-65383978D01*
X154971078Y-65578543D01*
X154947132Y-65780859D01*
X154960457Y-65984151D01*
X155010605Y-66181610D01*
X155095898Y-66366624D01*
X155213479Y-66532997D01*
X155217613Y-66537024D01*
X155326114Y-66642721D01*
X155359410Y-66675157D01*
X155370500Y-66682567D01*
X155416028Y-66737042D01*
X155426500Y-66787333D01*
X155426500Y-70945500D01*
X155406498Y-71013621D01*
X155352842Y-71060114D01*
X155300500Y-71071500D01*
X154571866Y-71071500D01*
X154509684Y-71078255D01*
X154373295Y-71129385D01*
X154256739Y-71216739D01*
X154169385Y-71333295D01*
X154118255Y-71469684D01*
X154111500Y-71531866D01*
X154111500Y-74628134D01*
X152263729Y-74628134D01*
X152263729Y-74232678D01*
X152263750Y-74230369D01*
X152264830Y-74171453D01*
X152264912Y-74166980D01*
X152246907Y-74022435D01*
X152209234Y-73884255D01*
X152199138Y-73860924D01*
X152153173Y-73754704D01*
X152153171Y-73754699D01*
X152151388Y-73750580D01*
X152076448Y-73628528D01*
X152059830Y-73608511D01*
X151986270Y-73519907D01*
X151986268Y-73519905D01*
X151983408Y-73516460D01*
X151877224Y-73420346D01*
X151854855Y-73405258D01*
X151760183Y-73341401D01*
X151760178Y-73341398D01*
X151756464Y-73338893D01*
X151704559Y-73313746D01*
X151651979Y-73266045D01*
X151633500Y-73200355D01*
X151633500Y-72482524D01*
X151653502Y-72414403D01*
X151665858Y-72398221D01*
X151739040Y-72316944D01*
X151834527Y-72151556D01*
X151893542Y-71969928D01*
X151895140Y-71954729D01*
X151912814Y-71786565D01*
X151913504Y-71780000D01*
X151895927Y-71612763D01*
X151894232Y-71596635D01*
X151894232Y-71596633D01*
X151893542Y-71590072D01*
X151834527Y-71408444D01*
X151739040Y-71243056D01*
X151697180Y-71196565D01*
X151615675Y-71106045D01*
X151615674Y-71106044D01*
X151611253Y-71101134D01*
X151472154Y-71000072D01*
X151462094Y-70992763D01*
X151462093Y-70992762D01*
X151456752Y-70988882D01*
X151450724Y-70986198D01*
X151450722Y-70986197D01*
X151288319Y-70913891D01*
X151288318Y-70913891D01*
X151282288Y-70911206D01*
X151188887Y-70891353D01*
X151101944Y-70872872D01*
X151101939Y-70872872D01*
X151095487Y-70871500D01*
X150904513Y-70871500D01*
X150898061Y-70872872D01*
X150898056Y-70872872D01*
X150811113Y-70891353D01*
X150717712Y-70911206D01*
X150711682Y-70913891D01*
X150711681Y-70913891D01*
X150549278Y-70986197D01*
X150549276Y-70986198D01*
X150543248Y-70988882D01*
X150537907Y-70992762D01*
X150537906Y-70992763D01*
X150527846Y-71000072D01*
X150388747Y-71101134D01*
X150384326Y-71106044D01*
X150384325Y-71106045D01*
X150302821Y-71196565D01*
X150260960Y-71243056D01*
X150165473Y-71408444D01*
X150106458Y-71590072D01*
X150105768Y-71596633D01*
X150105768Y-71596635D01*
X150104073Y-71612763D01*
X150086496Y-71780000D01*
X150087186Y-71786565D01*
X150104861Y-71954729D01*
X150106458Y-71969928D01*
X150165473Y-72151556D01*
X150260960Y-72316944D01*
X150334137Y-72398215D01*
X150364853Y-72462221D01*
X150366500Y-72482524D01*
X150366500Y-73199606D01*
X150346498Y-73267727D01*
X150292652Y-73314306D01*
X150269290Y-73324928D01*
X150269286Y-73324930D01*
X150265211Y-73326783D01*
X150142503Y-73405258D01*
X150034002Y-73498748D01*
X149938250Y-73608511D01*
X149935812Y-73612272D01*
X149935810Y-73612275D01*
X149890938Y-73681505D01*
X149860350Y-73728696D01*
X149858474Y-73732757D01*
X149858473Y-73732758D01*
X149801487Y-73856088D01*
X149799252Y-73860924D01*
X149782167Y-73918054D01*
X149770531Y-73956964D01*
X149758216Y-73998142D01*
X149757554Y-74002574D01*
X149757553Y-74002577D01*
X149742849Y-74100968D01*
X149736688Y-74142196D01*
X149735813Y-74285417D01*
X149736148Y-74287861D01*
X149736271Y-74291656D01*
X149736271Y-74720000D01*
X149738065Y-74745073D01*
X149738525Y-74751510D01*
X149723434Y-74820884D01*
X149673232Y-74871087D01*
X149612846Y-74886500D01*
X148385201Y-74886500D01*
X148317080Y-74866498D01*
X148270587Y-74812842D01*
X148260484Y-74742567D01*
X148263088Y-74724460D01*
X148263088Y-74724456D01*
X148263729Y-74720000D01*
X148263729Y-74232678D01*
X148263750Y-74230369D01*
X148264830Y-74171453D01*
X148264912Y-74166980D01*
X148246907Y-74022435D01*
X148209234Y-73884255D01*
X148199138Y-73860924D01*
X148153173Y-73754704D01*
X148153171Y-73754699D01*
X148151388Y-73750580D01*
X148076448Y-73628528D01*
X148059830Y-73608511D01*
X147986270Y-73519907D01*
X147986268Y-73519905D01*
X147983408Y-73516460D01*
X147877224Y-73420346D01*
X147854855Y-73405258D01*
X147760183Y-73341401D01*
X147760178Y-73341398D01*
X147756464Y-73338893D01*
X147703039Y-73313009D01*
X147650456Y-73265306D01*
X147632040Y-73203578D01*
X147630922Y-73168031D01*
X147630673Y-73160111D01*
X147625021Y-73140657D01*
X147621013Y-73121300D01*
X147619468Y-73109070D01*
X147619468Y-73109069D01*
X147618474Y-73101203D01*
X147611063Y-73082484D01*
X147602196Y-73060088D01*
X147598351Y-73048858D01*
X147588229Y-73014017D01*
X147588229Y-73014016D01*
X147586018Y-73006407D01*
X147581985Y-72999588D01*
X147581983Y-72999583D01*
X147575707Y-72988972D01*
X147567012Y-72971224D01*
X147559552Y-72952383D01*
X147533564Y-72916613D01*
X147527048Y-72906693D01*
X147508580Y-72875465D01*
X147508578Y-72875462D01*
X147504542Y-72868638D01*
X147490221Y-72854317D01*
X147477380Y-72839283D01*
X147470131Y-72829306D01*
X147465472Y-72822893D01*
X147431395Y-72794702D01*
X147422616Y-72786712D01*
X145877122Y-71241217D01*
X145843096Y-71178905D01*
X145840907Y-71165292D01*
X145824232Y-71006635D01*
X145824232Y-71006633D01*
X145823542Y-71000072D01*
X145764527Y-70818444D01*
X145669040Y-70653056D01*
X145541253Y-70511134D01*
X145386752Y-70398882D01*
X145380724Y-70396198D01*
X145380722Y-70396197D01*
X145218319Y-70323891D01*
X145218318Y-70323891D01*
X145212288Y-70321206D01*
X145118888Y-70301353D01*
X145031944Y-70282872D01*
X145031939Y-70282872D01*
X145025487Y-70281500D01*
X144834513Y-70281500D01*
X144828061Y-70282872D01*
X144828056Y-70282872D01*
X144741112Y-70301353D01*
X144647712Y-70321206D01*
X144641682Y-70323891D01*
X144641681Y-70323891D01*
X144479278Y-70396197D01*
X144479276Y-70396198D01*
X144473248Y-70398882D01*
X144318747Y-70511134D01*
X144190960Y-70653056D01*
X144095473Y-70818444D01*
X144036458Y-71000072D01*
X144016496Y-71190000D01*
X144017186Y-71196565D01*
X144027627Y-71295901D01*
X144036458Y-71379928D01*
X144095473Y-71561556D01*
X144098776Y-71567278D01*
X144098777Y-71567279D01*
X144122797Y-71608882D01*
X144190960Y-71726944D01*
X144195378Y-71731851D01*
X144195379Y-71731852D01*
X144246632Y-71788774D01*
X144318747Y-71868866D01*
X144473248Y-71981118D01*
X144479276Y-71983802D01*
X144479278Y-71983803D01*
X144641681Y-72056109D01*
X144647712Y-72058794D01*
X144741113Y-72078647D01*
X144828056Y-72097128D01*
X144828061Y-72097128D01*
X144834513Y-72098500D01*
X144890406Y-72098500D01*
X144958527Y-72118502D01*
X144979501Y-72135405D01*
X146103936Y-73259841D01*
X146137962Y-73322153D01*
X146132897Y-73392969D01*
X146097089Y-73444389D01*
X146034002Y-73498748D01*
X145938250Y-73608511D01*
X145935812Y-73612272D01*
X145935810Y-73612275D01*
X145890938Y-73681505D01*
X145860350Y-73728696D01*
X145858474Y-73732757D01*
X145858473Y-73732758D01*
X145801487Y-73856088D01*
X145799252Y-73860924D01*
X145782167Y-73918054D01*
X145770531Y-73956964D01*
X145758216Y-73998142D01*
X145757554Y-74002574D01*
X145757553Y-74002577D01*
X145742849Y-74100968D01*
X145736688Y-74142196D01*
X145735813Y-74285417D01*
X145736148Y-74287861D01*
X145736271Y-74291656D01*
X145736271Y-74720000D01*
X145738065Y-74745073D01*
X145738525Y-74751510D01*
X145723434Y-74820884D01*
X145673232Y-74871087D01*
X145612846Y-74886500D01*
X144385201Y-74886500D01*
X144317080Y-74866498D01*
X144270587Y-74812842D01*
X144260484Y-74742567D01*
X144263088Y-74724460D01*
X144263088Y-74724456D01*
X144263729Y-74720000D01*
X144263729Y-74232678D01*
X144263750Y-74230369D01*
X144264830Y-74171453D01*
X144264912Y-74166980D01*
X144246907Y-74022435D01*
X144209234Y-73884255D01*
X144199138Y-73860924D01*
X144153173Y-73754704D01*
X144153171Y-73754699D01*
X144151388Y-73750580D01*
X144076448Y-73628528D01*
X144059830Y-73608511D01*
X143986270Y-73519907D01*
X143986268Y-73519905D01*
X143983408Y-73516460D01*
X143877224Y-73420346D01*
X143854855Y-73405258D01*
X143760183Y-73341401D01*
X143760178Y-73341398D01*
X143756464Y-73338893D01*
X143704559Y-73313746D01*
X143651979Y-73266045D01*
X143633500Y-73200355D01*
X143633500Y-73172524D01*
X143653502Y-73104403D01*
X143665858Y-73088221D01*
X143739040Y-73006944D01*
X143825643Y-72856944D01*
X143831223Y-72847279D01*
X143831224Y-72847278D01*
X143834527Y-72841556D01*
X143893542Y-72659928D01*
X143900240Y-72596206D01*
X143912814Y-72476565D01*
X143913504Y-72470000D01*
X143897739Y-72320000D01*
X143894232Y-72286635D01*
X143894232Y-72286633D01*
X143893542Y-72280072D01*
X143834527Y-72098444D01*
X143739040Y-71933056D01*
X143684740Y-71872749D01*
X143615675Y-71796045D01*
X143615674Y-71796044D01*
X143611253Y-71791134D01*
X143456752Y-71678882D01*
X143450724Y-71676198D01*
X143450722Y-71676197D01*
X143288319Y-71603891D01*
X143288318Y-71603891D01*
X143282288Y-71601206D01*
X143188888Y-71581353D01*
X143101944Y-71562872D01*
X143101939Y-71562872D01*
X143095487Y-71561500D01*
X142904513Y-71561500D01*
X142898061Y-71562872D01*
X142898056Y-71562872D01*
X142811112Y-71581353D01*
X142717712Y-71601206D01*
X142711682Y-71603891D01*
X142711681Y-71603891D01*
X142549278Y-71676197D01*
X142549276Y-71676198D01*
X142543248Y-71678882D01*
X142388747Y-71791134D01*
X142384326Y-71796044D01*
X142384325Y-71796045D01*
X142315261Y-71872749D01*
X142260960Y-71933056D01*
X142165473Y-72098444D01*
X142106458Y-72280072D01*
X142105768Y-72286633D01*
X142105768Y-72286635D01*
X142102261Y-72320000D01*
X142086496Y-72470000D01*
X142087186Y-72476565D01*
X142099761Y-72596206D01*
X142106458Y-72659928D01*
X142165473Y-72841556D01*
X142168776Y-72847278D01*
X142168777Y-72847279D01*
X142174357Y-72856944D01*
X142260960Y-73006944D01*
X142334137Y-73088215D01*
X142364853Y-73152221D01*
X142366500Y-73172524D01*
X142366500Y-73199606D01*
X142346498Y-73267727D01*
X142292652Y-73314306D01*
X142269290Y-73324928D01*
X142269286Y-73324930D01*
X142265211Y-73326783D01*
X142142503Y-73405258D01*
X142034002Y-73498748D01*
X141938250Y-73608511D01*
X141935812Y-73612272D01*
X141935810Y-73612275D01*
X141890938Y-73681505D01*
X141860350Y-73728696D01*
X141858474Y-73732757D01*
X141858473Y-73732758D01*
X141801487Y-73856088D01*
X141799252Y-73860924D01*
X141782167Y-73918054D01*
X141770531Y-73956964D01*
X141758216Y-73998142D01*
X141757554Y-74002574D01*
X141757553Y-74002577D01*
X141742849Y-74100968D01*
X141736688Y-74142196D01*
X141735813Y-74285417D01*
X141736148Y-74287861D01*
X141736271Y-74291656D01*
X141736271Y-74720000D01*
X141738065Y-74745073D01*
X141738525Y-74751510D01*
X141723434Y-74820884D01*
X141673232Y-74871087D01*
X141612846Y-74886500D01*
X141385201Y-74886500D01*
X141317080Y-74866498D01*
X141270587Y-74812842D01*
X141260484Y-74742567D01*
X141263088Y-74724460D01*
X141263088Y-74724456D01*
X141263729Y-74720000D01*
X141263729Y-74232678D01*
X141263750Y-74230369D01*
X141264830Y-74171453D01*
X141264912Y-74166980D01*
X141246907Y-74022435D01*
X141209234Y-73884255D01*
X141199138Y-73860924D01*
X141153173Y-73754704D01*
X141153171Y-73754699D01*
X141151388Y-73750580D01*
X141076448Y-73628528D01*
X141059830Y-73608511D01*
X140986270Y-73519907D01*
X140986268Y-73519905D01*
X140983408Y-73516460D01*
X140877224Y-73420346D01*
X140854855Y-73405258D01*
X140760183Y-73341401D01*
X140760178Y-73341398D01*
X140756464Y-73338893D01*
X140704559Y-73313746D01*
X140651979Y-73266045D01*
X140633500Y-73200355D01*
X140633500Y-73022524D01*
X140653502Y-72954403D01*
X140665858Y-72938221D01*
X140739040Y-72856944D01*
X140834527Y-72691556D01*
X140893542Y-72509928D01*
X140913504Y-72320000D01*
X140909997Y-72286635D01*
X140894232Y-72136635D01*
X140894232Y-72136633D01*
X140893542Y-72130072D01*
X140834527Y-71948444D01*
X140739040Y-71783056D01*
X140678212Y-71715499D01*
X140615675Y-71646045D01*
X140615674Y-71646044D01*
X140611253Y-71641134D01*
X140465562Y-71535283D01*
X140462094Y-71532763D01*
X140462093Y-71532762D01*
X140456752Y-71528882D01*
X140450724Y-71526198D01*
X140450722Y-71526197D01*
X140288319Y-71453891D01*
X140288318Y-71453891D01*
X140282288Y-71451206D01*
X140180405Y-71429550D01*
X140101944Y-71412872D01*
X140101939Y-71412872D01*
X140095487Y-71411500D01*
X139904513Y-71411500D01*
X139898061Y-71412872D01*
X139898056Y-71412872D01*
X139819595Y-71429550D01*
X139717712Y-71451206D01*
X139711682Y-71453891D01*
X139711681Y-71453891D01*
X139549278Y-71526197D01*
X139549276Y-71526198D01*
X139543248Y-71528882D01*
X139537907Y-71532762D01*
X139537906Y-71532763D01*
X139534438Y-71535283D01*
X139388747Y-71641134D01*
X139384326Y-71646044D01*
X139384325Y-71646045D01*
X139321789Y-71715499D01*
X139260960Y-71783056D01*
X139165473Y-71948444D01*
X139106458Y-72130072D01*
X139105768Y-72136633D01*
X139105768Y-72136635D01*
X139090003Y-72286635D01*
X139086496Y-72320000D01*
X139106458Y-72509928D01*
X139165473Y-72691556D01*
X139260960Y-72856944D01*
X139334137Y-72938215D01*
X139364853Y-73002221D01*
X139366500Y-73022524D01*
X139366500Y-73199606D01*
X139346498Y-73267727D01*
X139292652Y-73314306D01*
X139269290Y-73324928D01*
X139269286Y-73324930D01*
X139265211Y-73326783D01*
X139142503Y-73405258D01*
X139034002Y-73498748D01*
X138938250Y-73608511D01*
X138935812Y-73612272D01*
X138935810Y-73612275D01*
X138890938Y-73681505D01*
X138860350Y-73728696D01*
X138858474Y-73732757D01*
X138858473Y-73732758D01*
X138801487Y-73856088D01*
X138799252Y-73860924D01*
X138782167Y-73918054D01*
X138770531Y-73956964D01*
X138758216Y-73998142D01*
X138757554Y-74002574D01*
X138757553Y-74002577D01*
X138742849Y-74100968D01*
X138736688Y-74142196D01*
X138735813Y-74285417D01*
X138736148Y-74287861D01*
X138736271Y-74291656D01*
X138736271Y-74720000D01*
X138738065Y-74745073D01*
X138738525Y-74751510D01*
X138723434Y-74820884D01*
X138673232Y-74871087D01*
X138612846Y-74886500D01*
X138385201Y-74886500D01*
X138317080Y-74866498D01*
X138270587Y-74812842D01*
X138260484Y-74742567D01*
X138263088Y-74724460D01*
X138263088Y-74724456D01*
X138263729Y-74720000D01*
X138263729Y-74232678D01*
X138263750Y-74230369D01*
X138264830Y-74171453D01*
X138264912Y-74166980D01*
X138246907Y-74022435D01*
X138209234Y-73884255D01*
X138199138Y-73860924D01*
X138153173Y-73754704D01*
X138153171Y-73754699D01*
X138151388Y-73750580D01*
X138076448Y-73628528D01*
X138059830Y-73608511D01*
X137986270Y-73519907D01*
X137986268Y-73519905D01*
X137983408Y-73516460D01*
X137877224Y-73420346D01*
X137854855Y-73405258D01*
X137760183Y-73341401D01*
X137760178Y-73341398D01*
X137756464Y-73338893D01*
X137704559Y-73313746D01*
X137651979Y-73266045D01*
X137633500Y-73200355D01*
X137633500Y-73102524D01*
X137653502Y-73034403D01*
X137665858Y-73018221D01*
X137739040Y-72936944D01*
X137821164Y-72794702D01*
X137831223Y-72777279D01*
X137831224Y-72777278D01*
X137834527Y-72771556D01*
X137893542Y-72589928D01*
X137898495Y-72542809D01*
X137912814Y-72406565D01*
X137913504Y-72400000D01*
X137904060Y-72310142D01*
X137894232Y-72216635D01*
X137894232Y-72216633D01*
X137893542Y-72210072D01*
X137834527Y-72028444D01*
X137827145Y-72015657D01*
X137742341Y-71868774D01*
X137739040Y-71863056D01*
X137611253Y-71721134D01*
X137501143Y-71641134D01*
X137462094Y-71612763D01*
X137462093Y-71612762D01*
X137456752Y-71608882D01*
X137450724Y-71606198D01*
X137450722Y-71606197D01*
X137288319Y-71533891D01*
X137288318Y-71533891D01*
X137282288Y-71531206D01*
X137188887Y-71511353D01*
X137101944Y-71492872D01*
X137101939Y-71492872D01*
X137095487Y-71491500D01*
X136904513Y-71491500D01*
X136898061Y-71492872D01*
X136898056Y-71492872D01*
X136811113Y-71511353D01*
X136717712Y-71531206D01*
X136711682Y-71533891D01*
X136711681Y-71533891D01*
X136549278Y-71606197D01*
X136549276Y-71606198D01*
X136543248Y-71608882D01*
X136537907Y-71612762D01*
X136537906Y-71612763D01*
X136498857Y-71641134D01*
X136388747Y-71721134D01*
X136260960Y-71863056D01*
X136257659Y-71868774D01*
X136172856Y-72015657D01*
X136165473Y-72028444D01*
X136106458Y-72210072D01*
X136105768Y-72216633D01*
X136105768Y-72216635D01*
X136095940Y-72310142D01*
X136086496Y-72400000D01*
X136087186Y-72406565D01*
X136101506Y-72542809D01*
X136106458Y-72589928D01*
X136165473Y-72771556D01*
X136168776Y-72777278D01*
X136168777Y-72777279D01*
X136178836Y-72794702D01*
X136260960Y-72936944D01*
X136334137Y-73018215D01*
X136364853Y-73082221D01*
X136366500Y-73102524D01*
X136366500Y-73199606D01*
X136346498Y-73267727D01*
X136292652Y-73314306D01*
X136269290Y-73324928D01*
X136269286Y-73324930D01*
X136265211Y-73326783D01*
X136142503Y-73405258D01*
X136034002Y-73498748D01*
X135938250Y-73608511D01*
X135935812Y-73612272D01*
X135935810Y-73612275D01*
X135890938Y-73681505D01*
X135860350Y-73728696D01*
X135858474Y-73732757D01*
X135858473Y-73732758D01*
X135801487Y-73856088D01*
X135799252Y-73860924D01*
X135782167Y-73918054D01*
X135770531Y-73956964D01*
X135758216Y-73998142D01*
X135757554Y-74002574D01*
X135757553Y-74002577D01*
X135742849Y-74100968D01*
X135736688Y-74142196D01*
X135735813Y-74285417D01*
X135736148Y-74287861D01*
X135736271Y-74291656D01*
X135736271Y-74720000D01*
X135738065Y-74745073D01*
X135738525Y-74751510D01*
X135723434Y-74820884D01*
X135673232Y-74871087D01*
X135612846Y-74886500D01*
X135435201Y-74886500D01*
X135367080Y-74866498D01*
X135320587Y-74812842D01*
X135310484Y-74742567D01*
X135313088Y-74724460D01*
X135313088Y-74724456D01*
X135313729Y-74720000D01*
X135313729Y-74232678D01*
X135313750Y-74230369D01*
X135314830Y-74171453D01*
X135314912Y-74166980D01*
X135296907Y-74022435D01*
X135259234Y-73884255D01*
X135249138Y-73860924D01*
X135203173Y-73754704D01*
X135203171Y-73754699D01*
X135201388Y-73750580D01*
X135126448Y-73628528D01*
X135109830Y-73608511D01*
X135036270Y-73519907D01*
X135036268Y-73519905D01*
X135033408Y-73516460D01*
X134927224Y-73420346D01*
X134904855Y-73405258D01*
X134810183Y-73341401D01*
X134810178Y-73341398D01*
X134806464Y-73338893D01*
X134677572Y-73276446D01*
X134538812Y-73232162D01*
X134397574Y-73208400D01*
X134318627Y-73201318D01*
X134316205Y-73201288D01*
X134316198Y-73201288D01*
X134312884Y-73201248D01*
X134306285Y-73201167D01*
X134235381Y-73205783D01*
X134231964Y-73206005D01*
X134223779Y-73206271D01*
X133984365Y-73206271D01*
X133916244Y-73186269D01*
X133895270Y-73169366D01*
X130980405Y-70254500D01*
X130946379Y-70192188D01*
X130943500Y-70165405D01*
X130943500Y-65911592D01*
X130963502Y-65843471D01*
X130980405Y-65822497D01*
X133097498Y-63705405D01*
X133159810Y-63671379D01*
X133186593Y-63668500D01*
X133877885Y-63668500D01*
X133893124Y-63664025D01*
X133894329Y-63662635D01*
X133896000Y-63654952D01*
X133896000Y-63650385D01*
X134404000Y-63650385D01*
X134408475Y-63665624D01*
X134409865Y-63666829D01*
X134417548Y-63668500D01*
X135114885Y-63668500D01*
X135130124Y-63664025D01*
X135131329Y-63662635D01*
X135132842Y-63655679D01*
X135132663Y-63652218D01*
X135123196Y-63560979D01*
X135120303Y-63547583D01*
X135071170Y-63400313D01*
X135064996Y-63387134D01*
X134983530Y-63255486D01*
X134974494Y-63244085D01*
X134864920Y-63134702D01*
X134853509Y-63125690D01*
X134721709Y-63044447D01*
X134708532Y-63038303D01*
X134561157Y-62989421D01*
X134547790Y-62986555D01*
X134457730Y-62977328D01*
X134451315Y-62977000D01*
X134422115Y-62977000D01*
X134406876Y-62981475D01*
X134405671Y-62982865D01*
X134404000Y-62990548D01*
X134404000Y-63650385D01*
X133896000Y-63650385D01*
X133896000Y-62977000D01*
X133897039Y-62977000D01*
X133897041Y-62927653D01*
X133928841Y-62874062D01*
X134617498Y-62185405D01*
X134679810Y-62151379D01*
X134706593Y-62148500D01*
X136086001Y-62148500D01*
X136154122Y-62168502D01*
X136200615Y-62222158D01*
X136212001Y-62274500D01*
X136212001Y-62300724D01*
X136212539Y-62308935D01*
X136226572Y-62415533D01*
X136230810Y-62431348D01*
X136285753Y-62563993D01*
X136293941Y-62578176D01*
X136381344Y-62692080D01*
X136392920Y-62703656D01*
X136506824Y-62791059D01*
X136521007Y-62799247D01*
X136653650Y-62854190D01*
X136669468Y-62858428D01*
X136776066Y-62872462D01*
X136784275Y-62873000D01*
X137239385Y-62873000D01*
X137254624Y-62868525D01*
X137255829Y-62867135D01*
X137257500Y-62859452D01*
X137257500Y-62349500D01*
X137277502Y-62281379D01*
X137331158Y-62234886D01*
X137383499Y-62223500D01*
X137458017Y-62223499D01*
X137531501Y-62223499D01*
X137599620Y-62243501D01*
X137646113Y-62297156D01*
X137657500Y-62349499D01*
X137657500Y-62854884D01*
X137661975Y-62870123D01*
X137663365Y-62871328D01*
X137671048Y-62872999D01*
X138130714Y-62872999D01*
X138134601Y-62872744D01*
X138203885Y-62888244D01*
X138245730Y-62928919D01*
X138246563Y-62928273D01*
X138251157Y-62934195D01*
X138251304Y-62934338D01*
X138255458Y-62941362D01*
X138269779Y-62955683D01*
X138282619Y-62970716D01*
X138294528Y-62987107D01*
X138300634Y-62992158D01*
X138328605Y-63015298D01*
X138337384Y-63023288D01*
X139274123Y-63960027D01*
X139308149Y-64022339D01*
X139303084Y-64093154D01*
X139260537Y-64149990D01*
X139202130Y-64173956D01*
X139190273Y-64175580D01*
X139052564Y-64214937D01*
X138919602Y-64274414D01*
X138915820Y-64276800D01*
X138915813Y-64276804D01*
X138885141Y-64296157D01*
X138798474Y-64350840D01*
X138687548Y-64445246D01*
X138684577Y-64448610D01*
X138669123Y-64466109D01*
X138592740Y-64552597D01*
X138590285Y-64556334D01*
X138590283Y-64556337D01*
X138547239Y-64621866D01*
X138512774Y-64674334D01*
X138510868Y-64678395D01*
X138510728Y-64678644D01*
X138460013Y-64728328D01*
X138390487Y-64742706D01*
X138326706Y-64719063D01*
X138314593Y-64710262D01*
X138314590Y-64710260D01*
X138309252Y-64706382D01*
X138303224Y-64703698D01*
X138303222Y-64703697D01*
X138140819Y-64631391D01*
X138140818Y-64631391D01*
X138134788Y-64628706D01*
X138041387Y-64608853D01*
X137954444Y-64590372D01*
X137954439Y-64590372D01*
X137947987Y-64589000D01*
X137757013Y-64589000D01*
X137750561Y-64590372D01*
X137750556Y-64590372D01*
X137663613Y-64608853D01*
X137570212Y-64628706D01*
X137564182Y-64631391D01*
X137564181Y-64631391D01*
X137401778Y-64703697D01*
X137401776Y-64703698D01*
X137395748Y-64706382D01*
X137390407Y-64710262D01*
X137390406Y-64710263D01*
X137342957Y-64744737D01*
X137241247Y-64818634D01*
X137236832Y-64823537D01*
X137231920Y-64827960D01*
X137230795Y-64826711D01*
X137177486Y-64859551D01*
X137144300Y-64864000D01*
X135071647Y-64864000D01*
X135003526Y-64843998D01*
X134980694Y-64823320D01*
X134980071Y-64823945D01*
X134954841Y-64798759D01*
X134920762Y-64736477D01*
X134925765Y-64665657D01*
X134954686Y-64620568D01*
X134975298Y-64599920D01*
X134984310Y-64588509D01*
X135065553Y-64456709D01*
X135071697Y-64443532D01*
X135120579Y-64296157D01*
X135123445Y-64282790D01*
X135132614Y-64193300D01*
X135128525Y-64179376D01*
X135127135Y-64178171D01*
X135119452Y-64176500D01*
X133185115Y-64176500D01*
X133169876Y-64180975D01*
X133168671Y-64182365D01*
X133167158Y-64189321D01*
X133167337Y-64192782D01*
X133176804Y-64284021D01*
X133179697Y-64297417D01*
X133228830Y-64444687D01*
X133235004Y-64457866D01*
X133316470Y-64589514D01*
X133325506Y-64600915D01*
X133345158Y-64620533D01*
X133379237Y-64682816D01*
X133374234Y-64753636D01*
X133345314Y-64798723D01*
X133336747Y-64807305D01*
X133319136Y-64824947D01*
X133230151Y-64969308D01*
X133227846Y-64976256D01*
X133227846Y-64976257D01*
X133183083Y-65111213D01*
X133176762Y-65130269D01*
X133166500Y-65230428D01*
X133166500Y-65764572D01*
X133177022Y-65865982D01*
X133230692Y-66026849D01*
X133319929Y-66171055D01*
X133419975Y-66270926D01*
X133431121Y-66282053D01*
X133465200Y-66344335D01*
X133460197Y-66415155D01*
X133435739Y-66455536D01*
X133416678Y-66476706D01*
X133410960Y-66483056D01*
X133379132Y-66538184D01*
X133324894Y-66632127D01*
X133315473Y-66648444D01*
X133256458Y-66830072D01*
X133255768Y-66836633D01*
X133255768Y-66836635D01*
X133252730Y-66865540D01*
X133236496Y-67020000D01*
X133256458Y-67209928D01*
X133315473Y-67391556D01*
X133318776Y-67397278D01*
X133318777Y-67397279D01*
X133329249Y-67415417D01*
X133410960Y-67556944D01*
X133538747Y-67698866D01*
X133693248Y-67811118D01*
X133699276Y-67813802D01*
X133699278Y-67813803D01*
X133861681Y-67886109D01*
X133867712Y-67888794D01*
X133961112Y-67908647D01*
X134048056Y-67927128D01*
X134048061Y-67927128D01*
X134054513Y-67928500D01*
X134245487Y-67928500D01*
X134251939Y-67927128D01*
X134251944Y-67927128D01*
X134338888Y-67908647D01*
X134432288Y-67888794D01*
X134438319Y-67886109D01*
X134600722Y-67813803D01*
X134600724Y-67813802D01*
X134606752Y-67811118D01*
X134761253Y-67698866D01*
X134889040Y-67556944D01*
X134970751Y-67415417D01*
X134981223Y-67397279D01*
X134981224Y-67397278D01*
X134984527Y-67391556D01*
X135043542Y-67209928D01*
X135063504Y-67020000D01*
X135047270Y-66865540D01*
X135044232Y-66836635D01*
X135044232Y-66836633D01*
X135043542Y-66830072D01*
X134984527Y-66648444D01*
X134975107Y-66632127D01*
X134920868Y-66538184D01*
X134889040Y-66483056D01*
X134864345Y-66455629D01*
X134833629Y-66391625D01*
X134842392Y-66321171D01*
X134868809Y-66282303D01*
X134880167Y-66270926D01*
X134980864Y-66170053D01*
X134982696Y-66171882D01*
X135030723Y-66137840D01*
X135071673Y-66131000D01*
X137144300Y-66131000D01*
X137212421Y-66151002D01*
X137231647Y-66167343D01*
X137231920Y-66167040D01*
X137236832Y-66171463D01*
X137241247Y-66176366D01*
X137246586Y-66180245D01*
X137373509Y-66272460D01*
X137395748Y-66288618D01*
X137401776Y-66291302D01*
X137401778Y-66291303D01*
X137564181Y-66363609D01*
X137570212Y-66366294D01*
X137663613Y-66386147D01*
X137750556Y-66404628D01*
X137750561Y-66404628D01*
X137757013Y-66406000D01*
X137947987Y-66406000D01*
X137954439Y-66404628D01*
X137954444Y-66404628D01*
X138041387Y-66386147D01*
X138134788Y-66366294D01*
X138140819Y-66363609D01*
X138303222Y-66291303D01*
X138303224Y-66291302D01*
X138309252Y-66288618D01*
X138320679Y-66280316D01*
X138393788Y-66227199D01*
X138460656Y-66203340D01*
X138529807Y-66219421D01*
X138572511Y-66260340D01*
X138572894Y-66260062D01*
X138574433Y-66262182D01*
X138574819Y-66262552D01*
X138575526Y-66263688D01*
X138575531Y-66263695D01*
X138577897Y-66267496D01*
X138580779Y-66270924D01*
X138580780Y-66270926D01*
X138661222Y-66366624D01*
X138670054Y-66377131D01*
X138778639Y-66474218D01*
X138782372Y-66476703D01*
X138782376Y-66476706D01*
X138875678Y-66538813D01*
X138897864Y-66553581D01*
X139029333Y-66616289D01*
X139033612Y-66617626D01*
X139033615Y-66617627D01*
X139080027Y-66632127D01*
X139166039Y-66658999D01*
X139170463Y-66659716D01*
X139170465Y-66659716D01*
X139200441Y-66664571D01*
X139309821Y-66682287D01*
X139376782Y-66683514D01*
X139448539Y-66684830D01*
X139448541Y-66684830D01*
X139453020Y-66684912D01*
X139457465Y-66684359D01*
X139461944Y-66684122D01*
X139461951Y-66684249D01*
X139470339Y-66683729D01*
X139950000Y-66683729D01*
X139970162Y-66682287D01*
X140016375Y-66678982D01*
X140016377Y-66678982D01*
X140023111Y-66678500D01*
X140034496Y-66675157D01*
X140035423Y-66674885D01*
X140089496Y-66673474D01*
X140089684Y-66671745D01*
X140121093Y-66675157D01*
X140151866Y-66678500D01*
X141248134Y-66678500D01*
X141310316Y-66671745D01*
X141446705Y-66620615D01*
X141563261Y-66533261D01*
X141650615Y-66416705D01*
X141701745Y-66280316D01*
X141708500Y-66218134D01*
X141708500Y-64621866D01*
X141701745Y-64559684D01*
X141650615Y-64423295D01*
X141563261Y-64306739D01*
X141446705Y-64219385D01*
X141310316Y-64168255D01*
X141302460Y-64167402D01*
X141294778Y-64165575D01*
X141295177Y-64163899D01*
X141238451Y-64140334D01*
X141213610Y-64111594D01*
X141213439Y-64111727D01*
X141210933Y-64108496D01*
X141209159Y-64106444D01*
X141208576Y-64105458D01*
X141204542Y-64098637D01*
X141190218Y-64084313D01*
X141177376Y-64069278D01*
X141165472Y-64052893D01*
X141131406Y-64024711D01*
X141122627Y-64016722D01*
X139999500Y-62893595D01*
X139965474Y-62831283D01*
X139970539Y-62760468D01*
X140013086Y-62703632D01*
X140079606Y-62678821D01*
X140088595Y-62678500D01*
X140255487Y-62678500D01*
X140261939Y-62677128D01*
X140261944Y-62677128D01*
X140348888Y-62658647D01*
X140442288Y-62638794D01*
X140448319Y-62636109D01*
X140610722Y-62563803D01*
X140610724Y-62563802D01*
X140616752Y-62561118D01*
X140771253Y-62448866D01*
X140825713Y-62388382D01*
X140894621Y-62311852D01*
X140894622Y-62311851D01*
X140899040Y-62306944D01*
X140994527Y-62141556D01*
X141053542Y-61959928D01*
X141070907Y-61794706D01*
X141097920Y-61729050D01*
X141107122Y-61718782D01*
X142590500Y-60235405D01*
X142652812Y-60201379D01*
X142679595Y-60198500D01*
X143510501Y-60198500D01*
X143578622Y-60218502D01*
X143625115Y-60272158D01*
X143636501Y-60324499D01*
X143636501Y-60354884D01*
X143637039Y-60358969D01*
X143637039Y-60358973D01*
X143640823Y-60387715D01*
X143652162Y-60473850D01*
X143655322Y-60481478D01*
X143659589Y-60491780D01*
X143667179Y-60562370D01*
X143659590Y-60588218D01*
X143652162Y-60606150D01*
X143636500Y-60725115D01*
X143636500Y-60758095D01*
X143616498Y-60826216D01*
X143562842Y-60872709D01*
X143520819Y-60882545D01*
X143520865Y-60882837D01*
X143516861Y-60883471D01*
X143514461Y-60884033D01*
X143513031Y-60884078D01*
X143505111Y-60884327D01*
X143485657Y-60889979D01*
X143466300Y-60893987D01*
X143454070Y-60895532D01*
X143454069Y-60895532D01*
X143446203Y-60896526D01*
X143438832Y-60899445D01*
X143438830Y-60899445D01*
X143405088Y-60912804D01*
X143393858Y-60916649D01*
X143359017Y-60926771D01*
X143359016Y-60926771D01*
X143351407Y-60928982D01*
X143344588Y-60933015D01*
X143344583Y-60933017D01*
X143333972Y-60939293D01*
X143316224Y-60947988D01*
X143297383Y-60955448D01*
X143290967Y-60960110D01*
X143290966Y-60960110D01*
X143261613Y-60981436D01*
X143251692Y-60987952D01*
X143213638Y-61010458D01*
X143208031Y-61016064D01*
X143199315Y-61024780D01*
X143184282Y-61037620D01*
X143167893Y-61049528D01*
X143162841Y-61055635D01*
X143139712Y-61083593D01*
X143131722Y-61092374D01*
X142917742Y-61306353D01*
X142909463Y-61313887D01*
X142902982Y-61318000D01*
X142865912Y-61357476D01*
X142856356Y-61367652D01*
X142853601Y-61370494D01*
X142833865Y-61390230D01*
X142831385Y-61393427D01*
X142823682Y-61402447D01*
X142793414Y-61434679D01*
X142789595Y-61441625D01*
X142789593Y-61441628D01*
X142783652Y-61452434D01*
X142772801Y-61468953D01*
X142760386Y-61484959D01*
X142757241Y-61492228D01*
X142757238Y-61492232D01*
X142742826Y-61525537D01*
X142737609Y-61536187D01*
X142716305Y-61574940D01*
X142714334Y-61582615D01*
X142714334Y-61582616D01*
X142711267Y-61594562D01*
X142704863Y-61613266D01*
X142696819Y-61631855D01*
X142695580Y-61639678D01*
X142695577Y-61639688D01*
X142689901Y-61675524D01*
X142687495Y-61687144D01*
X142676500Y-61729970D01*
X142676500Y-61750224D01*
X142674949Y-61769934D01*
X142671780Y-61789943D01*
X142672526Y-61797835D01*
X142675941Y-61833961D01*
X142676500Y-61845819D01*
X142676500Y-62897476D01*
X142656498Y-62965597D01*
X142644142Y-62981779D01*
X142570960Y-63063056D01*
X142475473Y-63228444D01*
X142416458Y-63410072D01*
X142415768Y-63416633D01*
X142415768Y-63416635D01*
X142402005Y-63547583D01*
X142396496Y-63600000D01*
X142397186Y-63606565D01*
X142403696Y-63668500D01*
X142416458Y-63789928D01*
X142475473Y-63971556D01*
X142570960Y-64136944D01*
X142575378Y-64141851D01*
X142575379Y-64141852D01*
X142694325Y-64273955D01*
X142698747Y-64278866D01*
X142853248Y-64391118D01*
X142859276Y-64393802D01*
X142859278Y-64393803D01*
X143003167Y-64457866D01*
X143027712Y-64468794D01*
X143121112Y-64488647D01*
X143208056Y-64507128D01*
X143208061Y-64507128D01*
X143214513Y-64508500D01*
X143405487Y-64508500D01*
X143411939Y-64507128D01*
X143411944Y-64507128D01*
X143498888Y-64488647D01*
X143592288Y-64468794D01*
X143616833Y-64457866D01*
X143760722Y-64393803D01*
X143760724Y-64393802D01*
X143766752Y-64391118D01*
X143921253Y-64278866D01*
X143925675Y-64273955D01*
X144044621Y-64141852D01*
X144044622Y-64141851D01*
X144049040Y-64136944D01*
X144144527Y-63971556D01*
X144203542Y-63789928D01*
X144216305Y-63668500D01*
X144222814Y-63606565D01*
X144223504Y-63600000D01*
X144217995Y-63547583D01*
X144204232Y-63416635D01*
X144204232Y-63416633D01*
X144203542Y-63410072D01*
X144144527Y-63228444D01*
X144049040Y-63063056D01*
X144049809Y-63062612D01*
X144027825Y-63001009D01*
X144043901Y-62931856D01*
X144094812Y-62882373D01*
X144170064Y-62868886D01*
X144201025Y-62872962D01*
X144201032Y-62872962D01*
X144205115Y-62873500D01*
X144882417Y-62873500D01*
X145559884Y-62873499D01*
X145563969Y-62872961D01*
X145563973Y-62872961D01*
X145670663Y-62858916D01*
X145670665Y-62858916D01*
X145678850Y-62857838D01*
X145798950Y-62808091D01*
X145847168Y-62798500D01*
X145850406Y-62798500D01*
X145918527Y-62818502D01*
X145939501Y-62835405D01*
X146329595Y-63225499D01*
X146363621Y-63287811D01*
X146366500Y-63314594D01*
X146366500Y-66329606D01*
X146346498Y-66397727D01*
X146292652Y-66444306D01*
X146269290Y-66454928D01*
X146269286Y-66454930D01*
X146265211Y-66456783D01*
X146239916Y-66472960D01*
X146156853Y-66526081D01*
X146142503Y-66535258D01*
X146034002Y-66628748D01*
X145938250Y-66738511D01*
X145935812Y-66742272D01*
X145935810Y-66742275D01*
X145922797Y-66762352D01*
X145860350Y-66858696D01*
X145858474Y-66862757D01*
X145858473Y-66862758D01*
X145830507Y-66923283D01*
X145799252Y-66990924D01*
X145758216Y-67128142D01*
X145757554Y-67132574D01*
X145757553Y-67132577D01*
X145745055Y-67216206D01*
X145736688Y-67272196D01*
X145735813Y-67415417D01*
X145736148Y-67417861D01*
X145736271Y-67421656D01*
X145736271Y-67850000D01*
X145741500Y-67923111D01*
X145782696Y-68063411D01*
X145787567Y-68070990D01*
X145856878Y-68178841D01*
X145856880Y-68178844D01*
X145861750Y-68186421D01*
X145868560Y-68192322D01*
X145965445Y-68276274D01*
X145965448Y-68276276D01*
X145972257Y-68282176D01*
X146105266Y-68342919D01*
X146250000Y-68363729D01*
X146711047Y-68363729D01*
X146711047Y-68363727D01*
X146714015Y-68363318D01*
X146810438Y-68364497D01*
X146814723Y-68363937D01*
X146821760Y-68363729D01*
X147211047Y-68363729D01*
X147211047Y-68363727D01*
X147214015Y-68363318D01*
X147310438Y-68364497D01*
X147314723Y-68363937D01*
X147321760Y-68363729D01*
X147750000Y-68363729D01*
X147781986Y-68361441D01*
X147816373Y-68358982D01*
X147816374Y-68358982D01*
X147823111Y-68358500D01*
X147902618Y-68335155D01*
X147954765Y-68319843D01*
X147954767Y-68319842D01*
X147963411Y-68317304D01*
X148027255Y-68276274D01*
X148078841Y-68243122D01*
X148078844Y-68243120D01*
X148086421Y-68238250D01*
X148131331Y-68186421D01*
X148176274Y-68134555D01*
X148176276Y-68134552D01*
X148182176Y-68127743D01*
X148242919Y-67994734D01*
X148263729Y-67850000D01*
X148263729Y-67362678D01*
X148263750Y-67360369D01*
X148264830Y-67301453D01*
X148264912Y-67296980D01*
X148246907Y-67152435D01*
X148209234Y-67014255D01*
X148169867Y-66923283D01*
X148153173Y-66884704D01*
X148153171Y-66884699D01*
X148151388Y-66880580D01*
X148076448Y-66758528D01*
X148058610Y-66737042D01*
X147986270Y-66649907D01*
X147986268Y-66649905D01*
X147983408Y-66646460D01*
X147877224Y-66550346D01*
X147873506Y-66547838D01*
X147760183Y-66471401D01*
X147760178Y-66471398D01*
X147756464Y-66468893D01*
X147704559Y-66443746D01*
X147651979Y-66396045D01*
X147633500Y-66330355D01*
X147633500Y-63233594D01*
X147653502Y-63165473D01*
X147707158Y-63118980D01*
X147777432Y-63108876D01*
X147842012Y-63138370D01*
X147848595Y-63144499D01*
X150329595Y-65625499D01*
X150363621Y-65687811D01*
X150366500Y-65714594D01*
X150366500Y-66329606D01*
X150346498Y-66397727D01*
X150292652Y-66444306D01*
X150269290Y-66454928D01*
X150269286Y-66454930D01*
X150265211Y-66456783D01*
X150239916Y-66472960D01*
X150156853Y-66526081D01*
X150142503Y-66535258D01*
X150034002Y-66628748D01*
X149938250Y-66738511D01*
X149935812Y-66742272D01*
X149935810Y-66742275D01*
X149922797Y-66762352D01*
X149860350Y-66858696D01*
X149858474Y-66862757D01*
X149858473Y-66862758D01*
X149830507Y-66923283D01*
X149799252Y-66990924D01*
X149758216Y-67128142D01*
X149757554Y-67132574D01*
X149757553Y-67132577D01*
X149745055Y-67216206D01*
X149736688Y-67272196D01*
X149735813Y-67415417D01*
X149736148Y-67417861D01*
X149736271Y-67421656D01*
X149736271Y-67850000D01*
X149741500Y-67923111D01*
X149782696Y-68063411D01*
X149787567Y-68070990D01*
X149856878Y-68178841D01*
X149856880Y-68178844D01*
X149861750Y-68186421D01*
X149868560Y-68192322D01*
X149965445Y-68276274D01*
X149965448Y-68276276D01*
X149972257Y-68282176D01*
X150105266Y-68342919D01*
X150250000Y-68363729D01*
X150711047Y-68363729D01*
X150711047Y-68363727D01*
X150714015Y-68363318D01*
X150810438Y-68364497D01*
X150814723Y-68363937D01*
X150821760Y-68363729D01*
X151211047Y-68363729D01*
X151211047Y-68363727D01*
X151214015Y-68363318D01*
X151310438Y-68364497D01*
X151314723Y-68363937D01*
X151321760Y-68363729D01*
X151750000Y-68363729D01*
X151781986Y-68361441D01*
X151816373Y-68358982D01*
X151816374Y-68358982D01*
X151823111Y-68358500D01*
X151902618Y-68335155D01*
X151954765Y-68319843D01*
X151954767Y-68319842D01*
X151963411Y-68317304D01*
X152027255Y-68276274D01*
X152078841Y-68243122D01*
X152078844Y-68243120D01*
X152086421Y-68238250D01*
X152131331Y-68186421D01*
X152176274Y-68134555D01*
X152176276Y-68134552D01*
X152182176Y-68127743D01*
X152242919Y-67994734D01*
X152263729Y-67850000D01*
X152263729Y-67362678D01*
X152263750Y-67360369D01*
X152264830Y-67301453D01*
X152264912Y-67296980D01*
X152246907Y-67152435D01*
X152209234Y-67014255D01*
X152169867Y-66923283D01*
X152153173Y-66884704D01*
X152153171Y-66884699D01*
X152151388Y-66880580D01*
X152076448Y-66758528D01*
X152058610Y-66737042D01*
X151986270Y-66649907D01*
X151986268Y-66649905D01*
X151983408Y-66646460D01*
X151877224Y-66550346D01*
X151873506Y-66547838D01*
X151760183Y-66471401D01*
X151760178Y-66471398D01*
X151756464Y-66468893D01*
X151704559Y-66443746D01*
X151651979Y-66396045D01*
X151633500Y-66330355D01*
X151633500Y-65478768D01*
X151634027Y-65467585D01*
X151635702Y-65460092D01*
X151633562Y-65392001D01*
X151633500Y-65388044D01*
X151633500Y-65360144D01*
X151632996Y-65356153D01*
X151632063Y-65344311D01*
X151630923Y-65308036D01*
X151630674Y-65300111D01*
X151625021Y-65280652D01*
X151621012Y-65261293D01*
X151619566Y-65249851D01*
X151618474Y-65241203D01*
X151615558Y-65233837D01*
X151615556Y-65233831D01*
X151602200Y-65200098D01*
X151598355Y-65188868D01*
X151588230Y-65154017D01*
X151588230Y-65154016D01*
X151586019Y-65146407D01*
X151580523Y-65137114D01*
X151575705Y-65128966D01*
X151567008Y-65111213D01*
X151562472Y-65099758D01*
X151559552Y-65092383D01*
X151533563Y-65056612D01*
X151527047Y-65046692D01*
X151525272Y-65043690D01*
X151504542Y-65008638D01*
X151490221Y-64994317D01*
X151477380Y-64979283D01*
X151465472Y-64962893D01*
X151431395Y-64934702D01*
X151422616Y-64926712D01*
X147876923Y-61381018D01*
X147842897Y-61318706D01*
X147847962Y-61247890D01*
X147872381Y-61207613D01*
X147904503Y-61171938D01*
X147999040Y-61066944D01*
X148069825Y-60944341D01*
X148091223Y-60907279D01*
X148091224Y-60907278D01*
X148094527Y-60901556D01*
X148153542Y-60719928D01*
X148173504Y-60530000D01*
X148153542Y-60340072D01*
X148155929Y-60339821D01*
X148160488Y-60279927D01*
X148203295Y-60223287D01*
X148269929Y-60198781D01*
X148278341Y-60198500D01*
X148316233Y-60198500D01*
X148327416Y-60199027D01*
X148334909Y-60200702D01*
X148342835Y-60200453D01*
X148342836Y-60200453D01*
X148402986Y-60198562D01*
X148406945Y-60198500D01*
X148434856Y-60198500D01*
X148438791Y-60198003D01*
X148438856Y-60197995D01*
X148450693Y-60197062D01*
X148482951Y-60196048D01*
X148486970Y-60195922D01*
X148494889Y-60195673D01*
X148514343Y-60190021D01*
X148533700Y-60186013D01*
X148545930Y-60184468D01*
X148545931Y-60184468D01*
X148553797Y-60183474D01*
X148561168Y-60180555D01*
X148561170Y-60180555D01*
X148594912Y-60167196D01*
X148606142Y-60163351D01*
X148640983Y-60153229D01*
X148640984Y-60153229D01*
X148648593Y-60151018D01*
X148655412Y-60146985D01*
X148655417Y-60146983D01*
X148666028Y-60140707D01*
X148683776Y-60132012D01*
X148702617Y-60124552D01*
X148738387Y-60098564D01*
X148748307Y-60092048D01*
X148751687Y-60090049D01*
X148786362Y-60069542D01*
X148791969Y-60063936D01*
X148800685Y-60055220D01*
X148815719Y-60042379D01*
X148825695Y-60035131D01*
X148825696Y-60035130D01*
X148832107Y-60030472D01*
X148860288Y-59996407D01*
X148868278Y-59987626D01*
X149109758Y-59746147D01*
X149118037Y-59738613D01*
X149124518Y-59734500D01*
X149171145Y-59684847D01*
X149173899Y-59682006D01*
X149193635Y-59662270D01*
X149196115Y-59659073D01*
X149203820Y-59650051D01*
X149228659Y-59623600D01*
X149234086Y-59617821D01*
X149237905Y-59610875D01*
X149237907Y-59610872D01*
X149243848Y-59600066D01*
X149254699Y-59583547D01*
X149262258Y-59573801D01*
X149267114Y-59567541D01*
X149270259Y-59560272D01*
X149270262Y-59560268D01*
X149284674Y-59526963D01*
X149289891Y-59516313D01*
X149311195Y-59477560D01*
X149316233Y-59457937D01*
X149322637Y-59439234D01*
X149327533Y-59427920D01*
X149327533Y-59427919D01*
X149330681Y-59420645D01*
X149334553Y-59396200D01*
X149364966Y-59332047D01*
X149380739Y-59317165D01*
X149384827Y-59313925D01*
X149391055Y-59310071D01*
X149510864Y-59190053D01*
X149599849Y-59045692D01*
X149611651Y-59010110D01*
X149651072Y-58891262D01*
X149651072Y-58891260D01*
X149653238Y-58884731D01*
X149663500Y-58784572D01*
X149663500Y-58175428D01*
X149652978Y-58074018D01*
X149599308Y-57913151D01*
X149510071Y-57768945D01*
X149390053Y-57649136D01*
X149245692Y-57560151D01*
X149092748Y-57509421D01*
X149091262Y-57508928D01*
X149091260Y-57508928D01*
X149084731Y-57506762D01*
X148984572Y-57496500D01*
X148450428Y-57496500D01*
X148447182Y-57496837D01*
X148447178Y-57496837D01*
X148413397Y-57500342D01*
X148349018Y-57507022D01*
X148188151Y-57560692D01*
X148043945Y-57649929D01*
X148038776Y-57655107D01*
X148018759Y-57675159D01*
X147956477Y-57709238D01*
X147885657Y-57704235D01*
X147840568Y-57675314D01*
X147819920Y-57654702D01*
X147808509Y-57645690D01*
X147676709Y-57564447D01*
X147663532Y-57558303D01*
X147516157Y-57509421D01*
X147502790Y-57506555D01*
X147412730Y-57497328D01*
X147406315Y-57497000D01*
X147255588Y-57497000D01*
X147187467Y-57476998D01*
X147140974Y-57423342D01*
X147130581Y-57355210D01*
X147131529Y-57347709D01*
X147133500Y-57340030D01*
X147133500Y-57319776D01*
X147135051Y-57300065D01*
X147136980Y-57287886D01*
X147138220Y-57280057D01*
X147134059Y-57236038D01*
X147133500Y-57224181D01*
X147133500Y-57085885D01*
X147153502Y-57017764D01*
X147207158Y-56971271D01*
X147277432Y-56961167D01*
X147294652Y-56964888D01*
X147357954Y-56983279D01*
X147368635Y-56985229D01*
X147383031Y-56982205D01*
X147386000Y-56970742D01*
X147386000Y-56144500D01*
X147406002Y-56076379D01*
X147459658Y-56029886D01*
X147512000Y-56018500D01*
X147640001Y-56018499D01*
X147768001Y-56018499D01*
X147836120Y-56038501D01*
X147882613Y-56092156D01*
X147894000Y-56144499D01*
X147894000Y-56968681D01*
X147898344Y-56983476D01*
X147909840Y-56985508D01*
X147922043Y-56983279D01*
X148067287Y-56941082D01*
X148081724Y-56934834D01*
X148210627Y-56858601D01*
X148223065Y-56848952D01*
X148328952Y-56743065D01*
X148338601Y-56730627D01*
X148414834Y-56601724D01*
X148421082Y-56587287D01*
X148463279Y-56442043D01*
X148466738Y-56423105D01*
X148469439Y-56423598D01*
X148490450Y-56368489D01*
X148547593Y-56326356D01*
X148618444Y-56321805D01*
X148656883Y-56337468D01*
X148774308Y-56409849D01*
X148781256Y-56412154D01*
X148781257Y-56412154D01*
X148928738Y-56461072D01*
X148928740Y-56461072D01*
X148935269Y-56463238D01*
X149035428Y-56473500D01*
X149569572Y-56473500D01*
X149572818Y-56473163D01*
X149572822Y-56473163D01*
X149606603Y-56469658D01*
X149670982Y-56462978D01*
X149831849Y-56409308D01*
X149976055Y-56320071D01*
X150000887Y-56295195D01*
X150063168Y-56261116D01*
X150133988Y-56266118D01*
X150179078Y-56295040D01*
X150204947Y-56320864D01*
X150211177Y-56324704D01*
X150211178Y-56324705D01*
X150216702Y-56328110D01*
X150349308Y-56409849D01*
X150356256Y-56412154D01*
X150356257Y-56412154D01*
X150503738Y-56461072D01*
X150503740Y-56461072D01*
X150510269Y-56463238D01*
X150610428Y-56473500D01*
X151144572Y-56473500D01*
X151147818Y-56473163D01*
X151147822Y-56473163D01*
X151181603Y-56469658D01*
X151245982Y-56462978D01*
X151406849Y-56409308D01*
X151551055Y-56320071D01*
X151670864Y-56200053D01*
X151681139Y-56183384D01*
X151733912Y-56135890D01*
X151788399Y-56123500D01*
X154238910Y-56123500D01*
X154307031Y-56143502D01*
X154325162Y-56157649D01*
X154334679Y-56166586D01*
X154341628Y-56170406D01*
X154352432Y-56176346D01*
X154368956Y-56187199D01*
X154384959Y-56199613D01*
X154425543Y-56217176D01*
X154436173Y-56222383D01*
X154474940Y-56243695D01*
X154482617Y-56245666D01*
X154482622Y-56245668D01*
X154494558Y-56248732D01*
X154513266Y-56255137D01*
X154531855Y-56263181D01*
X154539683Y-56264421D01*
X154539690Y-56264423D01*
X154575524Y-56270099D01*
X154587144Y-56272505D01*
X154618484Y-56280551D01*
X154629970Y-56283500D01*
X154650224Y-56283500D01*
X154669934Y-56285051D01*
X154689943Y-56288220D01*
X154697835Y-56287474D01*
X154723467Y-56285051D01*
X154733962Y-56284059D01*
X154745819Y-56283500D01*
X155084986Y-56283500D01*
X155153107Y-56303502D01*
X155187882Y-56336779D01*
X155199976Y-56353891D01*
X155213479Y-56372997D01*
X155217613Y-56377024D01*
X155340550Y-56496784D01*
X155359410Y-56515157D01*
X155364206Y-56518362D01*
X155364209Y-56518364D01*
X155479053Y-56595100D01*
X155528803Y-56628342D01*
X155534106Y-56630620D01*
X155534109Y-56630622D01*
X155710680Y-56706483D01*
X155715987Y-56708763D01*
X155788817Y-56725243D01*
X155909055Y-56752450D01*
X155909060Y-56752451D01*
X155914692Y-56753725D01*
X155920463Y-56753952D01*
X155920465Y-56753952D01*
X155983470Y-56756427D01*
X156118263Y-56761723D01*
X156319883Y-56732490D01*
X156325347Y-56730635D01*
X156325352Y-56730634D01*
X156507327Y-56668862D01*
X156507332Y-56668860D01*
X156512799Y-56667004D01*
X156518653Y-56663726D01*
X156629054Y-56601898D01*
X156647989Y-56591294D01*
X160563066Y-56591294D01*
X160572948Y-56603783D01*
X160604239Y-56624691D01*
X160614349Y-56630181D01*
X160790835Y-56706005D01*
X160801778Y-56709560D01*
X160989120Y-56751952D01*
X161000530Y-56753454D01*
X161192469Y-56760995D01*
X161203951Y-56760393D01*
X161394045Y-56732832D01*
X161405240Y-56730144D01*
X161587131Y-56668400D01*
X161597628Y-56663726D01*
X161708032Y-56601898D01*
X161717895Y-56591821D01*
X161714940Y-56584151D01*
X161152811Y-56022021D01*
X161138868Y-56014408D01*
X161137034Y-56014539D01*
X161130420Y-56018790D01*
X160569259Y-56579952D01*
X160563066Y-56591294D01*
X156647989Y-56591294D01*
X156690551Y-56567458D01*
X156847186Y-56437186D01*
X156977458Y-56280551D01*
X157044321Y-56161158D01*
X157074180Y-56107842D01*
X157074181Y-56107840D01*
X157077004Y-56102799D01*
X157078860Y-56097332D01*
X157078862Y-56097327D01*
X157140634Y-55915352D01*
X157140635Y-55915347D01*
X157142490Y-55909883D01*
X157171723Y-55708263D01*
X157173249Y-55650000D01*
X157171102Y-55626638D01*
X160028012Y-55626638D01*
X160040575Y-55818304D01*
X160042376Y-55829674D01*
X160089657Y-56015843D01*
X160093498Y-56026690D01*
X160173916Y-56201130D01*
X160179664Y-56211086D01*
X160185788Y-56219751D01*
X160196377Y-56228140D01*
X160209676Y-56221113D01*
X160767979Y-55662811D01*
X160774356Y-55651132D01*
X161504408Y-55651132D01*
X161504539Y-55652966D01*
X161508790Y-55659580D01*
X162070239Y-56221028D01*
X162082614Y-56227785D01*
X162089194Y-56222859D01*
X162153726Y-56107628D01*
X162158400Y-56097131D01*
X162220144Y-55915240D01*
X162222832Y-55904045D01*
X162250689Y-55711911D01*
X162251319Y-55704528D01*
X162252650Y-55653704D01*
X162252407Y-55646305D01*
X162234643Y-55452975D01*
X162232545Y-55441654D01*
X162180408Y-55256791D01*
X162176283Y-55246044D01*
X162092163Y-55075465D01*
X162084869Y-55069990D01*
X162072449Y-55076762D01*
X161512021Y-55637189D01*
X161504408Y-55651132D01*
X160774356Y-55651132D01*
X160775592Y-55648868D01*
X160775461Y-55647034D01*
X160771210Y-55640420D01*
X160208538Y-55077749D01*
X160196163Y-55070992D01*
X160190197Y-55075458D01*
X160114645Y-55219058D01*
X160110242Y-55229691D01*
X160053281Y-55413132D01*
X160050891Y-55424376D01*
X160028313Y-55615137D01*
X160028012Y-55626638D01*
X157171102Y-55626638D01*
X157155230Y-55453891D01*
X157155137Y-55452880D01*
X157155136Y-55452877D01*
X157154608Y-55447126D01*
X157148192Y-55424376D01*
X157100875Y-55256606D01*
X157100874Y-55256604D01*
X157099307Y-55251047D01*
X157088776Y-55229691D01*
X157011756Y-55073510D01*
X157009201Y-55068329D01*
X157002059Y-55058764D01*
X156890758Y-54909715D01*
X156890758Y-54909714D01*
X156887305Y-54905091D01*
X156787217Y-54812570D01*
X156741943Y-54770719D01*
X156741940Y-54770717D01*
X156737703Y-54766800D01*
X156663250Y-54719824D01*
X156645580Y-54708675D01*
X160562788Y-54708675D01*
X160566275Y-54717064D01*
X161127189Y-55277979D01*
X161141132Y-55285592D01*
X161142966Y-55285461D01*
X161149580Y-55281210D01*
X161710285Y-54720504D01*
X161717042Y-54708129D01*
X161711012Y-54700073D01*
X161650061Y-54661616D01*
X161639813Y-54656395D01*
X161461401Y-54585216D01*
X161450373Y-54581949D01*
X161261982Y-54544476D01*
X161250535Y-54543273D01*
X161058477Y-54540759D01*
X161046997Y-54541662D01*
X160857697Y-54574190D01*
X160846577Y-54577170D01*
X160666365Y-54643653D01*
X160655991Y-54648601D01*
X160572385Y-54698342D01*
X160562788Y-54708675D01*
X156645580Y-54708675D01*
X156570288Y-54661169D01*
X156570283Y-54661167D01*
X156565404Y-54658088D01*
X156376180Y-54582595D01*
X156187371Y-54545038D01*
X156182032Y-54543976D01*
X156182031Y-54543976D01*
X156176366Y-54542849D01*
X156170592Y-54542773D01*
X156170588Y-54542773D01*
X156067452Y-54541424D01*
X155972655Y-54540183D01*
X155966958Y-54541162D01*
X155966957Y-54541162D01*
X155795102Y-54570692D01*
X155771870Y-54574684D01*
X155580734Y-54645198D01*
X155575773Y-54648150D01*
X155575772Y-54648150D01*
X155459939Y-54717064D01*
X155405649Y-54749363D01*
X155252478Y-54883690D01*
X155248906Y-54888221D01*
X155185614Y-54968506D01*
X155127732Y-55009619D01*
X155086664Y-55016500D01*
X155021090Y-55016500D01*
X154952969Y-54996498D01*
X154934838Y-54982351D01*
X154931100Y-54978841D01*
X154925321Y-54973414D01*
X154918375Y-54969595D01*
X154918372Y-54969593D01*
X154907566Y-54963652D01*
X154891047Y-54952801D01*
X154890583Y-54952441D01*
X154875041Y-54940386D01*
X154867772Y-54937241D01*
X154867768Y-54937238D01*
X154834463Y-54922826D01*
X154823813Y-54917609D01*
X154785060Y-54896305D01*
X154765437Y-54891267D01*
X154746734Y-54884863D01*
X154735420Y-54879967D01*
X154735419Y-54879967D01*
X154728145Y-54876819D01*
X154720322Y-54875580D01*
X154720312Y-54875577D01*
X154684476Y-54869901D01*
X154672856Y-54867495D01*
X154637711Y-54858472D01*
X154637710Y-54858472D01*
X154630030Y-54856500D01*
X154609776Y-54856500D01*
X154590065Y-54854949D01*
X154577886Y-54853020D01*
X154570057Y-54851780D01*
X154562165Y-54852526D01*
X154526039Y-54855941D01*
X154514181Y-54856500D01*
X151788266Y-54856500D01*
X151720145Y-54836498D01*
X151681121Y-54796802D01*
X151680741Y-54796187D01*
X151670071Y-54778945D01*
X151550053Y-54659136D01*
X151537106Y-54651155D01*
X151480506Y-54616267D01*
X151405692Y-54570151D01*
X151398743Y-54567846D01*
X151251262Y-54518928D01*
X151251260Y-54518928D01*
X151244731Y-54516762D01*
X151144572Y-54506500D01*
X150610428Y-54506500D01*
X150607182Y-54506837D01*
X150607178Y-54506837D01*
X150573397Y-54510342D01*
X150509018Y-54517022D01*
X150348151Y-54570692D01*
X150203945Y-54659929D01*
X150198777Y-54665106D01*
X150197741Y-54666143D01*
X150179113Y-54684805D01*
X150116832Y-54718884D01*
X150046012Y-54713882D01*
X150000922Y-54684960D01*
X149980233Y-54664307D01*
X149975053Y-54659136D01*
X149962106Y-54651155D01*
X149905506Y-54616267D01*
X149830692Y-54570151D01*
X149823743Y-54567846D01*
X149676262Y-54518928D01*
X149676260Y-54518928D01*
X149669731Y-54516762D01*
X149569572Y-54506500D01*
X149035428Y-54506500D01*
X149032182Y-54506837D01*
X149032178Y-54506837D01*
X148998397Y-54510342D01*
X148934018Y-54517022D01*
X148773151Y-54570692D01*
X148766927Y-54574544D01*
X148766926Y-54574544D01*
X148643122Y-54651155D01*
X148574670Y-54669992D01*
X148526780Y-54659647D01*
X148499463Y-54647826D01*
X148488813Y-54642609D01*
X148450060Y-54621305D01*
X148430437Y-54616267D01*
X148411734Y-54609863D01*
X148400420Y-54604967D01*
X148400419Y-54604967D01*
X148393145Y-54601819D01*
X148385322Y-54600580D01*
X148385312Y-54600577D01*
X148349476Y-54594901D01*
X148337856Y-54592495D01*
X148302712Y-54583472D01*
X148302709Y-54583472D01*
X148295030Y-54581500D01*
X148290773Y-54581500D01*
X148230015Y-54555002D01*
X148229629Y-54555500D01*
X148227666Y-54553977D01*
X148227193Y-54553771D01*
X148226042Y-54552717D01*
X148223367Y-54550642D01*
X148217763Y-54545038D01*
X148175384Y-54519975D01*
X148081923Y-54464703D01*
X148075100Y-54460668D01*
X148067489Y-54458457D01*
X148067487Y-54458456D01*
X148006194Y-54440649D01*
X147915937Y-54414427D01*
X147909532Y-54413923D01*
X147909527Y-54413922D01*
X147881203Y-54411693D01*
X147881195Y-54411693D01*
X147878747Y-54411500D01*
X147640145Y-54411500D01*
X147401254Y-54411501D01*
X147364063Y-54414427D01*
X147273806Y-54440649D01*
X147212513Y-54458456D01*
X147212511Y-54458457D01*
X147204900Y-54460668D01*
X147198075Y-54464704D01*
X147198071Y-54464706D01*
X147134139Y-54502515D01*
X147065323Y-54519975D01*
X147005861Y-54502515D01*
X146941929Y-54464706D01*
X146941925Y-54464704D01*
X146935100Y-54460668D01*
X146927489Y-54458457D01*
X146927487Y-54458456D01*
X146866194Y-54440649D01*
X146775937Y-54414427D01*
X146769532Y-54413923D01*
X146769527Y-54413922D01*
X146741203Y-54411693D01*
X146741195Y-54411693D01*
X146738747Y-54411500D01*
X146500145Y-54411500D01*
X146261254Y-54411501D01*
X146224063Y-54414427D01*
X146133806Y-54440649D01*
X146072513Y-54458456D01*
X146072511Y-54458457D01*
X146064900Y-54460668D01*
X146058078Y-54464703D01*
X146050800Y-54467852D01*
X146049963Y-54465918D01*
X145991754Y-54480682D01*
X145919736Y-54454731D01*
X145901384Y-54440649D01*
X145826875Y-54383476D01*
X145678850Y-54322162D01*
X145670662Y-54321084D01*
X145563972Y-54307038D01*
X145563971Y-54307038D01*
X145559885Y-54306500D01*
X144882583Y-54306500D01*
X144205116Y-54306501D01*
X144201031Y-54307039D01*
X144201027Y-54307039D01*
X144094337Y-54321084D01*
X144094335Y-54321084D01*
X144086150Y-54322162D01*
X144012137Y-54352819D01*
X143945752Y-54380316D01*
X143945750Y-54380317D01*
X143938124Y-54383476D01*
X143931574Y-54388502D01*
X143828165Y-54467852D01*
X143811013Y-54481013D01*
X143805987Y-54487563D01*
X143805984Y-54487566D01*
X143781708Y-54519204D01*
X143713476Y-54608125D01*
X143652162Y-54756150D01*
X143651084Y-54764338D01*
X143639017Y-54856000D01*
X143636500Y-54875115D01*
X143636500Y-54905500D01*
X143616498Y-54973621D01*
X143562842Y-55020114D01*
X143510500Y-55031500D01*
X142664255Y-55031500D01*
X142596134Y-55011498D01*
X142570619Y-54989810D01*
X142556043Y-54973621D01*
X142510307Y-54922826D01*
X142504192Y-54916035D01*
X142504191Y-54916034D01*
X142499770Y-54911124D01*
X142397057Y-54836498D01*
X142350611Y-54802753D01*
X142350610Y-54802752D01*
X142345269Y-54798872D01*
X142339241Y-54796188D01*
X142339239Y-54796187D01*
X142176836Y-54723881D01*
X142176835Y-54723881D01*
X142170805Y-54721196D01*
X142071430Y-54700073D01*
X141990461Y-54682862D01*
X141990456Y-54682862D01*
X141984004Y-54681490D01*
X141793030Y-54681490D01*
X141786578Y-54682862D01*
X141786573Y-54682862D01*
X141705604Y-54700073D01*
X141606229Y-54721196D01*
X141600199Y-54723881D01*
X141600198Y-54723881D01*
X141437795Y-54796187D01*
X141437793Y-54796188D01*
X141431765Y-54798872D01*
X141426424Y-54802752D01*
X141426423Y-54802753D01*
X141379977Y-54836498D01*
X141277264Y-54911124D01*
X141272843Y-54916034D01*
X141272842Y-54916035D01*
X141176070Y-55023512D01*
X141149477Y-55053046D01*
X141053990Y-55218434D01*
X141032212Y-55285461D01*
X141016465Y-55333924D01*
X140976392Y-55392530D01*
X140922830Y-55418234D01*
X140767712Y-55451206D01*
X140761682Y-55453891D01*
X140761681Y-55453891D01*
X140599278Y-55526197D01*
X140599276Y-55526198D01*
X140593248Y-55528882D01*
X140438747Y-55641134D01*
X140434326Y-55646044D01*
X140434325Y-55646045D01*
X140326179Y-55766154D01*
X140310960Y-55783056D01*
X140284045Y-55829674D01*
X140228028Y-55926699D01*
X140215473Y-55948444D01*
X140156458Y-56130072D01*
X140155768Y-56136633D01*
X140155768Y-56136635D01*
X140139915Y-56287474D01*
X140136496Y-56320000D01*
X140134528Y-56319793D01*
X140117184Y-56378862D01*
X140063528Y-56425355D01*
X139993254Y-56435459D01*
X139959937Y-56425848D01*
X139954884Y-56423598D01*
X139854405Y-56378862D01*
X139798319Y-56353891D01*
X139798318Y-56353891D01*
X139792288Y-56351206D01*
X139698887Y-56331353D01*
X139611944Y-56312872D01*
X139611939Y-56312872D01*
X139605487Y-56311500D01*
X139519500Y-56311500D01*
X139451379Y-56291498D01*
X139404886Y-56237842D01*
X139393500Y-56185500D01*
X139393500Y-55888767D01*
X139394027Y-55877584D01*
X139395702Y-55870091D01*
X139393562Y-55802000D01*
X139393500Y-55798043D01*
X139393500Y-55770144D01*
X139392996Y-55766153D01*
X139392063Y-55754311D01*
X139390923Y-55718036D01*
X139390674Y-55710111D01*
X139388462Y-55702497D01*
X139388461Y-55702492D01*
X139385023Y-55690659D01*
X139381012Y-55671295D01*
X139379775Y-55661498D01*
X139378474Y-55651203D01*
X139375557Y-55643836D01*
X139375556Y-55643831D01*
X139362198Y-55610092D01*
X139358354Y-55598865D01*
X139348230Y-55564022D01*
X139346018Y-55556407D01*
X139335707Y-55538972D01*
X139327012Y-55521224D01*
X139319552Y-55502383D01*
X139293564Y-55466613D01*
X139287048Y-55456693D01*
X139268580Y-55425465D01*
X139268578Y-55425462D01*
X139264542Y-55418638D01*
X139250218Y-55404314D01*
X139237383Y-55389287D01*
X139225472Y-55372893D01*
X139214723Y-55364000D01*
X139191402Y-55344708D01*
X139182622Y-55336718D01*
X139118653Y-55272749D01*
X139111113Y-55264463D01*
X139107000Y-55257982D01*
X139057347Y-55211355D01*
X139054506Y-55208601D01*
X139034770Y-55188865D01*
X139031573Y-55186385D01*
X139022551Y-55178680D01*
X138996100Y-55153841D01*
X138990321Y-55148414D01*
X138983375Y-55144595D01*
X138983372Y-55144593D01*
X138972566Y-55138652D01*
X138956047Y-55127801D01*
X138953707Y-55125986D01*
X138940041Y-55115386D01*
X138932772Y-55112241D01*
X138932768Y-55112238D01*
X138899463Y-55097826D01*
X138888813Y-55092609D01*
X138850060Y-55071305D01*
X138838470Y-55068329D01*
X138830438Y-55066267D01*
X138811734Y-55059863D01*
X138800420Y-55054967D01*
X138800419Y-55054967D01*
X138793145Y-55051819D01*
X138785322Y-55050580D01*
X138785312Y-55050577D01*
X138749476Y-55044901D01*
X138737866Y-55042498D01*
X138733353Y-55041339D01*
X138672344Y-55005031D01*
X138640649Y-54941502D01*
X138648332Y-54870922D01*
X138669452Y-54836783D01*
X138690508Y-54812483D01*
X138692765Y-54797417D01*
X138688428Y-54764467D01*
X138684190Y-54748652D01*
X138629247Y-54616007D01*
X138621059Y-54601824D01*
X138533656Y-54487920D01*
X138522080Y-54476344D01*
X138408176Y-54388941D01*
X138393993Y-54380753D01*
X138261350Y-54325810D01*
X138245532Y-54321572D01*
X138138934Y-54307538D01*
X138130725Y-54307000D01*
X137675615Y-54307000D01*
X137660376Y-54311475D01*
X137659171Y-54312865D01*
X137657500Y-54320548D01*
X137657500Y-54815000D01*
X137656948Y-54815000D01*
X137656947Y-54866000D01*
X137618562Y-54925725D01*
X137553981Y-54955218D01*
X137536052Y-54956500D01*
X137458167Y-54956500D01*
X137380127Y-54956501D01*
X137312008Y-54936499D01*
X137265515Y-54882844D01*
X137255410Y-54812570D01*
X137257007Y-54803718D01*
X137257500Y-54801452D01*
X137257500Y-54325116D01*
X137253025Y-54309877D01*
X137251635Y-54308672D01*
X137243952Y-54307001D01*
X136784277Y-54307001D01*
X136776065Y-54307539D01*
X136669467Y-54321572D01*
X136653652Y-54325810D01*
X136521007Y-54380753D01*
X136506824Y-54388941D01*
X136392920Y-54476344D01*
X136381344Y-54487920D01*
X136293941Y-54601824D01*
X136285753Y-54616007D01*
X136230811Y-54748649D01*
X136226572Y-54764469D01*
X136222284Y-54797040D01*
X136224495Y-54811222D01*
X136237652Y-54815000D01*
X136426663Y-54815000D01*
X136494784Y-54835002D01*
X136541277Y-54888658D01*
X136551381Y-54958932D01*
X136521887Y-55023512D01*
X136503368Y-55040962D01*
X136429263Y-55097826D01*
X136386013Y-55131013D01*
X136368497Y-55153841D01*
X136359393Y-55165705D01*
X136302054Y-55207572D01*
X136259431Y-55215000D01*
X136238035Y-55215000D01*
X136224264Y-55219044D01*
X136222235Y-55232583D01*
X136226572Y-55265533D01*
X136230810Y-55281348D01*
X136234860Y-55291126D01*
X136242450Y-55361715D01*
X136234861Y-55387564D01*
X136227162Y-55406150D01*
X136226084Y-55414338D01*
X136215338Y-55495966D01*
X136211500Y-55525115D01*
X136211500Y-55555500D01*
X136191498Y-55623621D01*
X136137842Y-55670114D01*
X136085500Y-55681500D01*
X131894000Y-55681500D01*
X131825879Y-55661498D01*
X131779386Y-55607842D01*
X131768000Y-55555500D01*
X131768000Y-55382115D01*
X131763525Y-55366876D01*
X131762135Y-55365671D01*
X131754452Y-55364000D01*
X129070116Y-55364000D01*
X129054877Y-55368475D01*
X129053672Y-55369865D01*
X129052001Y-55377548D01*
X129052001Y-56004669D01*
X129052371Y-56011490D01*
X129057895Y-56062352D01*
X129061521Y-56077604D01*
X129106676Y-56198054D01*
X129115214Y-56213649D01*
X129191715Y-56315724D01*
X129204276Y-56328285D01*
X129306351Y-56404786D01*
X129321946Y-56413324D01*
X129430827Y-56454142D01*
X129487591Y-56496784D01*
X129512291Y-56563345D01*
X129497083Y-56632694D01*
X129477691Y-56659175D01*
X129388556Y-56752450D01*
X129350629Y-56792138D01*
X129347715Y-56796410D01*
X129347714Y-56796411D01*
X129345172Y-56800138D01*
X129224743Y-56976680D01*
X129130688Y-57179305D01*
X129070989Y-57394570D01*
X129047251Y-57616695D01*
X129047548Y-57621848D01*
X129047548Y-57621851D01*
X129057934Y-57801983D01*
X129060110Y-57839715D01*
X129061247Y-57844761D01*
X129061248Y-57844767D01*
X129082922Y-57940939D01*
X129109222Y-58057639D01*
X129164225Y-58193096D01*
X129171321Y-58263737D01*
X129139099Y-58327001D01*
X129077789Y-58362801D01*
X129047482Y-58366500D01*
X128402595Y-58366500D01*
X128334474Y-58346498D01*
X128313500Y-58329595D01*
X128097218Y-58113313D01*
X128063192Y-58051001D01*
X128065755Y-57987589D01*
X128076865Y-57951022D01*
X128078370Y-57946069D01*
X128107529Y-57724590D01*
X128107904Y-57709238D01*
X128109074Y-57661365D01*
X128109074Y-57661361D01*
X128109156Y-57658000D01*
X128090852Y-57435361D01*
X128036431Y-57218702D01*
X127947354Y-57013840D01*
X127896243Y-56934834D01*
X127828822Y-56830617D01*
X127828820Y-56830614D01*
X127826014Y-56826277D01*
X127675670Y-56661051D01*
X127671619Y-56657852D01*
X127671615Y-56657848D01*
X127504414Y-56525800D01*
X127504410Y-56525798D01*
X127500359Y-56522598D01*
X127458569Y-56499529D01*
X127408598Y-56449097D01*
X127393826Y-56379654D01*
X127418942Y-56313248D01*
X127446294Y-56286641D01*
X127621328Y-56161792D01*
X127629200Y-56155139D01*
X127780052Y-56004812D01*
X127786730Y-55996965D01*
X127911003Y-55824020D01*
X127916313Y-55815183D01*
X128010670Y-55624267D01*
X128014469Y-55614672D01*
X128076377Y-55410910D01*
X128078555Y-55400837D01*
X128079986Y-55389962D01*
X128077775Y-55375778D01*
X128064617Y-55372000D01*
X125429225Y-55372000D01*
X125415694Y-55375973D01*
X125414257Y-55385966D01*
X125444565Y-55520446D01*
X125447645Y-55530275D01*
X125527770Y-55727603D01*
X125532413Y-55736794D01*
X125643694Y-55918388D01*
X125649777Y-55926699D01*
X125789213Y-56087667D01*
X125796580Y-56094883D01*
X125960434Y-56230916D01*
X125968881Y-56236831D01*
X126037969Y-56277203D01*
X126086693Y-56328842D01*
X126099764Y-56398625D01*
X126073033Y-56464396D01*
X126032584Y-56497752D01*
X126019607Y-56504507D01*
X126015474Y-56507610D01*
X126015471Y-56507612D01*
X125845100Y-56635530D01*
X125840965Y-56638635D01*
X125686629Y-56800138D01*
X125560743Y-56984680D01*
X125545386Y-57017764D01*
X125472581Y-57174610D01*
X125466688Y-57187305D01*
X125406989Y-57402570D01*
X125383251Y-57624695D01*
X125383548Y-57629848D01*
X125383548Y-57629851D01*
X125390903Y-57757407D01*
X125396110Y-57847715D01*
X125397247Y-57852761D01*
X125397248Y-57852767D01*
X125416908Y-57940000D01*
X125445222Y-58065639D01*
X125491129Y-58178694D01*
X125526018Y-58264616D01*
X125529266Y-58272616D01*
X125645987Y-58463088D01*
X125792250Y-58631938D01*
X125964126Y-58774632D01*
X126034595Y-58815811D01*
X126037445Y-58817476D01*
X126086169Y-58869114D01*
X126099240Y-58938897D01*
X126072509Y-59004669D01*
X126032055Y-59038027D01*
X126019607Y-59044507D01*
X126015474Y-59047610D01*
X126015471Y-59047612D01*
X125845100Y-59175530D01*
X125840965Y-59178635D01*
X125837393Y-59182373D01*
X125708583Y-59317165D01*
X125686629Y-59340138D01*
X125560743Y-59524680D01*
X125558564Y-59529375D01*
X125487059Y-59683420D01*
X125466688Y-59727305D01*
X125406989Y-59942570D01*
X125383251Y-60164695D01*
X125383548Y-60169848D01*
X125383548Y-60169851D01*
X125393363Y-60340072D01*
X125396110Y-60387715D01*
X125397247Y-60392761D01*
X125397248Y-60392767D01*
X125415522Y-60473850D01*
X125445222Y-60605639D01*
X125529266Y-60812616D01*
X125531965Y-60817020D01*
X125636712Y-60987952D01*
X125645987Y-61003088D01*
X125792250Y-61171938D01*
X125964126Y-61314632D01*
X125969890Y-61318000D01*
X126037445Y-61357476D01*
X126086169Y-61409114D01*
X126099240Y-61478897D01*
X126072509Y-61544669D01*
X126032055Y-61578027D01*
X126019607Y-61584507D01*
X126015474Y-61587610D01*
X126015471Y-61587612D01*
X125890572Y-61681389D01*
X125840965Y-61718635D01*
X125686629Y-61880138D01*
X125560743Y-62064680D01*
X125522402Y-62147279D01*
X125470366Y-62259382D01*
X125466688Y-62267305D01*
X125406989Y-62482570D01*
X125383251Y-62704695D01*
X125383548Y-62709848D01*
X125383548Y-62709851D01*
X125391871Y-62854190D01*
X125396110Y-62927715D01*
X125397247Y-62932761D01*
X125397248Y-62932767D01*
X125410016Y-62989421D01*
X125445222Y-63145639D01*
X125529266Y-63352616D01*
X125645987Y-63543088D01*
X125792250Y-63711938D01*
X125964126Y-63854632D01*
X126034595Y-63895811D01*
X126037445Y-63897476D01*
X126086169Y-63949114D01*
X126099240Y-64018897D01*
X126072509Y-64084669D01*
X126032055Y-64118027D01*
X126019607Y-64124507D01*
X126015474Y-64127610D01*
X126015471Y-64127612D01*
X125845100Y-64255530D01*
X125840965Y-64258635D01*
X125686629Y-64420138D01*
X125683715Y-64424410D01*
X125683714Y-64424411D01*
X125598560Y-64549242D01*
X125560743Y-64604680D01*
X125549591Y-64628706D01*
X125470672Y-64798723D01*
X125466688Y-64807305D01*
X125406989Y-65022570D01*
X125383251Y-65244695D01*
X125383548Y-65249848D01*
X125383548Y-65249851D01*
X125392544Y-65405867D01*
X125396110Y-65467715D01*
X125397247Y-65472761D01*
X125397248Y-65472767D01*
X125418275Y-65566069D01*
X125445222Y-65685639D01*
X125529266Y-65892616D01*
X125645987Y-66083088D01*
X125792250Y-66251938D01*
X125796230Y-66255242D01*
X125800981Y-66259187D01*
X125840616Y-66318090D01*
X125842113Y-66389071D01*
X125804997Y-66449593D01*
X125764725Y-66474112D01*
X125668751Y-66510091D01*
X125649295Y-66517385D01*
X125532739Y-66604739D01*
X125445385Y-66721295D01*
X125394255Y-66857684D01*
X125387500Y-66919866D01*
X125387500Y-68716134D01*
X125394255Y-68778316D01*
X125445385Y-68914705D01*
X125532739Y-69031261D01*
X125649295Y-69118615D01*
X125657704Y-69121767D01*
X125657705Y-69121768D01*
X125761481Y-69160672D01*
X125818246Y-69203313D01*
X125842946Y-69269875D01*
X125827739Y-69339224D01*
X125806347Y-69367749D01*
X124709099Y-70464996D01*
X124646787Y-70499022D01*
X124575971Y-70493957D01*
X124519136Y-70451410D01*
X124494325Y-70384890D01*
X124494004Y-70375802D01*
X124506228Y-54852183D01*
X125410389Y-54852183D01*
X125411912Y-54860607D01*
X125424292Y-54864000D01*
X126473885Y-54864000D01*
X126489124Y-54859525D01*
X126490329Y-54858135D01*
X126492000Y-54850452D01*
X126492000Y-54845885D01*
X127000000Y-54845885D01*
X127004475Y-54861124D01*
X127005865Y-54862329D01*
X127013548Y-54864000D01*
X128064344Y-54864000D01*
X128077875Y-54860027D01*
X128079180Y-54850947D01*
X128075899Y-54837885D01*
X129052000Y-54837885D01*
X129056475Y-54853124D01*
X129057865Y-54854329D01*
X129065548Y-54856000D01*
X130137885Y-54856000D01*
X130153124Y-54851525D01*
X130154329Y-54850135D01*
X130156000Y-54842452D01*
X130156000Y-54837885D01*
X130664000Y-54837885D01*
X130668475Y-54853124D01*
X130669865Y-54854329D01*
X130677548Y-54856000D01*
X131749884Y-54856000D01*
X131765123Y-54851525D01*
X131766328Y-54850135D01*
X131767999Y-54842452D01*
X131767999Y-54215331D01*
X131767629Y-54208510D01*
X131762105Y-54157648D01*
X131758479Y-54142396D01*
X131713324Y-54021946D01*
X131704786Y-54006351D01*
X131628285Y-53904276D01*
X131615724Y-53891715D01*
X131513649Y-53815214D01*
X131498054Y-53806676D01*
X131377606Y-53761522D01*
X131362351Y-53757895D01*
X131311486Y-53752369D01*
X131304672Y-53752000D01*
X130682115Y-53752000D01*
X130666876Y-53756475D01*
X130665671Y-53757865D01*
X130664000Y-53765548D01*
X130664000Y-54837885D01*
X130156000Y-54837885D01*
X130156000Y-53770116D01*
X130151525Y-53754877D01*
X130150135Y-53753672D01*
X130142452Y-53752001D01*
X129515331Y-53752001D01*
X129508510Y-53752371D01*
X129457648Y-53757895D01*
X129442396Y-53761521D01*
X129321946Y-53806676D01*
X129306351Y-53815214D01*
X129204276Y-53891715D01*
X129191715Y-53904276D01*
X129115214Y-54006351D01*
X129106676Y-54021946D01*
X129061522Y-54142394D01*
X129057895Y-54157649D01*
X129052369Y-54208514D01*
X129052000Y-54215328D01*
X129052000Y-54837885D01*
X128075899Y-54837885D01*
X128037214Y-54683875D01*
X128033894Y-54674124D01*
X127948972Y-54478814D01*
X127944105Y-54469739D01*
X127828426Y-54290926D01*
X127822136Y-54282757D01*
X127678806Y-54125240D01*
X127671273Y-54118215D01*
X127504139Y-53986222D01*
X127495552Y-53980517D01*
X127309117Y-53877599D01*
X127299705Y-53873369D01*
X127098959Y-53802280D01*
X127088988Y-53799646D01*
X127017837Y-53786972D01*
X127004540Y-53788432D01*
X127000000Y-53802989D01*
X127000000Y-54845885D01*
X126492000Y-54845885D01*
X126492000Y-53801102D01*
X126488082Y-53787758D01*
X126473806Y-53785771D01*
X126435324Y-53791660D01*
X126425288Y-53794051D01*
X126222868Y-53860212D01*
X126213359Y-53864209D01*
X126024463Y-53962542D01*
X126015738Y-53968036D01*
X125845433Y-54095905D01*
X125837726Y-54102748D01*
X125690590Y-54256717D01*
X125684104Y-54264727D01*
X125564098Y-54440649D01*
X125559000Y-54449623D01*
X125469338Y-54642783D01*
X125465775Y-54652470D01*
X125410389Y-54852183D01*
X124506228Y-54852183D01*
X124507502Y-53233901D01*
X124527558Y-53165796D01*
X124581250Y-53119345D01*
X124633502Y-53108000D01*
X163816000Y-53108000D01*
X163884121Y-53128002D01*
G37*
G04 #@! TD.AperFunction*
M02*
