G04 #@! TF.GenerationSoftware,KiCad,Pcbnew,(6.0.2)*
G04 #@! TF.CreationDate,2022-07-04T11:46:19+05:00*
G04 #@! TF.ProjectId,18bit-DIT,31386269-742d-4444-9954-2e6b69636164,rev?*
G04 #@! TF.SameCoordinates,Original*
G04 #@! TF.FileFunction,Soldermask,Top*
G04 #@! TF.FilePolarity,Negative*
%FSLAX46Y46*%
G04 Gerber Fmt 4.6, Leading zero omitted, Abs format (unit mm)*
G04 Created by KiCad (PCBNEW (6.0.2)) date 2022-07-04 11:46:19*
%MOMM*%
%LPD*%
G01*
G04 APERTURE LIST*
G04 Aperture macros list*
%AMRoundRect*
0 Rectangle with rounded corners*
0 $1 Rounding radius*
0 $2 $3 $4 $5 $6 $7 $8 $9 X,Y pos of 4 corners*
0 Add a 4 corners polygon primitive as box body*
4,1,4,$2,$3,$4,$5,$6,$7,$8,$9,$2,$3,0*
0 Add four circle primitives for the rounded corners*
1,1,$1+$1,$2,$3*
1,1,$1+$1,$4,$5*
1,1,$1+$1,$6,$7*
1,1,$1+$1,$8,$9*
0 Add four rect primitives between the rounded corners*
20,1,$1+$1,$2,$3,$4,$5,0*
20,1,$1+$1,$4,$5,$6,$7,0*
20,1,$1+$1,$6,$7,$8,$9,0*
20,1,$1+$1,$8,$9,$2,$3,0*%
%AMFreePoly0*
4,1,37,0.536062,0.786062,0.551000,0.750000,0.551000,-0.750000,0.536062,-0.786062,0.500000,-0.801000,0.000000,-0.801000,-0.012525,-0.795812,-0.080875,-0.794559,-0.095149,-0.792248,-0.230464,-0.749973,-0.243516,-0.743747,-0.361526,-0.665192,-0.372306,-0.655554,-0.463526,-0.547035,-0.471167,-0.534759,-0.528262,-0.405000,-0.532150,-0.391073,-0.549733,-0.256613,-0.548336,-0.256430,-0.551000,-0.250000,
-0.551000,0.250000,-0.550512,0.251179,-0.550356,0.263956,-0.528545,0.404033,-0.524317,0.417860,-0.464069,0.546185,-0.456130,0.558271,-0.362286,0.664529,-0.351274,0.673901,-0.231379,0.749549,-0.218180,0.755454,-0.081873,0.794411,-0.067546,0.796373,-0.011990,0.796033,0.000000,0.801000,0.500000,0.801000,0.536062,0.786062,0.536062,0.786062,$1*%
%AMFreePoly1*
4,1,37,0.012349,0.795885,0.074216,0.795507,0.088518,0.793370,0.224339,0.752751,0.237465,0.746685,0.356427,0.669578,0.367324,0.660073,0.459862,0.552676,0.467652,0.540494,0.526329,0.411442,0.530388,0.397563,0.550485,0.257230,0.551000,0.250000,0.551000,-0.250000,0.550996,-0.250622,0.550847,-0.262838,0.550144,-0.270677,0.526624,-0.410478,0.522228,-0.424254,0.460416,-0.551833,
0.452330,-0.563821,0.357195,-0.668925,0.346069,-0.678161,0.225259,-0.752338,0.211989,-0.758081,0.075216,-0.795370,0.060866,-0.797157,0.011464,-0.796251,0.000000,-0.801000,-0.500000,-0.801000,-0.536062,-0.786062,-0.551000,-0.750000,-0.551000,0.750000,-0.536062,0.786062,-0.500000,0.801000,0.000000,0.801000,0.012349,0.795885,0.012349,0.795885,$1*%
%AMFreePoly2*
4,1,37,0.586062,0.786062,0.601000,0.750000,0.601000,-0.750000,0.586062,-0.786062,0.550000,-0.801000,0.000000,-0.801000,-0.012525,-0.795812,-0.080875,-0.794559,-0.095149,-0.792248,-0.230464,-0.749973,-0.243516,-0.743747,-0.361526,-0.665192,-0.372306,-0.655554,-0.463526,-0.547035,-0.471167,-0.534759,-0.528262,-0.405000,-0.532150,-0.391073,-0.549733,-0.256613,-0.548336,-0.256430,-0.551000,-0.250000,
-0.551000,0.250000,-0.550512,0.251179,-0.550356,0.263956,-0.528545,0.404033,-0.524317,0.417860,-0.464069,0.546185,-0.456130,0.558271,-0.362286,0.664529,-0.351274,0.673901,-0.231379,0.749549,-0.218180,0.755454,-0.081873,0.794411,-0.067546,0.796373,-0.011990,0.796033,0.000000,0.801000,0.550000,0.801000,0.586062,0.786062,0.586062,0.786062,$1*%
%AMFreePoly3*
4,1,37,0.012349,0.795885,0.074216,0.795507,0.088518,0.793370,0.224339,0.752751,0.237465,0.746685,0.356427,0.669578,0.367324,0.660073,0.459862,0.552676,0.467652,0.540494,0.526329,0.411442,0.530388,0.397563,0.550485,0.257230,0.551000,0.250000,0.551000,-0.250000,0.550996,-0.250622,0.550847,-0.262838,0.550144,-0.270677,0.526624,-0.410478,0.522228,-0.424254,0.460416,-0.551833,
0.452330,-0.563821,0.357195,-0.668925,0.346069,-0.678161,0.225259,-0.752338,0.211989,-0.758081,0.075216,-0.795370,0.060866,-0.797157,0.011464,-0.796251,0.000000,-0.801000,-0.550000,-0.801000,-0.586062,-0.786062,-0.601000,-0.750000,-0.601000,0.750000,-0.586062,0.786062,-0.550000,0.801000,0.000000,0.801000,0.012349,0.795885,0.012349,0.795885,$1*%
G04 Aperture macros list end*
%ADD10RoundRect,0.269750X0.218750X0.256250X-0.218750X0.256250X-0.218750X-0.256250X0.218750X-0.256250X0*%
%ADD11RoundRect,0.051000X0.850000X0.850000X-0.850000X0.850000X-0.850000X-0.850000X0.850000X-0.850000X0*%
%ADD12O,1.802000X1.802000*%
%ADD13RoundRect,0.051000X-1.500000X-1.500000X1.500000X-1.500000X1.500000X1.500000X-1.500000X1.500000X0*%
%ADD14C,3.102000*%
%ADD15RoundRect,0.198500X-0.172500X0.147500X-0.172500X-0.147500X0.172500X-0.147500X0.172500X0.147500X0*%
%ADD16RoundRect,0.151000X-0.637500X-0.100000X0.637500X-0.100000X0.637500X0.100000X-0.637500X0.100000X0*%
%ADD17RoundRect,0.269750X0.256250X-0.218750X0.256250X0.218750X-0.256250X0.218750X-0.256250X-0.218750X0*%
%ADD18FreePoly0,90.000000*%
%ADD19FreePoly1,90.000000*%
%ADD20C,1.302000*%
%ADD21FreePoly2,0.000000*%
%ADD22RoundRect,0.051000X-0.500000X-0.750000X0.500000X-0.750000X0.500000X0.750000X-0.500000X0.750000X0*%
%ADD23FreePoly3,0.000000*%
%ADD24RoundRect,0.269750X-0.218750X-0.256250X0.218750X-0.256250X0.218750X0.256250X-0.218750X0.256250X0*%
%ADD25RoundRect,0.051000X-0.850000X-0.850000X0.850000X-0.850000X0.850000X0.850000X-0.850000X0.850000X0*%
G04 APERTURE END LIST*
D10*
X150877500Y-55490000D03*
X149302500Y-55490000D03*
D11*
X126746000Y-67818000D03*
D12*
X126746000Y-65278000D03*
X126746000Y-62738000D03*
X126746000Y-60198000D03*
X126746000Y-57658000D03*
X126746000Y-55118000D03*
D13*
X156120000Y-73080000D03*
D14*
X161200000Y-73080000D03*
D15*
X146500000Y-55215000D03*
X146500000Y-56185000D03*
X147640000Y-55215000D03*
X147640000Y-56185000D03*
D16*
X137457500Y-55015000D03*
X137457500Y-55665000D03*
X137457500Y-56315000D03*
X137457500Y-56965000D03*
X137457500Y-57615000D03*
X137457500Y-58265000D03*
X137457500Y-58915000D03*
X137457500Y-59565000D03*
X137457500Y-60215000D03*
X137457500Y-60865000D03*
X137457500Y-61515000D03*
X137457500Y-62165000D03*
X144882500Y-62165000D03*
X144882500Y-61515000D03*
X144882500Y-60865000D03*
X144882500Y-60215000D03*
X144882500Y-59565000D03*
X144882500Y-58915000D03*
X144882500Y-58265000D03*
X144882500Y-57615000D03*
X144882500Y-56965000D03*
X144882500Y-56315000D03*
X144882500Y-55665000D03*
X144882500Y-55015000D03*
D17*
X134150000Y-65497500D03*
X134150000Y-63922500D03*
D18*
X125950000Y-75520000D03*
D19*
X125950000Y-74220000D03*
D18*
X128650000Y-75520000D03*
D19*
X128650000Y-74220000D03*
D18*
X131350000Y-75520000D03*
D19*
X131350000Y-74220000D03*
D18*
X134050000Y-75520000D03*
D19*
X134050000Y-74220000D03*
D18*
X147000000Y-75520000D03*
D19*
X147000000Y-74220000D03*
D18*
X143000000Y-75520000D03*
D19*
X143000000Y-74220000D03*
D18*
X151000000Y-75520000D03*
D19*
X151000000Y-74220000D03*
D18*
X140000000Y-75520000D03*
D19*
X140000000Y-74220000D03*
D18*
X137000000Y-75520000D03*
D19*
X137000000Y-74220000D03*
D18*
X147000000Y-68650000D03*
D19*
X147000000Y-67350000D03*
D18*
X151000000Y-68650000D03*
D19*
X151000000Y-67350000D03*
D20*
X156060000Y-55650000D03*
X161140000Y-55650000D03*
X156060000Y-65810000D03*
X161140000Y-65810000D03*
D21*
X139400000Y-65420000D03*
D22*
X140700000Y-65420000D03*
D23*
X142000000Y-65420000D03*
D24*
X147142500Y-58480000D03*
X148717500Y-58480000D03*
D25*
X130410000Y-55110000D03*
D12*
X130410000Y-57650000D03*
G36*
X140766668Y-74766665D02*
G01*
X140767058Y-74768627D01*
X140766699Y-74769267D01*
X140723511Y-74820946D01*
X140714880Y-74889661D01*
X140744844Y-74952291D01*
X140765682Y-74970348D01*
X140766336Y-74972238D01*
X140765026Y-74973749D01*
X140763982Y-74973821D01*
X140749801Y-74971000D01*
X139250199Y-74971000D01*
X139235226Y-74973978D01*
X139233332Y-74973335D01*
X139232942Y-74971373D01*
X139233301Y-74970733D01*
X139276489Y-74919054D01*
X139285120Y-74850339D01*
X139255156Y-74787709D01*
X139234318Y-74769652D01*
X139233664Y-74767762D01*
X139234974Y-74766251D01*
X139236018Y-74766179D01*
X139250199Y-74769000D01*
X140749801Y-74769000D01*
X140764774Y-74766022D01*
X140766668Y-74766665D01*
G37*
G36*
X132116668Y-74766665D02*
G01*
X132117058Y-74768627D01*
X132116699Y-74769267D01*
X132073511Y-74820946D01*
X132064880Y-74889661D01*
X132094844Y-74952291D01*
X132115682Y-74970348D01*
X132116336Y-74972238D01*
X132115026Y-74973749D01*
X132113982Y-74973821D01*
X132099801Y-74971000D01*
X130600199Y-74971000D01*
X130585226Y-74973978D01*
X130583332Y-74973335D01*
X130582942Y-74971373D01*
X130583301Y-74970733D01*
X130626489Y-74919054D01*
X130635120Y-74850339D01*
X130605156Y-74787709D01*
X130584318Y-74769652D01*
X130583664Y-74767762D01*
X130584974Y-74766251D01*
X130586018Y-74766179D01*
X130600199Y-74769000D01*
X132099801Y-74769000D01*
X132114774Y-74766022D01*
X132116668Y-74766665D01*
G37*
G36*
X134816668Y-74766665D02*
G01*
X134817058Y-74768627D01*
X134816699Y-74769267D01*
X134773511Y-74820946D01*
X134764880Y-74889661D01*
X134794844Y-74952291D01*
X134815682Y-74970348D01*
X134816336Y-74972238D01*
X134815026Y-74973749D01*
X134813982Y-74973821D01*
X134799801Y-74971000D01*
X133300199Y-74971000D01*
X133285226Y-74973978D01*
X133283332Y-74973335D01*
X133282942Y-74971373D01*
X133283301Y-74970733D01*
X133326489Y-74919054D01*
X133335120Y-74850339D01*
X133305156Y-74787709D01*
X133284318Y-74769652D01*
X133283664Y-74767762D01*
X133284974Y-74766251D01*
X133286018Y-74766179D01*
X133300199Y-74769000D01*
X134799801Y-74769000D01*
X134814774Y-74766022D01*
X134816668Y-74766665D01*
G37*
G36*
X143766668Y-74766665D02*
G01*
X143767058Y-74768627D01*
X143766699Y-74769267D01*
X143723511Y-74820946D01*
X143714880Y-74889661D01*
X143744844Y-74952291D01*
X143765682Y-74970348D01*
X143766336Y-74972238D01*
X143765026Y-74973749D01*
X143763982Y-74973821D01*
X143749801Y-74971000D01*
X142250199Y-74971000D01*
X142235226Y-74973978D01*
X142233332Y-74973335D01*
X142232942Y-74971373D01*
X142233301Y-74970733D01*
X142276489Y-74919054D01*
X142285120Y-74850339D01*
X142255156Y-74787709D01*
X142234318Y-74769652D01*
X142233664Y-74767762D01*
X142234974Y-74766251D01*
X142236018Y-74766179D01*
X142250199Y-74769000D01*
X143749801Y-74769000D01*
X143764774Y-74766022D01*
X143766668Y-74766665D01*
G37*
G36*
X147766668Y-74766665D02*
G01*
X147767058Y-74768627D01*
X147766699Y-74769267D01*
X147723511Y-74820946D01*
X147714880Y-74889661D01*
X147744844Y-74952291D01*
X147765682Y-74970348D01*
X147766336Y-74972238D01*
X147765026Y-74973749D01*
X147763982Y-74973821D01*
X147749801Y-74971000D01*
X146250199Y-74971000D01*
X146235226Y-74973978D01*
X146233332Y-74973335D01*
X146232942Y-74971373D01*
X146233301Y-74970733D01*
X146276489Y-74919054D01*
X146285120Y-74850339D01*
X146255156Y-74787709D01*
X146234318Y-74769652D01*
X146233664Y-74767762D01*
X146234974Y-74766251D01*
X146236018Y-74766179D01*
X146250199Y-74769000D01*
X147749801Y-74769000D01*
X147764774Y-74766022D01*
X147766668Y-74766665D01*
G37*
G36*
X126716668Y-74766665D02*
G01*
X126717058Y-74768627D01*
X126716699Y-74769267D01*
X126673511Y-74820946D01*
X126664880Y-74889661D01*
X126694844Y-74952291D01*
X126715682Y-74970348D01*
X126716336Y-74972238D01*
X126715026Y-74973749D01*
X126713982Y-74973821D01*
X126699801Y-74971000D01*
X125200199Y-74971000D01*
X125185226Y-74973978D01*
X125183332Y-74973335D01*
X125182942Y-74971373D01*
X125183301Y-74970733D01*
X125226489Y-74919054D01*
X125235120Y-74850339D01*
X125205156Y-74787709D01*
X125184318Y-74769652D01*
X125183664Y-74767762D01*
X125184974Y-74766251D01*
X125186018Y-74766179D01*
X125200199Y-74769000D01*
X126699801Y-74769000D01*
X126714774Y-74766022D01*
X126716668Y-74766665D01*
G37*
G36*
X137766668Y-74766665D02*
G01*
X137767058Y-74768627D01*
X137766699Y-74769267D01*
X137723511Y-74820946D01*
X137714880Y-74889661D01*
X137744844Y-74952291D01*
X137765682Y-74970348D01*
X137766336Y-74972238D01*
X137765026Y-74973749D01*
X137763982Y-74973821D01*
X137749801Y-74971000D01*
X136250199Y-74971000D01*
X136235226Y-74973978D01*
X136233332Y-74973335D01*
X136232942Y-74971373D01*
X136233301Y-74970733D01*
X136276489Y-74919054D01*
X136285120Y-74850339D01*
X136255156Y-74787709D01*
X136234318Y-74769652D01*
X136233664Y-74767762D01*
X136234974Y-74766251D01*
X136236018Y-74766179D01*
X136250199Y-74769000D01*
X137749801Y-74769000D01*
X137764774Y-74766022D01*
X137766668Y-74766665D01*
G37*
G36*
X129416668Y-74766665D02*
G01*
X129417058Y-74768627D01*
X129416699Y-74769267D01*
X129373511Y-74820946D01*
X129364880Y-74889661D01*
X129394844Y-74952291D01*
X129415682Y-74970348D01*
X129416336Y-74972238D01*
X129415026Y-74973749D01*
X129413982Y-74973821D01*
X129399801Y-74971000D01*
X127900199Y-74971000D01*
X127885226Y-74973978D01*
X127883332Y-74973335D01*
X127882942Y-74971373D01*
X127883301Y-74970733D01*
X127926489Y-74919054D01*
X127935120Y-74850339D01*
X127905156Y-74787709D01*
X127884318Y-74769652D01*
X127883664Y-74767762D01*
X127884974Y-74766251D01*
X127886018Y-74766179D01*
X127900199Y-74769000D01*
X129399801Y-74769000D01*
X129414774Y-74766022D01*
X129416668Y-74766665D01*
G37*
G36*
X151766668Y-74766665D02*
G01*
X151767058Y-74768627D01*
X151766699Y-74769267D01*
X151723511Y-74820946D01*
X151714880Y-74889661D01*
X151744844Y-74952291D01*
X151765682Y-74970348D01*
X151766336Y-74972238D01*
X151765026Y-74973749D01*
X151763982Y-74973821D01*
X151749801Y-74971000D01*
X150250199Y-74971000D01*
X150235226Y-74973978D01*
X150233332Y-74973335D01*
X150232942Y-74971373D01*
X150233301Y-74970733D01*
X150276489Y-74919054D01*
X150285120Y-74850339D01*
X150255156Y-74787709D01*
X150234318Y-74769652D01*
X150233664Y-74767762D01*
X150234974Y-74766251D01*
X150236018Y-74766179D01*
X150250199Y-74769000D01*
X151749801Y-74769000D01*
X151764774Y-74766022D01*
X151766668Y-74766665D01*
G37*
G36*
X147766668Y-67896665D02*
G01*
X147767058Y-67898627D01*
X147766699Y-67899267D01*
X147723511Y-67950946D01*
X147714880Y-68019661D01*
X147744844Y-68082291D01*
X147765682Y-68100348D01*
X147766336Y-68102238D01*
X147765026Y-68103749D01*
X147763982Y-68103821D01*
X147749801Y-68101000D01*
X146250199Y-68101000D01*
X146235226Y-68103978D01*
X146233332Y-68103335D01*
X146232942Y-68101373D01*
X146233301Y-68100733D01*
X146276489Y-68049054D01*
X146285120Y-67980339D01*
X146255156Y-67917709D01*
X146234318Y-67899652D01*
X146233664Y-67897762D01*
X146234974Y-67896251D01*
X146236018Y-67896179D01*
X146250199Y-67899000D01*
X147749801Y-67899000D01*
X147764774Y-67896022D01*
X147766668Y-67896665D01*
G37*
G36*
X151766668Y-67896665D02*
G01*
X151767058Y-67898627D01*
X151766699Y-67899267D01*
X151723511Y-67950946D01*
X151714880Y-68019661D01*
X151744844Y-68082291D01*
X151765682Y-68100348D01*
X151766336Y-68102238D01*
X151765026Y-68103749D01*
X151763982Y-68103821D01*
X151749801Y-68101000D01*
X150250199Y-68101000D01*
X150235226Y-68103978D01*
X150233332Y-68103335D01*
X150232942Y-68101373D01*
X150233301Y-68100733D01*
X150276489Y-68049054D01*
X150285120Y-67980339D01*
X150255156Y-67917709D01*
X150234318Y-67899652D01*
X150233664Y-67897762D01*
X150234974Y-67896251D01*
X150236018Y-67896179D01*
X150250199Y-67899000D01*
X151749801Y-67899000D01*
X151764774Y-67896022D01*
X151766668Y-67896665D01*
G37*
G36*
X139990660Y-64637493D02*
G01*
X140004452Y-64646709D01*
X140005615Y-64644969D01*
X140007409Y-64644084D01*
X140008560Y-64644545D01*
X140025952Y-64659078D01*
X140094670Y-64667704D01*
X140142288Y-64644918D01*
X140144282Y-64645072D01*
X140144814Y-64645611D01*
X140145548Y-64646709D01*
X140159340Y-64637493D01*
X140161336Y-64637362D01*
X140162447Y-64639025D01*
X140162114Y-64640267D01*
X140154767Y-64651262D01*
X140151000Y-64670199D01*
X140151000Y-66169801D01*
X140154767Y-66188738D01*
X140162114Y-66199733D01*
X140162245Y-66201729D01*
X140160582Y-66202840D01*
X140159340Y-66202507D01*
X140145548Y-66193291D01*
X140144385Y-66195031D01*
X140142591Y-66195916D01*
X140141440Y-66195455D01*
X140124048Y-66180922D01*
X140055330Y-66172296D01*
X140007712Y-66195082D01*
X140005718Y-66194928D01*
X140005186Y-66194389D01*
X140004452Y-66193291D01*
X139990660Y-66202507D01*
X139988664Y-66202638D01*
X139987553Y-66200975D01*
X139987886Y-66199733D01*
X139995233Y-66188738D01*
X139999000Y-66169801D01*
X139999000Y-64670199D01*
X139995233Y-64651262D01*
X139987886Y-64640267D01*
X139987755Y-64638271D01*
X139989418Y-64637160D01*
X139990660Y-64637493D01*
G37*
G36*
X141240660Y-64637493D02*
G01*
X141254452Y-64646709D01*
X141255615Y-64644969D01*
X141257409Y-64644084D01*
X141258560Y-64644545D01*
X141275952Y-64659078D01*
X141344670Y-64667704D01*
X141392288Y-64644918D01*
X141394282Y-64645072D01*
X141394814Y-64645611D01*
X141395548Y-64646709D01*
X141409340Y-64637493D01*
X141411336Y-64637362D01*
X141412447Y-64639025D01*
X141412114Y-64640267D01*
X141404767Y-64651262D01*
X141401000Y-64670199D01*
X141401000Y-66169801D01*
X141404767Y-66188738D01*
X141412114Y-66199733D01*
X141412245Y-66201729D01*
X141410582Y-66202840D01*
X141409340Y-66202507D01*
X141395548Y-66193291D01*
X141394385Y-66195031D01*
X141392591Y-66195916D01*
X141391440Y-66195455D01*
X141374048Y-66180922D01*
X141305330Y-66172296D01*
X141257712Y-66195082D01*
X141255718Y-66194928D01*
X141255186Y-66194389D01*
X141254452Y-66193291D01*
X141240660Y-66202507D01*
X141238664Y-66202638D01*
X141237553Y-66200975D01*
X141237886Y-66199733D01*
X141245233Y-66188738D01*
X141249000Y-66169801D01*
X141249000Y-64670199D01*
X141245233Y-64651262D01*
X141237886Y-64640267D01*
X141237755Y-64638271D01*
X141239418Y-64637160D01*
X141240660Y-64637493D01*
G37*
G36*
X145597587Y-61742477D02*
G01*
X145597126Y-61743891D01*
X145557803Y-61790944D01*
X145549170Y-61859660D01*
X145579133Y-61922289D01*
X145587803Y-61929800D01*
X145588457Y-61931690D01*
X145587147Y-61933202D01*
X145585382Y-61932975D01*
X145577006Y-61927379D01*
X145519801Y-61916000D01*
X144245199Y-61916000D01*
X144187994Y-61927379D01*
X144170520Y-61939055D01*
X144168524Y-61939186D01*
X144167413Y-61937523D01*
X144167874Y-61936109D01*
X144207197Y-61889056D01*
X144215830Y-61820340D01*
X144185867Y-61757711D01*
X144177197Y-61750200D01*
X144176543Y-61748310D01*
X144177853Y-61746798D01*
X144179618Y-61747025D01*
X144187994Y-61752621D01*
X144245199Y-61764000D01*
X145519801Y-61764000D01*
X145577006Y-61752621D01*
X145594480Y-61740945D01*
X145596476Y-61740814D01*
X145597587Y-61742477D01*
G37*
G36*
X138172587Y-61742477D02*
G01*
X138172126Y-61743891D01*
X138132803Y-61790944D01*
X138124170Y-61859660D01*
X138154133Y-61922289D01*
X138162803Y-61929800D01*
X138163457Y-61931690D01*
X138162147Y-61933202D01*
X138160382Y-61932975D01*
X138152006Y-61927379D01*
X138094801Y-61916000D01*
X136820199Y-61916000D01*
X136762994Y-61927379D01*
X136745520Y-61939055D01*
X136743524Y-61939186D01*
X136742413Y-61937523D01*
X136742874Y-61936109D01*
X136782197Y-61889056D01*
X136790830Y-61820340D01*
X136760867Y-61757711D01*
X136752197Y-61750200D01*
X136751543Y-61748310D01*
X136752853Y-61746798D01*
X136754618Y-61747025D01*
X136762994Y-61752621D01*
X136820199Y-61764000D01*
X138094801Y-61764000D01*
X138152006Y-61752621D01*
X138169480Y-61740945D01*
X138171476Y-61740814D01*
X138172587Y-61742477D01*
G37*
G36*
X138172587Y-61092477D02*
G01*
X138172126Y-61093891D01*
X138132803Y-61140944D01*
X138124170Y-61209660D01*
X138154133Y-61272289D01*
X138162803Y-61279800D01*
X138163457Y-61281690D01*
X138162147Y-61283202D01*
X138160382Y-61282975D01*
X138152006Y-61277379D01*
X138094801Y-61266000D01*
X136820199Y-61266000D01*
X136762994Y-61277379D01*
X136745520Y-61289055D01*
X136743524Y-61289186D01*
X136742413Y-61287523D01*
X136742874Y-61286109D01*
X136782197Y-61239056D01*
X136790830Y-61170340D01*
X136760867Y-61107711D01*
X136752197Y-61100200D01*
X136751543Y-61098310D01*
X136752853Y-61096798D01*
X136754618Y-61097025D01*
X136762994Y-61102621D01*
X136820199Y-61114000D01*
X138094801Y-61114000D01*
X138152006Y-61102621D01*
X138169480Y-61090945D01*
X138171476Y-61090814D01*
X138172587Y-61092477D01*
G37*
G36*
X145597587Y-61092477D02*
G01*
X145597126Y-61093891D01*
X145557803Y-61140944D01*
X145549170Y-61209660D01*
X145579133Y-61272289D01*
X145587803Y-61279800D01*
X145588457Y-61281690D01*
X145587147Y-61283202D01*
X145585382Y-61282975D01*
X145577006Y-61277379D01*
X145519801Y-61266000D01*
X144245199Y-61266000D01*
X144187994Y-61277379D01*
X144170520Y-61289055D01*
X144168524Y-61289186D01*
X144167413Y-61287523D01*
X144167874Y-61286109D01*
X144207197Y-61239056D01*
X144215830Y-61170340D01*
X144185867Y-61107711D01*
X144177197Y-61100200D01*
X144176543Y-61098310D01*
X144177853Y-61096798D01*
X144179618Y-61097025D01*
X144187994Y-61102621D01*
X144245199Y-61114000D01*
X145519801Y-61114000D01*
X145577006Y-61102621D01*
X145594480Y-61090945D01*
X145596476Y-61090814D01*
X145597587Y-61092477D01*
G37*
G36*
X138172587Y-60442477D02*
G01*
X138172126Y-60443891D01*
X138132803Y-60490944D01*
X138124170Y-60559660D01*
X138154133Y-60622289D01*
X138162803Y-60629800D01*
X138163457Y-60631690D01*
X138162147Y-60633202D01*
X138160382Y-60632975D01*
X138152006Y-60627379D01*
X138094801Y-60616000D01*
X136820199Y-60616000D01*
X136762994Y-60627379D01*
X136745520Y-60639055D01*
X136743524Y-60639186D01*
X136742413Y-60637523D01*
X136742874Y-60636109D01*
X136782197Y-60589056D01*
X136790830Y-60520340D01*
X136760867Y-60457711D01*
X136752197Y-60450200D01*
X136751543Y-60448310D01*
X136752853Y-60446798D01*
X136754618Y-60447025D01*
X136762994Y-60452621D01*
X136820199Y-60464000D01*
X138094801Y-60464000D01*
X138152006Y-60452621D01*
X138169480Y-60440945D01*
X138171476Y-60440814D01*
X138172587Y-60442477D01*
G37*
G36*
X145597587Y-60442477D02*
G01*
X145597126Y-60443891D01*
X145557803Y-60490944D01*
X145549170Y-60559660D01*
X145579133Y-60622289D01*
X145587803Y-60629800D01*
X145588457Y-60631690D01*
X145587147Y-60633202D01*
X145585382Y-60632975D01*
X145577006Y-60627379D01*
X145519801Y-60616000D01*
X144245199Y-60616000D01*
X144187994Y-60627379D01*
X144170520Y-60639055D01*
X144168524Y-60639186D01*
X144167413Y-60637523D01*
X144167874Y-60636109D01*
X144207197Y-60589056D01*
X144215830Y-60520340D01*
X144185867Y-60457711D01*
X144177197Y-60450200D01*
X144176543Y-60448310D01*
X144177853Y-60446798D01*
X144179618Y-60447025D01*
X144187994Y-60452621D01*
X144245199Y-60464000D01*
X145519801Y-60464000D01*
X145577006Y-60452621D01*
X145594480Y-60440945D01*
X145596476Y-60440814D01*
X145597587Y-60442477D01*
G37*
G36*
X145597587Y-59792477D02*
G01*
X145597126Y-59793891D01*
X145557803Y-59840944D01*
X145549170Y-59909660D01*
X145579133Y-59972289D01*
X145587803Y-59979800D01*
X145588457Y-59981690D01*
X145587147Y-59983202D01*
X145585382Y-59982975D01*
X145577006Y-59977379D01*
X145519801Y-59966000D01*
X144245199Y-59966000D01*
X144187994Y-59977379D01*
X144170520Y-59989055D01*
X144168524Y-59989186D01*
X144167413Y-59987523D01*
X144167874Y-59986109D01*
X144207197Y-59939056D01*
X144215830Y-59870340D01*
X144185867Y-59807711D01*
X144177197Y-59800200D01*
X144176543Y-59798310D01*
X144177853Y-59796798D01*
X144179618Y-59797025D01*
X144187994Y-59802621D01*
X144245199Y-59814000D01*
X145519801Y-59814000D01*
X145577006Y-59802621D01*
X145594480Y-59790945D01*
X145596476Y-59790814D01*
X145597587Y-59792477D01*
G37*
G36*
X138172587Y-59792477D02*
G01*
X138172126Y-59793891D01*
X138132803Y-59840944D01*
X138124170Y-59909660D01*
X138154133Y-59972289D01*
X138162803Y-59979800D01*
X138163457Y-59981690D01*
X138162147Y-59983202D01*
X138160382Y-59982975D01*
X138152006Y-59977379D01*
X138094801Y-59966000D01*
X136820199Y-59966000D01*
X136762994Y-59977379D01*
X136745520Y-59989055D01*
X136743524Y-59989186D01*
X136742413Y-59987523D01*
X136742874Y-59986109D01*
X136782197Y-59939056D01*
X136790830Y-59870340D01*
X136760867Y-59807711D01*
X136752197Y-59800200D01*
X136751543Y-59798310D01*
X136752853Y-59796798D01*
X136754618Y-59797025D01*
X136762994Y-59802621D01*
X136820199Y-59814000D01*
X138094801Y-59814000D01*
X138152006Y-59802621D01*
X138169480Y-59790945D01*
X138171476Y-59790814D01*
X138172587Y-59792477D01*
G37*
G36*
X145597587Y-59142477D02*
G01*
X145597126Y-59143891D01*
X145557803Y-59190944D01*
X145549170Y-59259660D01*
X145579133Y-59322289D01*
X145587803Y-59329800D01*
X145588457Y-59331690D01*
X145587147Y-59333202D01*
X145585382Y-59332975D01*
X145577006Y-59327379D01*
X145519801Y-59316000D01*
X144245199Y-59316000D01*
X144187994Y-59327379D01*
X144170520Y-59339055D01*
X144168524Y-59339186D01*
X144167413Y-59337523D01*
X144167874Y-59336109D01*
X144207197Y-59289056D01*
X144215830Y-59220340D01*
X144185867Y-59157711D01*
X144177197Y-59150200D01*
X144176543Y-59148310D01*
X144177853Y-59146798D01*
X144179618Y-59147025D01*
X144187994Y-59152621D01*
X144245199Y-59164000D01*
X145519801Y-59164000D01*
X145577006Y-59152621D01*
X145594480Y-59140945D01*
X145596476Y-59140814D01*
X145597587Y-59142477D01*
G37*
G36*
X138172587Y-59142477D02*
G01*
X138172126Y-59143891D01*
X138132803Y-59190944D01*
X138124170Y-59259660D01*
X138154133Y-59322289D01*
X138162803Y-59329800D01*
X138163457Y-59331690D01*
X138162147Y-59333202D01*
X138160382Y-59332975D01*
X138152006Y-59327379D01*
X138094801Y-59316000D01*
X136820199Y-59316000D01*
X136762994Y-59327379D01*
X136745520Y-59339055D01*
X136743524Y-59339186D01*
X136742413Y-59337523D01*
X136742874Y-59336109D01*
X136782197Y-59289056D01*
X136790830Y-59220340D01*
X136760867Y-59157711D01*
X136752197Y-59150200D01*
X136751543Y-59148310D01*
X136752853Y-59146798D01*
X136754618Y-59147025D01*
X136762994Y-59152621D01*
X136820199Y-59164000D01*
X138094801Y-59164000D01*
X138152006Y-59152621D01*
X138169480Y-59140945D01*
X138171476Y-59140814D01*
X138172587Y-59142477D01*
G37*
G36*
X138172587Y-58492477D02*
G01*
X138172126Y-58493891D01*
X138132803Y-58540944D01*
X138124170Y-58609660D01*
X138154133Y-58672289D01*
X138162803Y-58679800D01*
X138163457Y-58681690D01*
X138162147Y-58683202D01*
X138160382Y-58682975D01*
X138152006Y-58677379D01*
X138094801Y-58666000D01*
X136820199Y-58666000D01*
X136762994Y-58677379D01*
X136745520Y-58689055D01*
X136743524Y-58689186D01*
X136742413Y-58687523D01*
X136742874Y-58686109D01*
X136782197Y-58639056D01*
X136790830Y-58570340D01*
X136760867Y-58507711D01*
X136752197Y-58500200D01*
X136751543Y-58498310D01*
X136752853Y-58496798D01*
X136754618Y-58497025D01*
X136762994Y-58502621D01*
X136820199Y-58514000D01*
X138094801Y-58514000D01*
X138152006Y-58502621D01*
X138169480Y-58490945D01*
X138171476Y-58490814D01*
X138172587Y-58492477D01*
G37*
G36*
X145597587Y-58492477D02*
G01*
X145597126Y-58493891D01*
X145557803Y-58540944D01*
X145549170Y-58609660D01*
X145579133Y-58672289D01*
X145587803Y-58679800D01*
X145588457Y-58681690D01*
X145587147Y-58683202D01*
X145585382Y-58682975D01*
X145577006Y-58677379D01*
X145519801Y-58666000D01*
X144245199Y-58666000D01*
X144187994Y-58677379D01*
X144170520Y-58689055D01*
X144168524Y-58689186D01*
X144167413Y-58687523D01*
X144167874Y-58686109D01*
X144207197Y-58639056D01*
X144215830Y-58570340D01*
X144185867Y-58507711D01*
X144177197Y-58500200D01*
X144176543Y-58498310D01*
X144177853Y-58496798D01*
X144179618Y-58497025D01*
X144187994Y-58502621D01*
X144245199Y-58514000D01*
X145519801Y-58514000D01*
X145577006Y-58502621D01*
X145594480Y-58490945D01*
X145596476Y-58490814D01*
X145597587Y-58492477D01*
G37*
G36*
X145597587Y-57842477D02*
G01*
X145597126Y-57843891D01*
X145557803Y-57890944D01*
X145549170Y-57959660D01*
X145579133Y-58022289D01*
X145587803Y-58029800D01*
X145588457Y-58031690D01*
X145587147Y-58033202D01*
X145585382Y-58032975D01*
X145577006Y-58027379D01*
X145519801Y-58016000D01*
X144245199Y-58016000D01*
X144187994Y-58027379D01*
X144170520Y-58039055D01*
X144168524Y-58039186D01*
X144167413Y-58037523D01*
X144167874Y-58036109D01*
X144207197Y-57989056D01*
X144215830Y-57920340D01*
X144185867Y-57857711D01*
X144177197Y-57850200D01*
X144176543Y-57848310D01*
X144177853Y-57846798D01*
X144179618Y-57847025D01*
X144187994Y-57852621D01*
X144245199Y-57864000D01*
X145519801Y-57864000D01*
X145577006Y-57852621D01*
X145594480Y-57840945D01*
X145596476Y-57840814D01*
X145597587Y-57842477D01*
G37*
G36*
X138172587Y-57842477D02*
G01*
X138172126Y-57843891D01*
X138132803Y-57890944D01*
X138124170Y-57959660D01*
X138154133Y-58022289D01*
X138162803Y-58029800D01*
X138163457Y-58031690D01*
X138162147Y-58033202D01*
X138160382Y-58032975D01*
X138152006Y-58027379D01*
X138094801Y-58016000D01*
X136820199Y-58016000D01*
X136762994Y-58027379D01*
X136745520Y-58039055D01*
X136743524Y-58039186D01*
X136742413Y-58037523D01*
X136742874Y-58036109D01*
X136782197Y-57989056D01*
X136790830Y-57920340D01*
X136760867Y-57857711D01*
X136752197Y-57850200D01*
X136751543Y-57848310D01*
X136752853Y-57846798D01*
X136754618Y-57847025D01*
X136762994Y-57852621D01*
X136820199Y-57864000D01*
X138094801Y-57864000D01*
X138152006Y-57852621D01*
X138169480Y-57840945D01*
X138171476Y-57840814D01*
X138172587Y-57842477D01*
G37*
G36*
X138172587Y-57192477D02*
G01*
X138172126Y-57193891D01*
X138132803Y-57240944D01*
X138124170Y-57309660D01*
X138154133Y-57372289D01*
X138162803Y-57379800D01*
X138163457Y-57381690D01*
X138162147Y-57383202D01*
X138160382Y-57382975D01*
X138152006Y-57377379D01*
X138094801Y-57366000D01*
X136820199Y-57366000D01*
X136762994Y-57377379D01*
X136745520Y-57389055D01*
X136743524Y-57389186D01*
X136742413Y-57387523D01*
X136742874Y-57386109D01*
X136782197Y-57339056D01*
X136790830Y-57270340D01*
X136760867Y-57207711D01*
X136752197Y-57200200D01*
X136751543Y-57198310D01*
X136752853Y-57196798D01*
X136754618Y-57197025D01*
X136762994Y-57202621D01*
X136820199Y-57214000D01*
X138094801Y-57214000D01*
X138152006Y-57202621D01*
X138169480Y-57190945D01*
X138171476Y-57190814D01*
X138172587Y-57192477D01*
G37*
G36*
X145597587Y-57192477D02*
G01*
X145597126Y-57193891D01*
X145557803Y-57240944D01*
X145549170Y-57309660D01*
X145579133Y-57372289D01*
X145587803Y-57379800D01*
X145588457Y-57381690D01*
X145587147Y-57383202D01*
X145585382Y-57382975D01*
X145577006Y-57377379D01*
X145519801Y-57366000D01*
X144245199Y-57366000D01*
X144187994Y-57377379D01*
X144170520Y-57389055D01*
X144168524Y-57389186D01*
X144167413Y-57387523D01*
X144167874Y-57386109D01*
X144207197Y-57339056D01*
X144215830Y-57270340D01*
X144185867Y-57207711D01*
X144177197Y-57200200D01*
X144176543Y-57198310D01*
X144177853Y-57196798D01*
X144179618Y-57197025D01*
X144187994Y-57202621D01*
X144245199Y-57214000D01*
X145519801Y-57214000D01*
X145577006Y-57202621D01*
X145594480Y-57190945D01*
X145596476Y-57190814D01*
X145597587Y-57192477D01*
G37*
G36*
X145597587Y-56542477D02*
G01*
X145597126Y-56543891D01*
X145557803Y-56590944D01*
X145549170Y-56659660D01*
X145579133Y-56722289D01*
X145587803Y-56729800D01*
X145588457Y-56731690D01*
X145587147Y-56733202D01*
X145585382Y-56732975D01*
X145577006Y-56727379D01*
X145519801Y-56716000D01*
X144245199Y-56716000D01*
X144187994Y-56727379D01*
X144170520Y-56739055D01*
X144168524Y-56739186D01*
X144167413Y-56737523D01*
X144167874Y-56736109D01*
X144207197Y-56689056D01*
X144215830Y-56620340D01*
X144185867Y-56557711D01*
X144177197Y-56550200D01*
X144176543Y-56548310D01*
X144177853Y-56546798D01*
X144179618Y-56547025D01*
X144187994Y-56552621D01*
X144245199Y-56564000D01*
X145519801Y-56564000D01*
X145577006Y-56552621D01*
X145594480Y-56540945D01*
X145596476Y-56540814D01*
X145597587Y-56542477D01*
G37*
G36*
X138172587Y-56542477D02*
G01*
X138172126Y-56543891D01*
X138132803Y-56590944D01*
X138124170Y-56659660D01*
X138154133Y-56722289D01*
X138162803Y-56729800D01*
X138163457Y-56731690D01*
X138162147Y-56733202D01*
X138160382Y-56732975D01*
X138152006Y-56727379D01*
X138094801Y-56716000D01*
X136820199Y-56716000D01*
X136762994Y-56727379D01*
X136745520Y-56739055D01*
X136743524Y-56739186D01*
X136742413Y-56737523D01*
X136742874Y-56736109D01*
X136782197Y-56689056D01*
X136790830Y-56620340D01*
X136760867Y-56557711D01*
X136752197Y-56550200D01*
X136751543Y-56548310D01*
X136752853Y-56546798D01*
X136754618Y-56547025D01*
X136762994Y-56552621D01*
X136820199Y-56564000D01*
X138094801Y-56564000D01*
X138152006Y-56552621D01*
X138169480Y-56540945D01*
X138171476Y-56540814D01*
X138172587Y-56542477D01*
G37*
G36*
X138172587Y-55892477D02*
G01*
X138172126Y-55893891D01*
X138132803Y-55940944D01*
X138124170Y-56009660D01*
X138154133Y-56072289D01*
X138162803Y-56079800D01*
X138163457Y-56081690D01*
X138162147Y-56083202D01*
X138160382Y-56082975D01*
X138152006Y-56077379D01*
X138094801Y-56066000D01*
X136820199Y-56066000D01*
X136762994Y-56077379D01*
X136745520Y-56089055D01*
X136743524Y-56089186D01*
X136742413Y-56087523D01*
X136742874Y-56086109D01*
X136782197Y-56039056D01*
X136790830Y-55970340D01*
X136760867Y-55907711D01*
X136752197Y-55900200D01*
X136751543Y-55898310D01*
X136752853Y-55896798D01*
X136754618Y-55897025D01*
X136762994Y-55902621D01*
X136820199Y-55914000D01*
X138094801Y-55914000D01*
X138152006Y-55902621D01*
X138169480Y-55890945D01*
X138171476Y-55890814D01*
X138172587Y-55892477D01*
G37*
G36*
X145597587Y-55892477D02*
G01*
X145597126Y-55893891D01*
X145557803Y-55940944D01*
X145549170Y-56009660D01*
X145579133Y-56072289D01*
X145587803Y-56079800D01*
X145588457Y-56081690D01*
X145587147Y-56083202D01*
X145585382Y-56082975D01*
X145577006Y-56077379D01*
X145519801Y-56066000D01*
X144245199Y-56066000D01*
X144187994Y-56077379D01*
X144170520Y-56089055D01*
X144168524Y-56089186D01*
X144167413Y-56087523D01*
X144167874Y-56086109D01*
X144207197Y-56039056D01*
X144215830Y-55970340D01*
X144185867Y-55907711D01*
X144177197Y-55900200D01*
X144176543Y-55898310D01*
X144177853Y-55896798D01*
X144179618Y-55897025D01*
X144187994Y-55902621D01*
X144245199Y-55914000D01*
X145519801Y-55914000D01*
X145577006Y-55902621D01*
X145594480Y-55890945D01*
X145596476Y-55890814D01*
X145597587Y-55892477D01*
G37*
G36*
X138172587Y-55242477D02*
G01*
X138172126Y-55243891D01*
X138132803Y-55290944D01*
X138124170Y-55359660D01*
X138154133Y-55422289D01*
X138162803Y-55429800D01*
X138163457Y-55431690D01*
X138162147Y-55433202D01*
X138160382Y-55432975D01*
X138152006Y-55427379D01*
X138094801Y-55416000D01*
X136820199Y-55416000D01*
X136762994Y-55427379D01*
X136745520Y-55439055D01*
X136743524Y-55439186D01*
X136742413Y-55437523D01*
X136742874Y-55436109D01*
X136782197Y-55389056D01*
X136790830Y-55320340D01*
X136760867Y-55257711D01*
X136752197Y-55250200D01*
X136751543Y-55248310D01*
X136752853Y-55246798D01*
X136754618Y-55247025D01*
X136762994Y-55252621D01*
X136820199Y-55264000D01*
X138094801Y-55264000D01*
X138152006Y-55252621D01*
X138169480Y-55240945D01*
X138171476Y-55240814D01*
X138172587Y-55242477D01*
G37*
G36*
X145597587Y-55242477D02*
G01*
X145597126Y-55243891D01*
X145557803Y-55290944D01*
X145549170Y-55359660D01*
X145579133Y-55422289D01*
X145587803Y-55429800D01*
X145588457Y-55431690D01*
X145587147Y-55433202D01*
X145585382Y-55432975D01*
X145577006Y-55427379D01*
X145519801Y-55416000D01*
X144245199Y-55416000D01*
X144187994Y-55427379D01*
X144170520Y-55439055D01*
X144168524Y-55439186D01*
X144167413Y-55437523D01*
X144167874Y-55436109D01*
X144207197Y-55389056D01*
X144215830Y-55320340D01*
X144185867Y-55257711D01*
X144177197Y-55250200D01*
X144176543Y-55248310D01*
X144177853Y-55246798D01*
X144179618Y-55247025D01*
X144187994Y-55252621D01*
X144245199Y-55264000D01*
X145519801Y-55264000D01*
X145577006Y-55252621D01*
X145594480Y-55240945D01*
X145596476Y-55240814D01*
X145597587Y-55242477D01*
G37*
M02*
