M48
; DRILL file {KiCad (6.0.2)} date Mon Jul  4 11:46:16 2022
; FORMAT={-:-/ absolute / inch / decimal}
; #@! TF.CreationDate,2022-07-04T11:46:16+05:00
; #@! TF.GenerationSoftware,Kicad,Pcbnew,(6.0.2)
; #@! TF.FileFunction,Plated,1,2,PTH
FMAT,2
INCH
; #@! TA.AperFunction,Plated,PTH,ViaDrill
T1C0.0157
; #@! TA.AperFunction,Plated,PTH,ComponentDrill
T2C0.0276
; #@! TA.AperFunction,Plated,PTH,ComponentDrill
T3C0.0394
; #@! TA.AperFunction,Plated,PTH,ComponentDrill
T4C0.0598
%
G90
G05
T1
X5.2815Y-2.6386
X5.2976Y-2.7327
X5.2998Y-2.4608
X5.3937Y-2.8504
X5.4273Y-2.5786
X5.4772Y-2.7327
X5.4925Y-2.2528
X5.5118Y-2.8472
X5.5181Y-2.4319
X5.5531Y-2.2173
X5.5862Y-2.1886
X5.6299Y-2.8531
X5.6421Y-2.5039
X5.7059Y-2.8028
X5.7976Y-2.3831
X5.9449Y-2.826
X5.9465Y-2.3953
X6.1776Y-2.4894
T2
X6.1441Y-2.1909
X6.1441Y-2.5909
X6.3441Y-2.1909
X6.3441Y-2.5909
T3
X4.99Y-2.17
X4.99Y-2.27
X4.99Y-2.37
X4.99Y-2.47
X4.99Y-2.57
X4.99Y-2.67
X5.1343Y-2.1697
X5.1343Y-2.2697
T4
X6.1465Y-2.8772
X6.3465Y-2.8772
T0
M30
